<?xml version="1.0" encoding="UTF-8" standalone="no"?>
<!DOCTYPE svg PUBLIC "-//W3C//DTD SVG 1.1//EN" "http://www.w3.org/Graphics/SVG/1.1/DTD/svg11.dtd">
<svg width="100%" height="100%" viewBox="0 0 32 32" version="1.1" xmlns="http://www.w3.org/2000/svg" xmlns:xlink="http://www.w3.org/1999/xlink" xml:space="preserve" xmlns:serif="http://www.serif.com/" style="fill-rule:evenodd;clip-rule:evenodd;stroke-linejoin:round;stroke-miterlimit:2;">
    <path d="M15.999,32c-1.85,0 -3.622,-0.297 -5.257,-0.841c1.108,-2.508 4.004,-4.608 5.257,-5.43c1.257,0.822 4.153,2.924 5.259,5.43c-1.635,0.544 -3.407,0.841 -5.259,0.841Zm-14.803,-12.496c4.613,0.725 9.003,2.406 12.84,4.918c-1.608,1.13 -4.195,3.253 -5.379,5.879c-4.332,-2.165 -7.298,-6.178 -7.461,-10.797Zm22.147,10.797c-1.184,-2.626 -3.771,-4.748 -5.379,-5.879c3.837,-2.512 8.227,-4.193 12.84,-4.918c-0.163,4.619 -3.129,8.632 -7.461,10.797Zm-7.344,-14.203c1.068,0.685 3.339,2.293 4.674,4.315c-1.628,0.777 -3.192,1.678 -4.674,2.697c-1.48,-1.019 -3.044,-1.92 -4.672,-2.697c1.335,-2.024 3.608,-3.63 4.672,-4.315Zm-12.65,-4.144c1.912,0.443 6.227,1.748 8.217,4.811c-0.842,0.787 -1.671,1.711 -2.314,2.737c-2.123,-0.847 -4.335,-1.492 -6.604,-1.92c-0.196,-2.264 0.34,-4.461 0.701,-5.628Zm26.003,5.628c-2.269,0.428 -4.481,1.073 -6.602,1.92c-0.645,-1.026 -1.474,-1.95 -2.316,-2.737c1.99,-3.064 6.306,-4.368 8.218,-4.811c0.359,1.167 0.896,3.364 0.7,5.628Zm-17.905,-4.222c1.337,-2.189 3.491,-3.922 4.554,-4.696c1.063,0.772 3.213,2.5 4.553,4.696c-0.683,0.568 -1.313,1.218 -1.843,1.961c-1.143,-0.86 -2.042,-1.37 -2.127,-1.418c-0.359,-0.201 -0.809,-0.201 -1.168,-0c-0.085,0.048 -0.984,0.558 -2.127,1.418c-0.53,-0.743 -1.158,-1.393 -1.842,-1.961Zm-3.103,-8.969c1.187,0.466 3.576,1.536 5.444,3.202c-1.236,0.984 -2.947,2.548 -4.182,4.485c-1.539,-0.904 -3.145,-1.494 -4.415,-1.867c0.657,-2.508 2.319,-4.789 3.153,-5.82Zm15.317,0c0.834,1.028 2.495,3.304 3.151,5.82c-1.271,0.371 -2.877,0.961 -4.418,1.866c-1.235,-1.934 -2.943,-3.498 -4.179,-4.482c1.863,-1.661 4.259,-2.736 5.446,-3.204Zm-7.66,-4.391c0.94,0.62 2.792,1.953 4.139,3.643c-1.238,0.668 -2.612,1.557 -3.795,2.675c-0.224,-0.067 -0.465,-0.067 -0.688,0c-1.184,-1.12 -2.557,-2.009 -3.795,-2.675c1.345,-1.685 3.2,-3.022 4.139,-3.643Z" style="fill:#1e0930;fill-rule:nonzero;"/>
</svg>
