<svg width="100%" height="100%" viewBox="0 0 482 133" version="1.1" xmlns="http://www.w3.org/2000/svg" xmlns:xlink="http://www.w3.org/1999/xlink" xml:space="preserve" xmlns:serif="http://www.serif.com/" style="fill-rule:evenodd;clip-rule:evenodd;stroke-linejoin:round;stroke-miterlimit:2;">
    <style>
        .background {
            fill: #282547;
        }
        [data-theme-mode="dark"] .background {
            fill: #221E44;
        }
    </style>
    <path class="background" d="M481.5,45c-0,-11.935 -4.741,-23.381 -13.18,-31.82c-8.439,-8.439 -19.885,-13.18 -31.82,-13.18l-391.5,0c-11.935,-0 -23.381,4.741 -31.82,13.18c-8.439,8.439 -13.18,19.885 -13.18,31.82l0,42.465c0,11.935 4.741,23.381 13.18,31.82c8.439,8.439 19.885,13.18 31.82,13.18l436.5,0l0,-87.465Z" style="fill:#282547;"/>
    <g>
        <path d="M165.961,78.797c-0.252,0.944 -0.42,2.396 -0.42,3.702c0,2.904 0.924,5.297 2.856,7.037c2.184,2.031 5.291,3.118 9.406,3.118c4.955,0 8.315,-1.015 11.086,-3.19c3.024,-2.32 4.787,-5.222 5.795,-9.506l9.071,-39.566l-8.903,-0l-9.07,39.494c-0.84,3.775 -3.528,5.88 -6.803,5.88c-2.939,0 -4.535,-1.452 -4.535,-4.065c-0,-0.726 0.084,-1.525 0.252,-2.251l9.07,-39.058l-8.902,-0l-8.903,38.405Zm38.465,2.613c0,3.122 0.504,5.009 2.016,7.111c1.932,2.611 5.123,4.133 10.33,4.133c5.039,0 8.063,-1.015 10.666,-2.973c3.444,-2.61 5.291,-5.875 6.551,-11.102l-8.986,-0c-0.588,2.251 -1.428,3.92 -2.772,5.3c-1.091,1.161 -2.519,1.887 -4.619,1.887c-3.023,0 -4.283,-1.597 -4.283,-4.428c-0,-3.122 1.008,-8.497 2.519,-15.105c3.024,-12.783 4.116,-15.904 6.467,-18.01c1.092,-1.016 2.436,-1.524 4.284,-1.524c3.275,-0 4.199,1.887 4.199,4.21c-0,0.944 -0,1.815 -0.252,2.904l8.902,0c0.252,-1.306 0.252,-2.25 0.252,-3.339c0,-2.686 -0.924,-5.515 -2.519,-7.255c-2.1,-2.248 -5.543,-3.408 -9.911,-3.408c-4.871,-0 -8.23,1.16 -11.086,3.625c-3.779,3.19 -5.543,7.11 -9.238,22.797c-1.596,7.044 -2.52,12.055 -2.52,15.177Zm-154.28,-3.412c-0.42,2.106 -0.672,3.63 -0.672,5.227c0,2.614 1.008,4.789 2.688,6.311c2.183,2.031 5.123,3.046 10.246,3.046c5.543,-0 8.986,-1.088 11.758,-3.408c2.603,-2.175 4.031,-4.787 5.375,-10.668c0.588,-2.541 0.84,-4.865 0.84,-6.826c-0,-4.14 -1.932,-6.464 -7.727,-8.861l-4.787,-1.961c-2.1,-0.871 -3.276,-2.033 -3.276,-4.14c0,-1.089 0.168,-2.396 0.42,-3.485c0.504,-2.251 1.26,-4.066 2.688,-5.227c1.092,-0.944 2.352,-1.307 3.947,-1.307c1.512,-0 2.52,0.508 3.024,1.089c0.672,0.726 0.924,1.524 0.924,2.831c-0,1.016 -0.084,2.105 -0.504,3.775l8.902,0c0.42,-2.105 0.588,-3.775 0.588,-5.227c-0,-2.758 -1.008,-5.078 -2.352,-6.238c-2.351,-2.031 -4.955,-3.118 -9.994,-3.118c-5.039,-0 -8.23,1.305 -10.834,3.553c-2.687,2.247 -4.283,5.513 -5.291,9.869c-0.504,2.033 -0.672,3.776 -0.672,5.664c0,3.704 1.596,6.174 6.215,8.134l5.543,2.325c2.772,1.089 4.031,2.469 4.031,4.502c0,1.308 -0.168,2.905 -0.588,4.576c-0.839,3.339 -1.343,4.574 -2.939,5.88c-1.176,0.944 -2.688,1.452 -4.535,1.452c-1.68,0 -2.856,-0.508 -3.612,-1.307c-0.671,-0.653 -1.007,-1.597 -1.007,-2.831c-0,-1.016 0.168,-2.105 0.503,-3.63l-8.902,0Zm35.442,14.075l8.902,0l4.619,-20.182l6.047,-0c9.071,-0 14.698,-3.045 17.637,-15.75c0.504,-2.324 0.672,-4.213 0.672,-6.029c-0,-2.76 -0.756,-5.298 -2.772,-7.038c-2.183,-1.885 -4.955,-2.682 -9.658,-2.682l-13.521,-0l-11.926,51.681Zm38.129,0l8.902,0l4.955,-21.416l5.208,-0l2.687,21.416l8.902,0l-3.191,-22.794c4.871,-1.885 7.727,-4.64 9.826,-13.646c0.504,-2.252 0.756,-4.213 0.756,-5.884c0,-5.587 -3.443,-9.357 -12.094,-9.357l-14.025,-0l-11.926,51.681Zm115.983,0l23.852,0l1.596,-6.888l-14.95,0l3.612,-15.763l12.849,0l1.596,-6.815l-12.85,0l3.528,-15.327l14.949,-0l1.596,-6.888l-23.852,-0l-11.926,51.681Zm-138.995,-27.07l4.115,-17.723l4.619,-0c3.78,-0 5.124,1.452 5.124,4.358c-0,1.307 -0.336,3.05 -0.672,4.503c-1.512,6.537 -3.696,8.862 -8.315,8.862l-4.871,-0Zm38.381,-1.017l3.863,-16.706l5.04,-0c3.611,-0 4.703,1.597 4.703,4.212c-0,1.163 -0.252,2.616 -0.588,4.141c-1.176,5.23 -3.276,8.353 -7.643,8.353l-5.375,0Z" style="fill:#fff;fill-rule:nonzero;"/>
        <path d="M395.324,77.343c-0.42,2.106 -0.588,3.704 -0.588,5.229c0,2.685 1.092,5.151 3.024,6.819c2.436,2.103 5.795,3.263 11.338,3.263c6.467,0 10.078,-1.233 13.102,-3.844c2.519,-2.175 3.947,-4.714 5.291,-10.523c0.588,-2.542 0.755,-4.865 0.755,-6.899c0,-4.429 -2.183,-6.898 -8.482,-9.44l-4.787,-1.961c-2.016,-0.799 -3.024,-1.96 -3.024,-3.631c0,-1.016 0.168,-2.106 0.42,-3.195c0.252,-1.089 0.84,-2.759 1.848,-3.631c0.924,-0.799 1.932,-1.089 3.191,-1.089c1.26,0 2.016,0.436 2.436,0.799c0.588,0.508 0.84,1.307 0.84,2.541c-0,0.799 -0.084,1.743 -0.42,3.196l11.254,-0c0.42,-2.034 0.504,-3.777 0.504,-5.229c-0,-2.612 -0.924,-5.151 -2.688,-6.674c-2.435,-2.103 -5.543,-3.263 -11.17,-3.263c-5.879,-0 -9.154,1.45 -11.926,3.844c-2.687,2.32 -4.199,5.875 -5.039,9.506c-0.504,2.179 -0.756,3.994 -0.756,6.173c0,3.558 1.848,6.535 6.467,8.423l5.795,2.397c2.604,1.016 3.948,2.178 3.948,4.212c-0,0.871 -0.084,2.396 -0.42,3.848c-0.504,2.179 -1.092,3.486 -2.268,4.503c-1.092,0.944 -2.352,1.234 -3.863,1.234c-1.344,0 -2.268,-0.435 -2.94,-1.016c-0.588,-0.509 -0.924,-1.38 -0.924,-2.615c0,-0.726 0.084,-1.742 0.336,-2.977l-11.254,0Zm-77.098,-11.111c-1.428,5.883 -2.267,10.748 -2.267,13.943c-0,3.268 0.419,5.154 1.931,7.475c2.016,3.119 5.711,5.004 11.926,5.004c5.627,0 9.322,-1.305 12.514,-4.061c3.863,-3.336 5.627,-7.546 9.154,-22.361c1.428,-5.882 2.268,-10.747 2.268,-13.942c-0,-3.268 -0.42,-5.154 -1.932,-7.475c-2.015,-3.119 -5.711,-5.004 -11.926,-5.004c-5.627,-0 -9.322,1.305 -12.513,4.061c-3.864,3.336 -5.627,7.546 -9.155,22.36Zm38.045,13.943c0,3.268 0.42,5.154 1.932,7.475c2.016,3.119 5.711,5.004 11.926,5.004c5.963,0 9.07,-1.16 11.926,-3.336c3.527,-2.683 5.459,-5.948 6.887,-11.757l-11.422,-0c-0.504,1.815 -1.176,3.268 -2.1,4.43c-1.008,1.234 -2.268,1.96 -4.283,1.96c-2.688,0 -3.612,-1.525 -3.612,-3.921c0,-3.123 1.092,-8.714 2.268,-13.798c2.519,-10.892 3.779,-14.668 5.711,-16.339c1.008,-0.871 2.1,-1.379 3.695,-1.379c2.856,-0 3.612,1.67 3.612,3.631c-0,0.871 -0,1.597 -0.168,2.686l11.254,0c0.168,-1.234 0.168,-2.251 0.168,-3.267c-0,-2.978 -1.092,-6.096 -2.856,-7.982c-2.435,-2.611 -6.299,-3.771 -11.086,-3.771c-5.627,-0 -9.238,1.305 -12.43,4.061c-3.863,3.336 -5.627,7.546 -9.154,22.36c-1.428,5.883 -2.268,10.748 -2.268,13.943Zm-83.817,11.898l16.461,0c6.047,0 9.995,-1.378 13.522,-4.424c3.947,-3.408 5.627,-8.781 8.566,-21.489c1.26,-5.664 2.352,-10.893 2.352,-13.217c0,-3.05 -0.588,-5.517 -2.016,-7.475c-2.351,-3.263 -5.207,-5.076 -11.506,-5.076l-15.453,-0l-11.926,51.681Zm57.026,-25.841c2.52,-10.892 3.779,-14.668 5.711,-16.339c1.008,-0.871 2.1,-1.379 3.611,-1.379c2.772,-0 3.696,1.525 3.696,3.921c-0,3.123 -1.092,8.714 -2.268,13.797c-2.519,10.893 -3.779,14.669 -5.711,16.34c-1.008,0.871 -2.099,1.379 -3.611,1.379c-2.772,0 -3.695,-1.525 -3.695,-3.921c-0,-3.123 1.091,-8.714 2.267,-13.798Zm-43.756,17.138l7.895,-34.275l4.451,-0c1.26,-0 2.267,0.363 2.939,1.016c0.756,0.727 1.092,1.743 1.092,2.832c0,2.978 -1.26,8.569 -2.352,13.217c-1.343,5.737 -2.939,12.563 -4.787,14.959c-1.091,1.307 -2.603,2.251 -5.123,2.251l-4.115,0Z" style="fill:#31eaff;fill-rule:nonzero;"/>
    </g>
</svg>
