<?xml version="1.0" encoding="UTF-8" standalone="no"?>
<!DOCTYPE svg PUBLIC "-//W3C//DTD SVG 1.1//EN" "http://www.w3.org/Graphics/SVG/1.1/DTD/svg11.dtd">
<svg width="100%" height="100%" viewBox="0 0 482 133" version="1.1" xmlns="http://www.w3.org/2000/svg" xmlns:xlink="http://www.w3.org/1999/xlink" xml:space="preserve" xmlns:serif="http://www.serif.com/" style="fill-rule:evenodd;clip-rule:evenodd;stroke-linejoin:round;stroke-miterlimit:2;">
    <path d="M481.5,45c-0,-11.935 -4.741,-23.381 -13.18,-31.82c-8.439,-8.439 -19.885,-13.18 -31.82,-13.18l-391.5,0c-11.935,-0 -23.381,4.741 -31.82,13.18c-8.439,8.439 -13.18,19.885 -13.18,31.82l0,42.465c0,11.935 4.741,23.381 13.18,31.82c8.439,8.439 19.885,13.18 31.82,13.18l436.5,0l0,-87.465Z" style="fill:#282547;"/>
    <g transform="matrix(6.99875,0,0,6.04995,-679.661,-733.942)">
        <g transform="matrix(12,0,0,12,104.037,136.533)">
            <path d="M0.02,-0.194c-0.005,0.029 -0.008,0.05 -0.008,0.072c0,0.036 0.012,0.066 0.032,0.087c0.026,0.028 0.061,0.042 0.122,0.042c0.066,-0 0.107,-0.015 0.14,-0.047c0.031,-0.03 0.048,-0.066 0.064,-0.147c0.007,-0.035 0.01,-0.067 0.01,-0.094c0,-0.057 -0.023,-0.089 -0.092,-0.122l-0.057,-0.027c-0.025,-0.012 -0.039,-0.028 -0.039,-0.057c-0,-0.015 0.002,-0.033 0.005,-0.048c0.006,-0.031 0.015,-0.056 0.032,-0.072c0.013,-0.013 0.028,-0.018 0.047,-0.018c0.018,-0 0.03,0.007 0.036,0.015c0.008,0.01 0.011,0.021 0.011,0.039c-0,0.014 -0.001,0.029 -0.006,0.052l0.106,-0c0.005,-0.029 0.007,-0.052 0.007,-0.072c-0,-0.038 -0.012,-0.07 -0.028,-0.086c-0.028,-0.028 -0.059,-0.043 -0.119,-0.043c-0.06,0 -0.098,0.018 -0.129,0.049c-0.032,0.031 -0.051,0.076 -0.063,0.136c-0.006,0.028 -0.008,0.052 -0.008,0.078c-0,0.051 0.019,0.085 0.074,0.112l0.066,0.032c0.033,0.015 0.048,0.034 0.048,0.062c0,0.018 -0.002,0.04 -0.007,0.063c-0.01,0.046 -0.016,0.063 -0.035,0.081c-0.014,0.013 -0.032,0.02 -0.054,0.02c-0.02,0 -0.034,-0.007 -0.043,-0.018c-0.008,-0.009 -0.012,-0.022 -0.012,-0.039c-0,-0.014 0.002,-0.029 0.006,-0.05l-0.106,0Z" style="fill:#fff;fill-rule:nonzero;"/>
        </g>
        <g transform="matrix(12,0,0,12,109.293,136.533)">
            <path d="M0.004,-0l0.106,-0l0.055,-0.278l0.072,-0c0.108,-0 0.175,-0.042 0.21,-0.217c0.006,-0.032 0.008,-0.058 0.008,-0.083c0,-0.038 -0.009,-0.073 -0.033,-0.097c-0.026,-0.026 -0.059,-0.037 -0.115,-0.037l-0.161,0l-0.142,0.712Zm0.18,-0.373l0.049,-0.244l0.055,-0c0.045,-0 0.061,0.02 0.061,0.06c-0,0.018 -0.004,0.042 -0.008,0.062c-0.018,0.09 -0.044,0.122 -0.099,0.122l-0.058,0Z" style="fill:#fff;fill-rule:nonzero;"/>
        </g>
        <g transform="matrix(12,0,0,12,114.741,136.533)">
            <path d="M0.004,-0l0.106,-0l0.059,-0.295l0.062,-0l0.032,0.295l0.106,-0l-0.038,-0.314c0.058,-0.026 0.092,-0.064 0.117,-0.188c0.006,-0.031 0.009,-0.058 0.009,-0.081c0,-0.077 -0.041,-0.129 -0.144,-0.129l-0.167,0l-0.142,0.712Zm0.183,-0.387l0.046,-0.23l0.06,-0c0.043,-0 0.056,0.022 0.056,0.058c0,0.016 -0.003,0.036 -0.007,0.057c-0.014,0.072 -0.039,0.115 -0.091,0.115l-0.064,0Z" style="fill:#fff;fill-rule:nonzero;"/>
        </g>
        <g transform="matrix(12,0,0,12,120.405,136.533)">
            <path d="M0.035,-0.183c-0.003,0.013 -0.005,0.033 -0.005,0.051c-0,0.04 0.011,0.073 0.034,0.097c0.026,0.028 0.063,0.043 0.112,0.043c0.059,-0 0.099,-0.014 0.132,-0.044c0.036,-0.032 0.057,-0.072 0.069,-0.131l0.108,-0.545l-0.106,0l-0.108,0.544c-0.01,0.052 -0.042,0.081 -0.081,0.081c-0.035,0 -0.054,-0.02 -0.054,-0.056c0,-0.01 0.001,-0.021 0.003,-0.031l0.108,-0.538l-0.106,0l-0.106,0.529Z" style="fill:#fff;fill-rule:nonzero;"/>
        </g>
        <g transform="matrix(12,0,0,12,125.997,136.533)">
            <path d="M0.027,-0.147c0,0.043 0.006,0.069 0.024,0.098c0.023,0.036 0.061,0.057 0.123,0.057c0.06,-0 0.096,-0.014 0.127,-0.041c0.041,-0.036 0.063,-0.081 0.078,-0.153l-0.107,0c-0.007,0.031 -0.017,0.054 -0.033,0.073c-0.013,0.016 -0.03,0.026 -0.055,0.026c-0.036,0 -0.051,-0.022 -0.051,-0.061c0,-0.043 0.012,-0.117 0.03,-0.208c0.036,-0.176 0.049,-0.219 0.077,-0.248c0.013,-0.014 0.029,-0.021 0.051,-0.021c0.039,-0 0.05,0.026 0.05,0.058c0,0.013 0,0.025 -0.003,0.04l0.106,-0c0.003,-0.018 0.003,-0.031 0.003,-0.046c0,-0.037 -0.011,-0.076 -0.03,-0.1c-0.025,-0.031 -0.066,-0.047 -0.118,-0.047c-0.058,0 -0.098,0.016 -0.132,0.05c-0.045,0.044 -0.066,0.098 -0.11,0.314c-0.019,0.097 -0.03,0.166 -0.03,0.209Z" style="fill:#fff;fill-rule:nonzero;"/>
        </g>
        <g transform="matrix(12,0,0,12,131.313,136.533)">
            <path d="M0.004,-0l0.284,-0l0.019,-0.095l-0.178,0l0.043,-0.217l0.153,-0l0.019,-0.094l-0.153,0l0.042,-0.211l0.178,-0l0.019,-0.095l-0.284,0l-0.142,0.712Z" style="fill:#fff;fill-rule:nonzero;"/>
        </g>
        <g transform="matrix(12,0,0,12,136.053,136.533)">
            <path d="M0.157,-0.12l0.094,-0.472l0.053,-0c0.015,-0 0.027,0.005 0.035,0.014c0.009,0.01 0.013,0.024 0.013,0.039c0,0.041 -0.015,0.118 -0.028,0.182c-0.016,0.079 -0.035,0.173 -0.057,0.206c-0.013,0.018 -0.031,0.031 -0.061,0.031l-0.049,0Zm-0.158,0.12l0.196,-0c0.072,-0 0.119,-0.019 0.161,-0.061c0.047,-0.047 0.067,-0.121 0.102,-0.296c0.015,-0.078 0.028,-0.15 0.028,-0.182c0,-0.042 -0.007,-0.076 -0.024,-0.103c-0.028,-0.045 -0.062,-0.07 -0.137,-0.07l-0.184,0l-0.142,0.712Z" style="fill:#31eaff;fill-rule:nonzero;"/>
        </g>
        <g transform="matrix(12,0,0,12,141.981,136.533)">
            <path d="M0.05,-0.356c-0.017,0.081 -0.027,0.148 -0.027,0.192c-0,0.045 0.005,0.071 0.023,0.103c0.024,0.043 0.068,0.069 0.142,0.069c0.067,-0 0.111,-0.018 0.149,-0.056c0.046,-0.046 0.067,-0.104 0.109,-0.308c0.017,-0.081 0.027,-0.148 0.027,-0.192c0,-0.045 -0.005,-0.071 -0.023,-0.103c-0.024,-0.043 -0.068,-0.069 -0.142,-0.069c-0.067,0 -0.111,0.018 -0.149,0.056c-0.046,0.046 -0.067,0.104 -0.109,0.308Zm0.134,-0c0.03,-0.15 0.045,-0.202 0.068,-0.225c0.012,-0.012 0.025,-0.019 0.043,-0.019c0.033,-0 0.044,0.021 0.044,0.054c0,0.043 -0.013,0.12 -0.027,0.19c-0.03,0.15 -0.045,0.202 -0.068,0.225c-0.012,0.012 -0.025,0.019 -0.043,0.019c-0.033,0 -0.044,-0.021 -0.044,-0.054c0,-0.043 0.013,-0.12 0.027,-0.19Z" style="fill:#31eaff;fill-rule:nonzero;"/>
        </g>
        <g transform="matrix(12,0,0,12,147.741,136.533)">
            <path d="M0.023,-0.164c0,0.045 0.005,0.071 0.023,0.103c0.024,0.043 0.068,0.069 0.142,0.069c0.071,-0 0.108,-0.016 0.142,-0.046c0.042,-0.037 0.065,-0.082 0.082,-0.162l-0.136,0c-0.006,0.025 -0.014,0.045 -0.025,0.061c-0.012,0.017 -0.027,0.027 -0.051,0.027c-0.032,0 -0.043,-0.021 -0.043,-0.054c0,-0.043 0.013,-0.12 0.027,-0.19c0.03,-0.15 0.045,-0.202 0.068,-0.225c0.012,-0.012 0.025,-0.019 0.044,-0.019c0.034,-0 0.043,0.023 0.043,0.05c0,0.012 0,0.022 -0.002,0.037l0.134,-0c0.002,-0.017 0.002,-0.031 0.002,-0.045c0,-0.041 -0.013,-0.084 -0.034,-0.11c-0.029,-0.036 -0.075,-0.052 -0.132,-0.052c-0.067,0 -0.11,0.018 -0.148,0.056c-0.046,0.046 -0.067,0.104 -0.109,0.308c-0.017,0.081 -0.027,0.148 -0.027,0.192Z" style="fill:#31eaff;fill-rule:nonzero;"/>
        </g>
        <g transform="matrix(12,0,0,12,153.381,136.533)">
            <path d="M0.018,-0.203c-0.005,0.029 -0.007,0.051 -0.007,0.072c-0,0.037 0.013,0.071 0.036,0.094c0.029,0.029 0.069,0.045 0.135,0.045c0.077,-0 0.12,-0.017 0.156,-0.053c0.03,-0.03 0.047,-0.065 0.063,-0.145c0.007,-0.035 0.009,-0.067 0.009,-0.095c-0,-0.061 -0.026,-0.095 -0.101,-0.13l-0.057,-0.027c-0.024,-0.011 -0.036,-0.027 -0.036,-0.05c-0,-0.014 0.002,-0.029 0.005,-0.044c0.003,-0.015 0.01,-0.038 0.022,-0.05c0.011,-0.011 0.023,-0.015 0.038,-0.015c0.015,-0 0.024,0.006 0.029,0.011c0.007,0.007 0.01,0.018 0.01,0.035c-0,0.011 -0.001,0.024 -0.005,0.044l0.134,-0c0.005,-0.028 0.006,-0.052 0.006,-0.072c-0,-0.036 -0.011,-0.071 -0.032,-0.092c-0.029,-0.029 -0.066,-0.045 -0.133,-0.045c-0.07,0 -0.109,0.02 -0.142,0.053c-0.032,0.032 -0.05,0.081 -0.06,0.131c-0.006,0.03 -0.009,0.055 -0.009,0.085c-0,0.049 0.022,0.09 0.077,0.116l0.069,0.033c0.031,0.014 0.047,0.03 0.047,0.058c0,0.012 -0.001,0.033 -0.005,0.053c-0.006,0.03 -0.013,0.048 -0.027,0.062c-0.013,0.013 -0.028,0.017 -0.046,0.017c-0.016,0 -0.027,-0.006 -0.035,-0.014c-0.007,-0.007 -0.011,-0.019 -0.011,-0.036c0,-0.01 0.001,-0.024 0.004,-0.041l-0.134,0Z" style="fill:#31eaff;fill-rule:nonzero;"/>
        </g>
    </g>
</svg>
