<?xml version="1.0" encoding="UTF-8" standalone="no"?>
<!DOCTYPE svg PUBLIC "-//W3C//DTD SVG 1.1//EN" "http://www.w3.org/Graphics/SVG/1.1/DTD/svg11.dtd">
<svg width="100%" height="100%" viewBox="0 0 600 133" version="1.1" xmlns="http://www.w3.org/2000/svg" xmlns:xlink="http://www.w3.org/1999/xlink" xml:space="preserve" xmlns:serif="http://www.serif.com/" style="fill-rule:evenodd;clip-rule:evenodd;stroke-linejoin:round;stroke-miterlimit:2;">
    <path d="M600,26.493c0,-14.622 -11.871,-26.493 -26.493,-26.493l-547.014,0c-14.622,0 -26.493,11.871 -26.493,26.493l0,79.479c0,14.622 11.871,26.493 26.493,26.493l547.014,0c14.622,0 26.493,-11.871 26.493,-26.493l0,-79.479Z" style="fill:#131127;"/>
    <g>
        <path d="M396.747,68.722c-0.06,0.304 -0.121,0.562 -0.182,0.775c-0.061,0.212 -0.121,0.41 -0.182,0.592c-0.061,0.183 -0.091,0.411 -0.091,0.684l-0,1.049c-1.824,3.221 -4.119,5.926 -6.884,8.114c-2.766,2.189 -5.805,4.119 -9.118,5.79c-3.313,1.672 -6.762,3.191 -10.349,4.559c-3.586,1.368 -7.081,2.842 -10.485,4.422c-1.459,-0.365 -2.568,-0.973 -3.328,-1.824c-0.76,-0.85 -1.337,-1.838 -1.732,-2.963c-0.395,-1.124 -0.669,-2.37 -0.821,-3.738c-0.152,-1.368 -0.289,-2.781 -0.41,-4.24c0.182,-0.668 0.441,-1.231 0.775,-1.687c0.334,-0.455 0.501,-1.109 0.501,-1.96c0.487,-1.58 0.973,-3.13 1.459,-4.65c0.486,-1.519 0.79,-3.069 0.912,-4.65c0.182,-0.486 0.517,-0.82 1.003,-1.003c0.304,-2.917 0.319,-5.881 0.046,-8.89c-0.274,-3.008 -0.775,-5.82 -1.505,-8.433c0.061,-0.608 0.137,-1.049 0.228,-1.322c0.091,-0.274 0.076,-0.472 -0.046,-0.593c-0.06,-0.486 0.107,-0.73 0.502,-0.73l1.231,0c-0,-0.911 -0.167,-1.823 -0.502,-2.735c-0.334,-0.912 -0.653,-1.945 -0.957,-3.1c0.425,-0.912 0.699,-1.808 0.821,-2.69c0.121,-0.881 0.395,-1.656 0.82,-2.325c3.283,1.034 6.428,2.28 9.437,3.739c3.009,1.459 5.972,2.522 8.89,3.191c2.188,1.58 4.437,3.145 6.747,4.695c2.31,1.55 4.407,3.252 6.291,5.106c1.884,1.854 3.465,3.967 4.741,6.337c1.277,2.371 2.006,5.197 2.188,8.48Zm-21.608,5.014c1.276,-0.486 2.537,-1.003 3.783,-1.55c1.246,-0.547 2.401,-1.17 3.465,-1.869c1.064,-0.699 2.021,-1.504 2.872,-2.416c0.851,-0.912 1.55,-2.006 2.097,-3.282c-0.364,-0.73 -0.851,-1.383 -1.459,-1.961c-0.607,-0.577 -1.215,-1.124 -1.823,-1.641c-0.608,-0.516 -1.201,-1.048 -1.778,-1.595c-0.578,-0.547 -1.049,-1.216 -1.413,-2.006c-0.791,-0.122 -1.49,-0.35 -2.097,-0.684c-0.608,-0.334 -1.201,-0.669 -1.778,-1.003c-0.578,-0.334 -1.186,-0.654 -1.824,-0.957c-0.638,-0.304 -1.383,-0.487 -2.234,-0.547c-1.337,-0.669 -2.537,-1.155 -3.601,-1.459c-1.064,-0.304 -1.869,-0.699 -2.416,-1.186c-0.426,0 -0.76,0.092 -1.003,0.274c0.608,2.31 1.063,4.483 1.367,6.519c0.304,2.036 0.471,4.073 0.502,6.109c0.03,2.036 -0.076,4.118 -0.319,6.246c-0.243,2.127 -0.578,4.437 -1.003,6.929c0.608,-0.061 1.17,-0.198 1.687,-0.41c0.516,-0.213 1.033,-0.441 1.55,-0.684c0.516,-0.243 1.063,-0.471 1.641,-0.684c0.577,-0.213 1.261,-0.35 2.051,-0.41c0.183,-0.365 0.441,-0.669 0.775,-0.912c0.334,-0.243 0.654,-0.517 0.958,-0.821Z" style="fill:#31eaff;fill-rule:nonzero;"/>
        <path d="M454.163,65.986c-0.06,0.73 0,1.429 0.183,2.097c0.182,0.669 0.41,1.322 0.684,1.961c0.273,0.638 0.531,1.291 0.775,1.96c0.243,0.669 0.425,1.337 0.547,2.006c0.121,0.851 0.121,1.778 -0,2.781c-0.122,1.003 -0.335,1.975 -0.639,2.917c-0.304,0.943 -0.699,1.794 -1.185,2.553c-0.486,0.76 -1.064,1.322 -1.732,1.687c-0.851,1.094 -1.885,1.945 -3.1,2.553c-1.216,0.608 -2.341,1.337 -3.374,2.188c-0.669,0.426 -1.413,0.73 -2.234,0.912c-0.82,0.182 -1.656,0.365 -2.507,0.547c-0.669,0.365 -1.459,0.745 -2.371,1.14c-0.911,0.395 -1.854,0.76 -2.826,1.094c-0.973,0.334 -1.945,0.577 -2.918,0.729c-0.972,0.152 -1.823,0.198 -2.553,0.137c-1.823,0.669 -3.601,1.11 -5.334,1.322c-1.732,0.213 -3.753,0.076 -6.063,-0.41c-2.188,0.304 -4.209,0.213 -6.063,-0.274c-1.854,-0.486 -3.495,-1.261 -4.924,-2.325c-1.428,-1.063 -2.674,-2.34 -3.738,-3.829c-1.064,-1.489 -1.93,-3.054 -2.598,-4.696c-0.487,-3.464 -0.365,-6.61 0.364,-9.436c0.73,-2.827 1.778,-5.441 3.146,-7.842c1.367,-2.401 2.933,-4.619 4.695,-6.656c1.763,-2.036 3.465,-4.027 5.106,-5.972c0.365,0.122 0.654,0.107 0.867,-0.045c0.212,-0.152 0.41,-0.365 0.592,-0.638c0.183,-0.274 0.38,-0.532 0.593,-0.775c0.213,-0.244 0.471,-0.396 0.775,-0.456c0.425,-0.912 1.048,-1.596 1.869,-2.052c0.821,-0.456 1.474,-1.109 1.96,-1.96c0.547,-0.122 1.003,-0.304 1.368,-0.547c0.365,-0.243 0.714,-0.517 1.048,-0.821c0.335,-0.304 0.684,-0.592 1.049,-0.866c0.365,-0.273 0.79,-0.471 1.276,-0.593l0,-1.003c1.095,-0.486 1.9,-1.048 2.417,-1.686c0.516,-0.639 1.139,-1.414 1.869,-2.325c0.547,-0.061 0.988,-0.091 1.322,-0.091c0.334,-0 0.836,-0.061 1.504,-0.183c0.487,-0.851 0.927,-1.489 1.322,-1.915c0.395,-0.425 0.988,-0.881 1.778,-1.367c0.73,0.364 1.535,0.608 2.416,0.729c0.882,0.122 1.657,0.517 2.325,1.186c0.061,0.607 0.244,1.078 0.548,1.413c0.303,0.334 0.638,0.638 1.002,0.912c0.365,0.273 0.715,0.562 1.049,0.866c0.334,0.304 0.562,0.729 0.684,1.276c0.243,0.061 0.41,0.031 0.501,-0.091c0.091,-0.122 0.259,-0.152 0.502,-0.091c0.182,0.851 0.395,1.413 0.638,1.687c0.243,0.273 0.486,0.805 0.729,1.595c-0.304,0.608 -0.531,1.231 -0.683,1.869c-0.152,0.639 -0.532,1.11 -1.14,1.414c-0.061,0.425 0.061,0.653 0.365,0.683c0.304,0.031 0.486,0.198 0.547,0.502c0.06,0.547 -0.031,0.942 -0.274,1.185c1.459,2.371 2.766,4.878 3.921,7.522c1.155,2.644 2.462,5.152 3.92,7.522Zm-11.397,8.662c0.243,-0.669 0.562,-1.216 0.958,-1.641c0.395,-0.426 0.623,-1.064 0.683,-1.915c-0.304,-0.486 -0.486,-0.866 -0.547,-1.139c-0.06,-0.274 -0.091,-0.715 -0.091,-1.323c-1.337,-1.884 -2.492,-3.905 -3.465,-6.063c-0.972,-2.158 -2.066,-4.179 -3.282,-6.063c-0.121,0.243 -0.334,0.486 -0.638,0.729c-0.304,0.243 -0.638,0.183 -1.003,-0.182c-0.122,0.486 -0.334,0.836 -0.638,1.049c-0.304,0.212 -0.639,0.303 -1.003,0.273c-0.365,-0.03 -0.745,-0.122 -1.14,-0.273c-0.395,-0.152 -0.745,-0.35 -1.049,-0.593c-1.762,1.398 -3.525,2.766 -5.288,4.103c-1.763,1.337 -3.343,2.887 -4.741,4.65c-0.243,0.121 -0.395,0.167 -0.456,0.137c-0.061,-0.031 -0.243,0.015 -0.547,0.136c-0.486,1.155 -1.079,2.204 -1.778,3.146c-0.699,0.942 -1.383,1.9 -2.051,2.872c-0.669,0.973 -1.246,2.006 -1.733,3.1c-0.486,1.094 -0.76,2.371 -0.82,3.829c1.033,0.851 2.249,1.368 3.647,1.551c1.398,0.182 2.841,0.212 4.331,0.091c1.489,-0.122 2.948,-0.319 4.376,-0.593c1.429,-0.274 2.751,-0.41 3.966,-0.41c2.553,-0.608 4.742,-1.414 6.565,-2.416c1.824,-1.003 3.738,-2.022 5.744,-3.055Z" style="fill:#31eaff;fill-rule:nonzero;"/>
        <path d="M500.456,93.522c-0.973,0.061 -2.173,0.03 -3.602,-0.091c-1.428,-0.122 -2.75,0.091 -3.966,0.638c-3.222,-0.122 -6.504,-0.517 -9.847,-1.186c-3.343,-0.668 -6.413,-1.489 -9.209,-2.461c-0.608,-0.669 -1.216,-1.292 -1.824,-1.869c-0.607,-0.578 -1.428,-0.988 -2.461,-1.231c-1.459,-1.155 -2.644,-2.568 -3.556,-4.24c-0.912,-1.672 -1.641,-3.45 -2.188,-5.334c-0.548,-1.884 -0.912,-3.814 -1.095,-5.79c-0.182,-1.975 -0.243,-3.875 -0.182,-5.698c0.912,-2.735 2.204,-5.091 3.875,-7.066c1.672,-1.976 3.389,-3.936 5.152,-5.881c0.79,-0.365 1.382,-0.745 1.778,-1.14c0.395,-0.395 0.82,-0.76 1.276,-1.094c0.456,-0.334 0.912,-0.669 1.368,-1.003c0.456,-0.334 0.866,-0.745 1.231,-1.231c1.276,-0.304 2.385,-0.745 3.327,-1.322c0.943,-0.577 1.87,-1.185 2.781,-1.824c0.912,-0.638 1.854,-1.23 2.827,-1.777c0.972,-0.548 2.097,-0.973 3.373,-1.277c0.487,-0.547 1.064,-0.988 1.733,-1.322c0.668,-0.334 1.352,-0.669 2.051,-1.003c0.699,-0.334 1.368,-0.684 2.006,-1.048c0.638,-0.365 1.14,-0.851 1.505,-1.459c0.303,0.486 0.729,0.653 1.276,0.501c0.547,-0.152 1.064,-0.319 1.55,-0.501c0.304,-0.061 0.562,-0 0.775,0.182c0.213,0.182 0.41,0.365 0.593,0.547c0.182,0.182 0.349,0.289 0.501,0.319c0.152,0.031 0.289,-0.106 0.41,-0.41c0.304,-0 0.396,0.152 0.274,0.456c-0.122,0.304 -0.213,0.516 -0.274,0.638c0.487,-0.061 0.897,0.046 1.231,0.319c0.335,0.274 0.867,0.441 1.596,0.502c0.243,0.304 0.304,0.531 0.182,0.683c-0.121,0.152 -0.182,0.411 -0.182,0.775c1.823,0.548 2.978,1.414 3.465,2.599c0.486,1.185 0.516,2.416 0.091,3.693c-0.426,1.276 -1.185,2.461 -2.28,3.556c-1.094,1.094 -2.279,1.823 -3.555,2.188c-2.918,0.79 -5.669,1.656 -8.252,2.598c-2.583,0.943 -4.696,2.325 -6.337,4.149c-1.459,0.425 -2.75,0.988 -3.875,1.687c-1.124,0.699 -2.188,1.489 -3.191,2.37c-1.003,0.882 -1.945,1.793 -2.826,2.736c-0.882,0.942 -1.809,1.869 -2.781,2.78c0.06,0.851 -0.076,1.505 -0.411,1.961c-0.334,0.456 -0.653,0.927 -0.957,1.413c0.122,0.912 0.334,1.717 0.638,2.416c0.304,0.699 0.638,1.383 1.003,2.052c4.012,1.215 8.282,1.975 12.811,2.279c4.528,0.304 9.072,0.486 13.63,0.547c0.426,0.608 0.927,1.17 1.505,1.687c0.577,0.517 1.109,1.064 1.595,1.641c0.487,0.578 0.882,1.216 1.186,1.915c0.304,0.699 0.364,1.565 0.182,2.598c-0.851,0.912 -1.793,1.748 -2.826,2.508c-1.034,0.76 -2.067,1.535 -3.1,2.325Z" style="fill:#31eaff;fill-rule:nonzero;"/>
        <path d="M513.833,52.31c0.426,-1.277 1.109,-2.371 2.052,-3.283c0.942,-0.911 1.975,-1.686 3.1,-2.325c1.124,-0.638 2.294,-1.17 3.51,-1.595c1.216,-0.426 2.371,-0.79 3.465,-1.094c2.431,-1.034 5.03,-2.021 7.795,-2.964c2.766,-0.942 5.592,-1.777 8.48,-2.507c2.887,-0.729 5.85,-1.2 8.889,-1.413c3.04,-0.213 6.231,0.167 9.574,1.14c0.182,0.607 0.456,1.185 0.821,1.732c0.364,0.547 0.744,1.094 1.139,1.641c0.395,0.547 0.745,1.079 1.049,1.596c0.304,0.516 0.486,1.048 0.547,1.595c0.608,0.547 1.094,1.14 1.459,1.778c0.364,0.638 0.425,1.474 0.182,2.508c-0.608,0.486 -1.2,0.927 -1.778,1.322c-0.577,0.395 -1.2,0.744 -1.869,1.048c-2.249,-0.547 -4.528,-0.729 -6.838,-0.547c-2.31,0.182 -4.377,0.334 -6.2,0.456c-0.547,-0.547 -1.201,-0.821 -1.961,-0.821c-0.759,0 -1.55,0.122 -2.37,0.365c-0.821,0.243 -1.641,0.486 -2.462,0.73c-0.821,0.243 -1.596,0.303 -2.325,0.182c-0.608,0.486 -1.352,0.805 -2.234,0.957c-0.881,0.152 -1.839,0.289 -2.872,0.411c-0.061,0.303 0,0.501 0.182,0.592c0.183,0.091 0.213,0.289 0.092,0.593c0.364,0.425 0.835,0.729 1.413,0.912c0.577,0.182 1.185,0.364 1.823,0.547c0.639,0.182 1.201,0.41 1.687,0.684c0.486,0.273 0.821,0.714 1.003,1.322c0.912,-0 1.702,0.212 2.371,0.638c0.668,0.425 1.215,0.942 1.641,1.55c0.425,0.608 0.745,1.261 0.957,1.96c0.213,0.699 0.319,1.322 0.319,1.869c0.183,0.487 0.396,0.699 0.639,0.638c0.243,-0.06 0.516,0.061 0.82,0.365c0.183,0.79 0.638,1.596 1.368,2.416c0.729,0.821 1.307,1.718 1.732,2.69c0.122,1.52 0.213,2.872 0.274,4.057c0.061,1.186 -0.152,2.386 -0.638,3.602c-0.912,2.249 -2.173,4.255 -3.784,6.018c-1.611,1.762 -3.435,3.328 -5.471,4.695c-2.036,1.368 -4.209,2.538 -6.519,3.511c-2.31,0.972 -4.559,1.793 -6.747,2.461c-0.243,-0.06 -0.486,-0.06 -0.73,0c-0.243,0.061 -0.303,-0.091 -0.182,-0.456c-0.486,0.426 -1.018,0.699 -1.595,0.821c-0.578,0.122 -1.201,0.167 -1.87,0.137c-0.668,-0.031 -1.352,-0.076 -2.051,-0.137c-0.699,-0.061 -1.353,-0.03 -1.96,0.091c-0.426,-0.425 -0.806,-0.836 -1.14,-1.231c-0.334,-0.395 -0.593,-0.896 -0.775,-1.504c-0.304,-0 -0.441,-0.152 -0.41,-0.456c0.03,-0.304 -0.076,-0.456 -0.32,-0.456c0.365,-0.608 0.532,-0.957 0.502,-1.048c-0.03,-0.092 -0.122,-0.168 -0.274,-0.228c-0.152,-0.061 -0.288,-0.137 -0.41,-0.228c-0.121,-0.091 -0.152,-0.228 -0.091,-0.411c0.243,-0.486 0.334,-1.048 0.273,-1.686c-0.06,-0.639 -0.121,-1.292 -0.182,-1.961c-0.061,-0.668 -0.015,-1.307 0.137,-1.914c0.152,-0.608 0.593,-1.094 1.322,-1.459c2.067,0.243 4.027,0.167 5.881,-0.228c1.854,-0.395 3.601,-0.957 5.243,-1.687c1.641,-0.729 3.206,-1.52 4.695,-2.371c1.489,-0.85 2.963,-1.61 4.422,-2.279c0.183,-0.547 0.441,-1.003 0.775,-1.368c0.335,-0.364 0.684,-0.699 1.049,-1.003c0.364,-0.303 0.699,-0.638 1.003,-1.002c0.304,-0.365 0.516,-0.821 0.638,-1.368c0.061,-0.426 -0.046,-0.684 -0.319,-0.775c-0.274,-0.091 -0.41,-0.319 -0.41,-0.684l-1.003,-0.273c-1.155,-0.669 -2.462,-1.231 -3.921,-1.687c-1.459,-0.456 -2.705,-0.958 -3.738,-1.505c-0.669,0.365 -1.292,0.456 -1.869,0.274c-0.578,-0.183 -1.322,-0.365 -2.234,-0.547c-2.067,-0.122 -4.058,-0.335 -5.972,-0.638c-1.915,-0.304 -3.754,-0.851 -5.517,-1.642c-0.121,-0.304 -0.273,-0.577 -0.455,-0.82c-0.183,-0.243 -0.517,-0.304 -1.003,-0.183c-0.365,-0.486 -0.73,-0.957 -1.094,-1.413c-0.365,-0.456 -0.7,-0.957 -1.003,-1.504c0.121,-0.73 0.212,-1.353 0.273,-1.869c0.061,-0.517 -0.121,-1.019 -0.547,-1.505c0.243,-0.79 0.426,-1.428 0.547,-1.914c0.122,-0.487 0.122,-1.125 0,-1.915Z" style="fill:#31eaff;fill-rule:nonzero;"/>
        <path d="M34.506,52.31c0.426,-1.277 1.109,-2.371 2.052,-3.283c0.942,-0.911 1.975,-1.686 3.1,-2.325c1.124,-0.638 2.294,-1.17 3.51,-1.595c1.216,-0.426 2.37,-0.79 3.465,-1.094c2.431,-1.034 5.03,-2.021 7.795,-2.964c2.766,-0.942 5.592,-1.777 8.48,-2.507c2.887,-0.729 5.85,-1.2 8.889,-1.413c3.04,-0.213 6.231,0.167 9.574,1.14c0.182,0.607 0.456,1.185 0.821,1.732c0.364,0.547 0.744,1.094 1.139,1.641c0.395,0.547 0.745,1.079 1.049,1.596c0.304,0.516 0.486,1.048 0.547,1.595c0.608,0.547 1.094,1.14 1.459,1.778c0.364,0.638 0.425,1.474 0.182,2.508c-0.608,0.486 -1.2,0.927 -1.778,1.322c-0.577,0.395 -1.2,0.744 -1.869,1.048c-2.249,-0.547 -4.528,-0.729 -6.838,-0.547c-2.31,0.182 -4.377,0.334 -6.2,0.456c-0.547,-0.547 -1.201,-0.821 -1.961,-0.821c-0.759,0 -1.55,0.122 -2.37,0.365c-0.821,0.243 -1.641,0.486 -2.462,0.73c-0.821,0.243 -1.596,0.303 -2.325,0.182c-0.608,0.486 -1.352,0.805 -2.234,0.957c-0.881,0.152 -1.839,0.289 -2.872,0.411c-0.061,0.303 0,0.501 0.182,0.592c0.183,0.091 0.213,0.289 0.092,0.593c0.364,0.425 0.835,0.729 1.413,0.912c0.577,0.182 1.185,0.364 1.823,0.547c0.639,0.182 1.201,0.41 1.687,0.684c0.486,0.273 0.821,0.714 1.003,1.322c0.912,-0 1.702,0.212 2.371,0.638c0.668,0.425 1.215,0.942 1.641,1.55c0.425,0.608 0.745,1.261 0.957,1.96c0.213,0.699 0.319,1.322 0.319,1.869c0.183,0.487 0.396,0.699 0.639,0.638c0.243,-0.06 0.516,0.061 0.82,0.365c0.183,0.79 0.638,1.596 1.368,2.416c0.729,0.821 1.307,1.718 1.732,2.69c0.122,1.52 0.213,2.872 0.274,4.057c0.061,1.186 -0.152,2.386 -0.638,3.602c-0.912,2.249 -2.174,4.255 -3.784,6.018c-1.611,1.762 -3.435,3.328 -5.471,4.695c-2.036,1.368 -4.209,2.538 -6.519,3.511c-2.31,0.972 -4.559,1.793 -6.747,2.461c-0.243,-0.06 -0.486,-0.06 -0.73,0c-0.243,0.061 -0.303,-0.091 -0.182,-0.456c-0.486,0.426 -1.018,0.699 -1.596,0.821c-0.577,0.122 -1.2,0.167 -1.869,0.137c-0.668,-0.031 -1.352,-0.076 -2.051,-0.137c-0.699,-0.061 -1.353,-0.03 -1.96,0.091c-0.426,-0.425 -0.806,-0.836 -1.14,-1.231c-0.334,-0.395 -0.593,-0.896 -0.775,-1.504c-0.304,-0 -0.441,-0.152 -0.41,-0.456c0.03,-0.304 -0.076,-0.456 -0.32,-0.456c0.365,-0.608 0.532,-0.957 0.502,-1.048c-0.03,-0.092 -0.122,-0.168 -0.274,-0.228c-0.152,-0.061 -0.288,-0.137 -0.41,-0.228c-0.121,-0.091 -0.152,-0.228 -0.091,-0.411c0.243,-0.486 0.334,-1.048 0.273,-1.686c-0.06,-0.639 -0.121,-1.292 -0.182,-1.961c-0.061,-0.668 -0.015,-1.307 0.137,-1.914c0.152,-0.608 0.593,-1.094 1.322,-1.459c2.067,0.243 4.027,0.167 5.881,-0.228c1.854,-0.395 3.601,-0.957 5.243,-1.687c1.641,-0.729 3.206,-1.52 4.695,-2.371c1.489,-0.85 2.963,-1.61 4.422,-2.279c0.183,-0.547 0.441,-1.003 0.775,-1.368c0.335,-0.364 0.684,-0.699 1.049,-1.003c0.364,-0.303 0.699,-0.638 1.003,-1.002c0.304,-0.365 0.516,-0.821 0.638,-1.368c0.061,-0.426 -0.046,-0.684 -0.319,-0.775c-0.274,-0.091 -0.41,-0.319 -0.41,-0.684l-1.003,-0.273c-1.155,-0.669 -2.462,-1.231 -3.921,-1.687c-1.459,-0.456 -2.705,-0.958 -3.738,-1.505c-0.669,0.365 -1.292,0.456 -1.869,0.274c-0.578,-0.183 -1.322,-0.365 -2.234,-0.547c-2.067,-0.122 -4.058,-0.335 -5.972,-0.638c-1.915,-0.304 -3.754,-0.851 -5.517,-1.642c-0.121,-0.304 -0.273,-0.577 -0.455,-0.82c-0.183,-0.243 -0.517,-0.304 -1.003,-0.183c-0.365,-0.486 -0.73,-0.957 -1.094,-1.413c-0.365,-0.456 -0.7,-0.957 -1.003,-1.504c0.121,-0.73 0.212,-1.353 0.273,-1.869c0.061,-0.517 -0.121,-1.019 -0.547,-1.505c0.243,-0.79 0.426,-1.428 0.547,-1.914c0.122,-0.487 0.122,-1.125 0,-1.915Z" style="fill:#fff;fill-rule:nonzero;"/>
        <path d="M112.619,36.81c2.553,0.304 4.832,0.82 6.838,1.55c2.006,0.729 3.708,1.702 5.106,2.917c0.973,1.52 1.9,3.161 2.781,4.924c0.882,1.763 1.55,3.601 2.006,5.516c0.456,1.915 0.669,3.875 0.638,5.881c-0.03,2.006 -0.471,4.042 -1.322,6.109c-1.763,2.188 -3.905,3.966 -6.428,5.334c-2.522,1.367 -5.242,2.477 -8.16,3.328c-2.918,0.851 -5.942,1.58 -9.072,2.188c-3.131,0.608 -6.185,1.216 -9.163,1.823c0.06,1.399 0.076,2.873 0.045,4.423c-0.03,1.55 -0.182,3.1 -0.456,4.65c-0.273,1.55 -0.684,3.054 -1.231,4.513c-0.547,1.459 -1.276,2.796 -2.188,4.012c-1.033,-0 -2.097,0.136 -3.191,0.41c-1.094,0.273 -2.067,0.501 -2.918,0.684c-0.425,-0.243 -0.805,-0.471 -1.139,-0.684c-0.335,-0.213 -0.806,-0.35 -1.414,-0.41c0.122,-0.608 -0.03,-1.231 -0.456,-1.87c-0.425,-0.638 -0.851,-1.291 -1.276,-1.96c-0.425,-0.668 -0.714,-1.307 -0.866,-1.915c-0.152,-0.607 0.137,-1.185 0.866,-1.732c-0.425,-0.425 -0.638,-0.972 -0.638,-1.641c0.425,-0.729 0.805,-1.732 1.139,-3.009c0.335,-1.276 0.608,-2.538 0.821,-3.784c0.213,-1.246 0.258,-2.386 0.137,-3.419c-0.122,-1.033 -0.73,-1.793 -1.824,-2.279c0.061,-0.122 0.183,-0.183 0.365,-0.183c0.182,0 0.365,-0.03 0.547,-0.091c-0.486,-0.365 -0.775,-0.881 -0.866,-1.55c-0.091,-0.668 -0.319,-1.246 -0.684,-1.732c0.122,-0.304 0.213,-0.578 0.274,-0.821c0.06,-0.243 0.273,-0.334 0.638,-0.273c-0.183,-1.094 -0.167,-2.128 0.045,-3.1c0.213,-0.973 0.532,-1.9 0.958,-2.781c0.425,-0.882 0.942,-1.748 1.55,-2.599c0.608,-0.851 1.185,-1.702 1.732,-2.553c0.426,-0.061 0.684,0 0.775,0.183c0.091,0.182 0.289,0.152 0.593,-0.092c0.79,-0.607 1.337,-1.246 1.641,-1.914c0.304,-0.669 0.456,-1.429 0.456,-2.28c0.425,-1.276 0.942,-2.568 1.55,-3.875c0.608,-1.307 1.276,-2.507 2.006,-3.601c0.729,-1.094 1.535,-2.067 2.416,-2.918c0.881,-0.851 1.808,-1.489 2.781,-1.915c0.729,-0.607 1.641,-1.17 2.735,-1.686c1.094,-0.517 2.28,-0.912 3.556,-1.186c1.277,-0.273 2.568,-0.425 3.875,-0.456c1.307,-0.03 2.507,0.107 3.602,0.411c0.303,0.121 0.471,0.061 0.501,-0.183c0.03,-0.243 0.137,-0.364 0.319,-0.364Zm-3.738,21.791c1.519,-0.669 3.145,-1.2 4.878,-1.596c1.732,-0.395 3.176,-1.139 4.331,-2.233c-0.73,-0.669 -1.793,-1.262 -3.191,-1.778c-1.399,-0.517 -2.918,-0.836 -4.559,-0.958c-1.641,-0.121 -3.298,0.015 -4.969,0.411c-1.672,0.395 -3.116,1.139 -4.331,2.233c-0.365,1.095 -0.669,1.961 -0.912,2.599c-0.243,0.638 -0.578,1.413 -1.003,2.325c0.122,0.304 0.319,0.532 0.593,0.684c0.273,0.152 0.471,0.38 0.592,0.684c1.398,-0.73 2.812,-1.14 4.24,-1.231c1.428,-0.091 2.872,-0.471 4.331,-1.14Z" style="fill:#fff;fill-rule:nonzero;"/>
        <path d="M144.688,83.857c-0.669,2.431 -1.261,4.27 -1.778,5.516c-0.517,1.246 -1.292,2.538 -2.325,3.875c-0.79,-0.121 -1.337,-0.03 -1.641,0.274c-0.304,0.304 -0.639,0.577 -1.003,0.82c-0.547,0.122 -0.942,0.122 -1.186,0c-0.243,-0.121 -0.455,-0.258 -0.638,-0.41c-0.182,-0.152 -0.41,-0.304 -0.684,-0.456c-0.273,-0.152 -0.683,-0.228 -1.23,-0.228c-0.122,-0.486 -0.259,-0.942 -0.411,-1.367c-0.152,-0.426 -0.562,-0.578 -1.231,-0.456c0.122,-0.487 0.152,-0.897 0.091,-1.231c-0.06,-0.335 -0.136,-0.638 -0.227,-0.912c-0.092,-0.274 -0.168,-0.547 -0.228,-0.821c-0.061,-0.273 -0.031,-0.623 0.091,-1.048c-0.304,-0 -0.547,-0.213 -0.73,-0.638c-0.182,-0.426 -0.395,-0.851 -0.638,-1.277c0.182,-1.094 0.365,-2.127 0.547,-3.1c0.183,-0.972 0.41,-1.884 0.684,-2.735c0.274,-0.851 0.501,-1.702 0.684,-2.553c0.182,-0.851 0.091,-1.732 -0.274,-2.644c0.243,0.182 0.426,0.137 0.547,-0.137c0.122,-0.274 0.213,-0.638 0.274,-1.094c0.061,-0.456 0.091,-0.912 0.091,-1.368c0,-0.456 -0.03,-0.836 -0.091,-1.139c0.608,-1.581 1.109,-3.207 1.504,-4.878c0.395,-1.672 0.76,-3.328 1.094,-4.97c0.335,-1.641 0.684,-3.252 1.049,-4.832c0.365,-1.58 0.851,-3.039 1.459,-4.376c0.668,-0.122 1.413,-0.046 2.234,0.228c0.82,0.273 1.322,0.623 1.504,1.048c1.58,-1.216 2.979,-2.69 4.194,-4.422c1.216,-1.732 2.462,-3.419 3.738,-5.06c1.277,-1.642 2.69,-3.1 4.24,-4.377c1.55,-1.276 3.51,-2.036 5.881,-2.279c1.216,0.912 2.568,1.838 4.057,2.781c1.49,0.942 2.721,2.173 3.693,3.692c0.486,0.243 0.897,0.502 1.231,0.775c0.334,0.274 0.745,0.563 1.231,0.866l-0,1.095c0.729,0.668 1.322,1.443 1.778,2.325c0.456,0.881 0.866,1.823 1.231,2.826c0.364,1.003 0.729,2.006 1.094,3.009c0.365,1.003 0.79,1.96 1.276,2.872c-0.121,0.304 -0.182,0.562 -0.182,0.775c-0,0.213 0.046,0.441 0.137,0.684c0.091,0.243 0.167,0.486 0.228,0.729c0.06,0.243 0.06,0.578 -0,1.003c-0.183,2.675 -1.049,4.833 -2.599,6.474c-1.55,1.641 -3.419,2.993 -5.607,4.057c-2.188,1.064 -4.529,1.96 -7.021,2.69c-2.492,0.729 -4.741,1.519 -6.747,2.37c0,0.244 0.106,0.365 0.319,0.365c0.213,0 0.289,0.152 0.228,0.456c1.459,0.912 2.614,1.641 3.465,2.188c0.851,0.547 1.656,1.003 2.416,1.368c0.76,0.365 1.58,0.684 2.462,0.957c0.881,0.274 2.112,0.593 3.692,0.958c1.581,0.364 2.812,0.653 3.693,0.866c0.881,0.213 1.687,0.395 2.416,0.547c0.73,0.152 1.474,0.273 2.234,0.365c0.76,0.091 1.839,0.197 3.237,0.319c0.547,0.547 1.018,1.2 1.413,1.96c0.395,0.76 0.654,1.52 0.775,2.279c0.122,0.76 0.152,1.49 0.091,2.189c-0.06,0.699 -0.273,1.261 -0.638,1.686c0.061,0.183 0.198,0.259 0.41,0.228c0.213,-0.03 0.441,-0.015 0.684,0.046c-0.364,0.243 -0.668,0.547 -0.912,0.912c-0.243,0.364 -0.486,0.729 -0.729,1.094c-0.243,0.365 -0.517,0.684 -0.821,0.957c-0.303,0.274 -0.729,0.441 -1.276,0.502c-1.884,0.729 -4.255,0.775 -7.112,0.136c-2.857,-0.638 -6.473,-1.808 -10.85,-3.51c-2.188,-0.851 -3.966,-1.595 -5.334,-2.234c-1.367,-0.638 -2.553,-1.276 -3.556,-1.914c-1.003,-0.639 -1.914,-1.322 -2.735,-2.052c-0.821,-0.729 -1.808,-1.611 -2.963,-2.644Zm13.038,-31.274c-0.669,0.973 -1.413,1.854 -2.234,2.644c-0.82,0.791 -1.61,1.596 -2.37,2.417c-0.76,0.82 -1.444,1.732 -2.052,2.735c-0.608,1.003 -1.033,2.173 -1.276,3.51c2.127,-0.243 4.346,-0.836 6.656,-1.778c2.309,-0.942 4.498,-1.838 6.564,-2.689c-0.243,-1.885 -0.896,-3.404 -1.96,-4.559c-1.064,-1.155 -2.173,-1.915 -3.328,-2.28Z" style="fill:#fff;fill-rule:nonzero;"/>
        <path d="M235.292,41.46c0.122,1.337 0.334,2.492 0.638,3.464c0.304,0.973 0.639,1.915 1.003,2.827c0.304,0.851 0.593,1.687 0.866,2.507c0.274,0.821 0.472,1.809 0.593,2.964c-0.486,1.58 -0.836,3.039 -1.048,4.376c-0.213,1.337 -0.441,2.735 -0.684,4.194c-0.973,2.128 -1.915,4.012 -2.827,5.653c-0.912,1.641 -1.641,3.07 -2.188,4.285c-0.304,0.304 -0.562,0.654 -0.775,1.049l-1.14,2.051c-0.182,0.365 -0.334,0.608 -0.456,0.73l-1.823,-0.638l-0.365,2.279l-1.276,0.365l-0.912,1.094c-1.155,2.006 -2.371,3.693 -3.647,5.06c-1.277,1.368 -2.72,2.584 -4.331,3.647c-1.611,1.064 -3.434,2.052 -5.471,2.964c-2.036,0.911 -4.331,1.914 -6.884,3.008c-1.033,-0.121 -1.929,-0.197 -2.689,-0.228c-0.76,-0.03 -1.474,-0.076 -2.143,-0.136c-1.155,-0 -2.583,-0.092 -4.285,-0.274c-0.183,-0.486 -0.456,-0.82 -0.821,-1.003c-0.364,-0.182 -0.699,-0.273 -1.003,-0.273c-1.033,-0.487 -1.808,-1.201 -2.325,-2.143c-0.516,-0.942 -1.018,-1.96 -1.504,-3.054c-0.304,-0.669 -0.608,-1.292 -0.912,-1.87c-0.304,-0.577 -0.638,-1.17 -1.003,-1.777l1.55,-0.456l-2.006,-2.189c-0.121,-0.182 -0.273,-0.349 -0.456,-0.501c-0.182,-0.152 -0.334,-0.319 -0.456,-0.502l-0.091,-1.458c-0.182,-4.195 -0.258,-8.039 -0.228,-11.534c0.031,-3.495 0.502,-6.611 1.414,-9.346l-0,-1.003c0.182,-1.337 0.364,-2.446 0.547,-3.328c0.182,-0.881 0.334,-1.717 0.456,-2.507c0.182,-1.337 0.455,-2.584 0.82,-3.738c0.851,-0.183 1.489,-0.532 1.915,-1.049c0.425,-0.517 0.79,-0.988 1.094,-1.413c0.851,-0.061 1.428,0.061 1.732,0.365c0.304,0.303 0.608,0.79 0.912,1.458c0.304,0.547 0.684,1.155 1.14,1.824c0.456,0.669 1.14,1.185 2.051,1.55c0.122,0.486 0.289,0.988 0.502,1.504c0.213,0.517 0.44,1.079 0.684,1.687c0.486,1.033 0.927,2.112 1.322,3.237c0.395,1.124 0.623,2.203 0.683,3.237c-0.607,1.155 -1.078,2.492 -1.413,4.011c-0.334,1.52 -0.547,3.055 -0.638,4.605c-0.091,1.55 -0.061,3.039 0.091,4.468c0.152,1.428 0.41,2.628 0.775,3.601l0.547,1.185l1.55,-0.182c1.824,-0.486 3.48,-1.018 4.969,-1.596c1.49,-0.577 2.872,-1.261 4.149,-2.051c1.276,-0.79 2.492,-1.717 3.647,-2.781c1.155,-1.064 2.371,-2.295 3.647,-3.693c1.277,-1.398 2.386,-2.993 3.328,-4.786c0.942,-1.794 1.732,-3.663 2.371,-5.608c0.638,-1.945 1.124,-3.875 1.458,-5.79c0.335,-1.914 0.563,-3.723 0.684,-5.425c1.034,-0.364 1.55,-1.094 1.55,-2.188l-0.182,-1.003c-0.243,-0.364 -0.243,-0.79 -0,-1.276c0.365,-1.155 1.216,-2.037 2.553,-2.644c0.972,0.607 1.839,1.276 2.598,2.006c0.76,0.729 1.474,1.458 2.143,2.188Z" style="fill:#fff;fill-rule:nonzero;"/>
        <path d="M276.843,93.522c-0.972,0.061 -2.173,0.03 -3.601,-0.091c-1.429,-0.122 -2.751,0.091 -3.966,0.638c-3.222,-0.122 -6.504,-0.517 -9.848,-1.186c-3.343,-0.668 -6.412,-1.489 -9.208,-2.461c-0.608,-0.669 -1.216,-1.292 -1.824,-1.869c-0.608,-0.578 -1.428,-0.988 -2.462,-1.231c-1.459,-1.155 -2.644,-2.568 -3.556,-4.24c-0.911,-1.672 -1.641,-3.45 -2.188,-5.334c-0.547,-1.884 -0.912,-3.814 -1.094,-5.79c-0.182,-1.975 -0.243,-3.875 -0.182,-5.698c0.911,-2.735 2.203,-5.091 3.875,-7.066c1.671,-1.976 3.388,-3.936 5.151,-5.881c0.79,-0.365 1.383,-0.745 1.778,-1.14c0.395,-0.395 0.821,-0.76 1.277,-1.094c0.455,-0.334 0.911,-0.669 1.367,-1.003c0.456,-0.334 0.866,-0.745 1.231,-1.231c1.277,-0.304 2.386,-0.745 3.328,-1.322c0.942,-0.577 1.869,-1.185 2.781,-1.824c0.912,-0.638 1.854,-1.23 2.826,-1.777c0.973,-0.548 2.098,-0.973 3.374,-1.277c0.486,-0.547 1.064,-0.988 1.732,-1.322c0.669,-0.334 1.353,-0.669 2.052,-1.003c0.699,-0.334 1.367,-0.684 2.006,-1.048c0.638,-0.365 1.139,-0.851 1.504,-1.459c0.304,0.486 0.73,0.653 1.277,0.501c0.547,-0.152 1.063,-0.319 1.55,-0.501c0.304,-0.061 0.562,-0 0.775,0.182c0.212,0.182 0.41,0.365 0.592,0.547c0.183,0.182 0.35,0.289 0.502,0.319c0.152,0.031 0.288,-0.106 0.41,-0.41c0.304,-0 0.395,0.152 0.274,0.456c-0.122,0.304 -0.213,0.516 -0.274,0.638c0.486,-0.061 0.897,0.046 1.231,0.319c0.334,0.274 0.866,0.441 1.596,0.502c0.243,0.304 0.303,0.531 0.182,0.683c-0.122,0.152 -0.182,0.411 -0.182,0.775c1.823,0.548 2.978,1.414 3.464,2.599c0.487,1.185 0.517,2.416 0.091,3.693c-0.425,1.276 -1.185,2.461 -2.279,3.556c-1.094,1.094 -2.279,1.823 -3.556,2.188c-2.918,0.79 -5.668,1.656 -8.251,2.598c-2.584,0.943 -4.696,2.325 -6.337,4.149c-1.459,0.425 -2.751,0.988 -3.875,1.687c-1.125,0.699 -2.188,1.489 -3.191,2.37c-1.003,0.882 -1.946,1.793 -2.827,2.736c-0.881,0.942 -1.808,1.869 -2.781,2.78c0.061,0.851 -0.076,1.505 -0.41,1.961c-0.334,0.456 -0.654,0.927 -0.957,1.413c0.121,0.912 0.334,1.717 0.638,2.416c0.304,0.699 0.638,1.383 1.003,2.052c4.012,1.215 8.282,1.975 12.81,2.279c4.529,0.304 9.072,0.486 13.631,0.547c0.426,0.608 0.927,1.17 1.504,1.687c0.578,0.517 1.11,1.064 1.596,1.641c0.486,0.578 0.881,1.216 1.185,1.915c0.304,0.699 0.365,1.565 0.183,2.598c-0.851,0.912 -1.793,1.748 -2.827,2.508c-1.033,0.76 -2.066,1.535 -3.1,2.325Z" style="fill:#fff;fill-rule:nonzero;"/>
        <path d="M339.639,42.007c0.06,0.425 0.076,0.744 0.045,0.957c-0.03,0.213 -0.061,0.41 -0.091,0.593c-0.03,0.182 -0.046,0.38 -0.046,0.592c0,0.213 0.061,0.532 0.183,0.958c-1.277,2.066 -2.751,3.48 -4.422,4.24c-1.672,0.759 -3.48,1.306 -5.425,1.641c-1.946,0.334 -3.936,0.684 -5.972,1.048c-2.037,0.365 -4.058,1.155 -6.064,2.371c-0.79,-0.304 -1.504,-0.304 -2.142,-0c-0.639,0.304 -1.566,0.395 -2.781,0.273c-0.365,0.365 -0.821,0.623 -1.368,0.775c-0.547,0.152 -1.094,0.32 -1.641,0.502c0.243,0.547 0.349,1.109 0.319,1.687c-0.03,0.577 0.046,1.048 0.228,1.413c2.127,0.182 4.483,0.152 7.066,-0.091c2.583,-0.243 5.121,-0.395 7.613,-0.456c0.061,0.304 0.031,0.501 -0.091,0.592c-0.121,0.092 -0.152,0.259 -0.091,0.502c0.426,0.304 0.851,0.684 1.277,1.14c0.425,0.456 0.851,0.896 1.276,1.322c0.425,0.425 0.866,0.775 1.322,1.048c0.456,0.274 0.988,0.38 1.596,0.319c0.243,0.487 0.41,1.019 0.501,1.596c0.091,0.577 0.015,1.17 -0.228,1.778c-0.972,0.669 -1.945,1.352 -2.917,2.051c-0.973,0.699 -1.991,1.322 -3.055,1.87c-1.064,0.547 -2.188,0.987 -3.373,1.322c-1.186,0.334 -2.508,0.471 -3.967,0.41l-0.683,-0c-0.152,-0 -0.35,-0.091 -0.593,-0.274c-0.486,0.304 -1.17,0.395 -2.052,0.274c-0.881,-0.122 -1.565,-0.031 -2.051,0.273c-0.669,-0.304 -1.474,-0.44 -2.416,-0.41c-0.942,0.031 -1.778,-0.076 -2.508,-0.319c-0.972,1.276 -1.854,2.644 -2.644,4.103c-0.79,1.459 -1.489,3.009 -2.097,4.65c2.067,0.304 3.784,0.425 5.152,0.365c1.367,-0.061 2.659,-0.167 3.875,-0.319c1.215,-0.152 2.461,-0.304 3.738,-0.456c1.276,-0.152 2.887,-0.198 4.832,-0.137c1.216,-0.669 2.66,-1.109 4.331,-1.322c1.672,-0.213 3.207,-0.562 4.605,-1.049c0.486,0.183 0.911,0.502 1.276,0.958c0.365,0.456 0.714,0.881 1.049,1.276c0.334,0.395 0.683,0.745 1.048,1.049c0.365,0.304 0.821,0.425 1.368,0.364c0.243,0.244 0.41,0.532 0.501,0.867c0.092,0.334 0.167,0.653 0.228,0.957c0.061,0.304 0.167,0.562 0.319,0.775c0.152,0.213 0.411,0.289 0.775,0.228c-0.911,2.006 -1.96,3.541 -3.145,4.604c-1.186,1.064 -2.538,1.869 -4.058,2.416c-1.519,0.548 -3.206,0.973 -5.06,1.277c-1.854,0.304 -3.905,0.669 -6.154,1.094c-0.547,0.122 -1.003,0.106 -1.368,-0.046c-0.365,-0.151 -0.79,-0.227 -1.276,-0.227c-1.399,0.303 -3.07,0.577 -5.015,0.82c-1.945,0.243 -3.921,0.334 -5.927,0.274c-2.006,-0.061 -3.92,-0.319 -5.744,-0.775c-1.823,-0.456 -3.313,-1.262 -4.467,-2.417c-0.487,-0.425 -0.806,-0.926 -0.958,-1.504c-0.152,-0.577 -0.562,-1.018 -1.231,-1.322c-0.061,-0.79 -0.182,-1.672 -0.364,-2.644c-0.183,-0.973 -0.365,-1.991 -0.548,-3.055c-0.182,-1.063 -0.319,-2.112 -0.41,-3.145c-0.091,-1.033 -0.045,-1.976 0.137,-2.827c0.182,-0.911 0.562,-1.732 1.14,-2.461c0.577,-0.73 0.775,-1.52 0.592,-2.371c0.304,-0.061 0.487,-0.228 0.547,-0.501c0.061,-0.274 0.304,-0.38 0.73,-0.32c0.365,-1.094 0.76,-2.127 1.185,-3.1c0.426,-0.972 0.866,-1.914 1.322,-2.826c0.456,-0.912 0.912,-1.839 1.368,-2.781c0.456,-0.942 0.896,-1.991 1.322,-3.146c-0.851,-0.79 -1.474,-1.656 -1.869,-2.598c-0.395,-0.942 -0.684,-1.884 -0.866,-2.827c-0.183,-0.942 -0.335,-1.914 -0.456,-2.917c-0.122,-1.003 -0.335,-2.021 -0.639,-3.055c0.608,-0.911 1.353,-1.656 2.234,-2.234c0.882,-0.577 1.839,-1.048 2.872,-1.413c1.034,-0.364 2.158,-0.668 3.374,-0.912c1.216,-0.243 2.492,-0.516 3.829,-0.82c2.432,-0.79 4.605,-1.398 6.519,-1.824c1.915,-0.425 3.8,-0.775 5.653,-1.048c1.854,-0.274 3.784,-0.532 5.79,-0.775c2.006,-0.243 4.285,-0.608 6.838,-1.094c0.547,0.547 1.064,0.82 1.55,0.82c0.244,-0.547 0.532,-0.714 0.867,-0.501c0.334,0.213 0.471,0.045 0.41,-0.502c0.608,1.034 1.383,1.9 2.325,2.599c0.942,0.699 1.991,1.292 3.146,1.778Z" style="fill:#fff;fill-rule:nonzero;"/>
    </g>
</svg>
