<?xml version="1.0" encoding="UTF-8" standalone="no"?>
<!DOCTYPE svg PUBLIC "-//W3C//DTD SVG 1.1//EN" "http://www.w3.org/Graphics/SVG/1.1/DTD/svg11.dtd">
<svg width="100%" height="100%" viewBox="0 0 600 133" version="1.1" xmlns="http://www.w3.org/2000/svg" xmlns:xlink="http://www.w3.org/1999/xlink" xml:space="preserve" xmlns:serif="http://www.serif.com/" style="fill-rule:evenodd;clip-rule:evenodd;stroke-linejoin:round;stroke-miterlimit:2;">
    <path d="M600,26.493c0,-14.622 -11.871,-26.493 -26.493,-26.493l-547.014,0c-14.622,0 -26.493,11.871 -26.493,26.493l0,79.479c0,14.622 11.871,26.493 26.493,26.493l547.014,0c14.622,0 26.493,-11.871 26.493,-26.493l0,-79.479Z" style="fill:#282547;"/>
    <g>
        <path d="M388.429,68.508c-0.056,0.277 -0.111,0.514 -0.167,0.708c-0.055,0.194 -0.111,0.375 -0.167,0.542c-0.055,0.166 -0.083,0.375 -0.083,0.625l0,0.958c-1.667,2.945 -3.764,5.417 -6.292,7.417c-2.528,2 -5.306,3.764 -8.334,5.292c-3.027,1.528 -6.18,2.917 -9.458,4.167c-3.278,1.25 -6.473,2.597 -9.584,4.042c-1.333,-0.334 -2.347,-0.889 -3.042,-1.667c-0.694,-0.778 -1.222,-1.681 -1.583,-2.708c-0.361,-1.028 -0.611,-2.167 -0.75,-3.417c-0.139,-1.25 -0.264,-2.542 -0.375,-3.876c0.166,-0.611 0.402,-1.125 0.708,-1.541c0.306,-0.417 0.458,-1.014 0.458,-1.792c0.445,-1.445 0.889,-2.861 1.334,-4.25c0.444,-1.389 0.722,-2.806 0.833,-4.25c0.167,-0.445 0.472,-0.75 0.917,-0.917c0.278,-2.667 0.292,-5.375 0.042,-8.125c-0.251,-2.751 -0.709,-5.32 -1.376,-7.709c0.056,-0.556 0.125,-0.959 0.209,-1.209c0.083,-0.25 0.069,-0.43 -0.042,-0.541c-0.055,-0.445 0.097,-0.667 0.458,-0.667l1.126,0c-0,-0.833 -0.153,-1.667 -0.459,-2.5c-0.305,-0.833 -0.597,-1.778 -0.875,-2.834c0.389,-0.833 0.639,-1.652 0.75,-2.458c0.111,-0.806 0.361,-1.514 0.75,-2.125c3,0.944 5.875,2.083 8.626,3.417c2.75,1.333 5.458,2.305 8.125,2.917c2,1.444 4.056,2.875 6.167,4.291c2.111,1.417 4.028,2.973 5.75,4.667c1.722,1.695 3.167,3.625 4.334,5.792c1.166,2.167 1.833,4.75 2,7.751Zm-19.751,4.583c1.167,-0.444 2.319,-0.917 3.458,-1.417c1.139,-0.5 2.195,-1.069 3.167,-1.708c0.972,-0.639 1.848,-1.375 2.625,-2.208c0.778,-0.834 1.417,-1.834 1.917,-3.001c-0.333,-0.666 -0.778,-1.264 -1.333,-1.791c-0.556,-0.528 -1.111,-1.028 -1.667,-1.5c-0.556,-0.473 -1.097,-0.959 -1.625,-1.459c-0.528,-0.5 -0.959,-1.111 -1.292,-1.833c-0.722,-0.111 -1.361,-0.32 -1.917,-0.625c-0.555,-0.306 -1.097,-0.611 -1.625,-0.917c-0.527,-0.306 -1.083,-0.597 -1.666,-0.875c-0.584,-0.278 -1.264,-0.444 -2.042,-0.5c-1.222,-0.611 -2.32,-1.056 -3.292,-1.333c-0.972,-0.278 -1.708,-0.639 -2.208,-1.084c-0.389,0 -0.695,0.084 -0.917,0.25c0.555,2.111 0.972,4.098 1.25,5.959c0.278,1.861 0.43,3.722 0.458,5.583c0.028,1.862 -0.069,3.764 -0.291,5.709c-0.223,1.945 -0.528,4.056 -0.917,6.334c0.555,-0.056 1.069,-0.181 1.542,-0.375c0.472,-0.195 0.944,-0.403 1.416,-0.625c0.473,-0.223 0.973,-0.431 1.5,-0.625c0.528,-0.195 1.153,-0.32 1.875,-0.375c0.167,-0.334 0.403,-0.612 0.709,-0.834c0.305,-0.222 0.597,-0.472 0.875,-0.75Z" style="fill:#31eaff;fill-rule:nonzero;"/>
        <path d="M440.908,66.007c-0.056,0.667 -0,1.306 0.167,1.917c0.166,0.611 0.375,1.209 0.625,1.792c0.25,0.583 0.486,1.181 0.708,1.792c0.222,0.611 0.389,1.222 0.5,1.833c0.111,0.778 0.111,1.625 -0,2.542c-0.111,0.917 -0.306,1.806 -0.583,2.667c-0.278,0.861 -0.639,1.639 -1.084,2.333c-0.444,0.695 -0.972,1.209 -1.583,1.542c-0.778,1 -1.722,1.778 -2.834,2.333c-1.111,0.556 -2.139,1.223 -3.083,2c-0.611,0.389 -1.292,0.667 -2.042,0.834c-0.75,0.166 -1.514,0.333 -2.292,0.5c-0.611,0.333 -1.333,0.68 -2.166,1.042c-0.834,0.361 -1.695,0.694 -2.584,1c-0.889,0.305 -1.778,0.527 -2.667,0.666c-0.889,0.139 -1.666,0.181 -2.333,0.125c-1.667,0.611 -3.292,1.014 -4.875,1.209c-1.584,0.194 -3.431,0.069 -5.542,-0.375c-2,0.277 -3.848,0.194 -5.542,-0.25c-1.695,-0.445 -3.195,-1.153 -4.5,-2.125c-1.306,-0.973 -2.445,-2.139 -3.417,-3.501c-0.972,-1.361 -1.764,-2.791 -2.375,-4.291c-0.445,-3.167 -0.334,-6.042 0.333,-8.626c0.667,-2.583 1.625,-4.972 2.875,-7.167c1.25,-2.194 2.681,-4.222 4.292,-6.083c1.611,-1.862 3.167,-3.681 4.667,-5.459c0.333,0.111 0.597,0.097 0.792,-0.042c0.194,-0.139 0.375,-0.333 0.541,-0.583c0.167,-0.25 0.348,-0.486 0.542,-0.708c0.194,-0.223 0.431,-0.362 0.708,-0.417c0.389,-0.834 0.959,-1.459 1.709,-1.875c0.75,-0.417 1.347,-1.014 1.792,-1.792c0.5,-0.111 0.916,-0.278 1.25,-0.5c0.333,-0.222 0.652,-0.472 0.958,-0.75c0.306,-0.278 0.625,-0.542 0.958,-0.792c0.334,-0.25 0.723,-0.43 1.167,-0.541l0,-0.917c1,-0.445 1.736,-0.959 2.209,-1.542c0.472,-0.583 1.041,-1.292 1.708,-2.125c0.5,-0.056 0.903,-0.083 1.208,-0.083c0.306,-0 0.764,-0.056 1.375,-0.167c0.445,-0.778 0.848,-1.361 1.209,-1.75c0.361,-0.389 0.903,-0.806 1.625,-1.25c0.667,0.333 1.403,0.555 2.208,0.667c0.806,0.111 1.514,0.472 2.125,1.083c0.056,0.556 0.223,0.986 0.5,1.292c0.278,0.305 0.584,0.583 0.917,0.833c0.333,0.25 0.653,0.514 0.958,0.792c0.306,0.278 0.514,0.666 0.626,1.166c0.222,0.056 0.375,0.028 0.458,-0.083c0.083,-0.111 0.236,-0.139 0.458,-0.083c0.167,0.778 0.361,1.292 0.584,1.542c0.222,0.25 0.444,0.736 0.666,1.458c-0.277,0.556 -0.486,1.125 -0.625,1.708c-0.139,0.584 -0.486,1.014 -1.041,1.292c-0.056,0.389 0.055,0.597 0.333,0.625c0.278,0.028 0.444,0.181 0.5,0.458c0.055,0.5 -0.028,0.862 -0.25,1.084c1.333,2.167 2.528,4.458 3.583,6.875c1.056,2.417 2.251,4.709 3.584,6.875Zm-10.417,7.918c0.222,-0.612 0.514,-1.112 0.875,-1.501c0.361,-0.388 0.569,-0.972 0.625,-1.75c-0.278,-0.444 -0.445,-0.791 -0.5,-1.041c-0.056,-0.25 -0.084,-0.653 -0.084,-1.209c-1.222,-1.722 -2.277,-3.569 -3.166,-5.542c-0.889,-1.972 -1.889,-3.819 -3,-5.542c-0.112,0.223 -0.306,0.445 -0.584,0.667c-0.278,0.222 -0.583,0.167 -0.917,-0.167c-0.111,0.445 -0.305,0.764 -0.583,0.959c-0.278,0.194 -0.583,0.278 -0.917,0.25c-0.333,-0.028 -0.68,-0.111 -1.041,-0.25c-0.361,-0.139 -0.681,-0.32 -0.959,-0.542c-1.611,1.278 -3.222,2.528 -4.833,3.75c-1.611,1.223 -3.056,2.639 -4.334,4.251c-0.222,0.111 -0.361,0.152 -0.416,0.125c-0.056,-0.028 -0.223,0.013 -0.501,0.125c-0.444,1.055 -0.986,2.013 -1.625,2.875c-0.639,0.861 -1.264,1.736 -1.875,2.625c-0.611,0.889 -1.139,1.833 -1.583,2.833c-0.445,1 -0.695,2.167 -0.75,3.5c0.944,0.778 2.056,1.25 3.333,1.417c1.278,0.167 2.598,0.195 3.959,0.083c1.361,-0.111 2.694,-0.291 4,-0.541c1.306,-0.25 2.514,-0.375 3.625,-0.375c2.334,-0.556 4.334,-1.292 6.001,-2.209c1.666,-0.916 3.416,-1.847 5.25,-2.791Z" style="fill:#31eaff;fill-rule:nonzero;"/>
        <path d="M483.22,91.175c-0.889,0.056 -1.986,0.028 -3.292,-0.083c-1.306,-0.111 -2.514,0.083 -3.625,0.583c-2.945,-0.111 -5.945,-0.472 -9.001,-1.083c-3.055,-0.611 -5.861,-1.361 -8.417,-2.25c-0.555,-0.611 -1.111,-1.181 -1.666,-1.709c-0.556,-0.527 -1.306,-0.902 -2.25,-1.125c-1.334,-1.055 -2.417,-2.347 -3.251,-3.875c-0.833,-1.528 -1.5,-3.153 -2,-4.875c-0.5,-1.722 -0.833,-3.486 -1,-5.292c-0.166,-1.806 -0.222,-3.542 -0.166,-5.208c0.833,-2.501 2.014,-4.653 3.541,-6.459c1.528,-1.806 3.098,-3.598 4.709,-5.375c0.722,-0.334 1.264,-0.681 1.625,-1.042c0.361,-0.361 0.75,-0.695 1.167,-1c0.416,-0.306 0.833,-0.611 1.25,-0.917c0.417,-0.305 0.792,-0.68 1.125,-1.125c1.167,-0.278 2.181,-0.68 3.042,-1.208c0.861,-0.528 1.708,-1.084 2.541,-1.667c0.834,-0.583 1.695,-1.125 2.584,-1.625c0.889,-0.5 1.917,-0.889 3.083,-1.167c0.445,-0.5 0.973,-0.903 1.584,-1.208c0.611,-0.306 1.236,-0.611 1.875,-0.917c0.639,-0.305 1.25,-0.625 1.833,-0.958c0.584,-0.334 1.042,-0.778 1.375,-1.334c0.278,0.445 0.667,0.598 1.167,0.459c0.5,-0.139 0.972,-0.292 1.417,-0.459c0.278,-0.055 0.514,0 0.708,0.167c0.195,0.167 0.375,0.333 0.542,0.5c0.167,0.167 0.319,0.264 0.458,0.292c0.139,0.027 0.264,-0.098 0.375,-0.375c0.278,-0 0.361,0.139 0.25,0.416c-0.111,0.278 -0.194,0.473 -0.25,0.584c0.445,-0.056 0.82,0.041 1.125,0.291c0.306,0.25 0.792,0.403 1.459,0.459c0.222,0.278 0.278,0.486 0.166,0.625c-0.111,0.139 -0.166,0.375 -0.166,0.708c1.666,0.5 2.722,1.292 3.167,2.375c0.444,1.084 0.472,2.209 0.083,3.375c-0.389,1.167 -1.084,2.251 -2.084,3.251c-1,1 -2.083,1.666 -3.25,2c-2.667,0.722 -5.181,1.514 -7.542,2.375c-2.361,0.861 -4.292,2.125 -5.792,3.792c-1.333,0.389 -2.514,0.902 -3.541,1.541c-1.028,0.639 -2.001,1.362 -2.917,2.167c-0.917,0.806 -1.778,1.639 -2.584,2.5c-0.805,0.861 -1.653,1.709 -2.542,2.542c0.056,0.778 -0.069,1.375 -0.375,1.792c-0.305,0.416 -0.597,0.847 -0.875,1.291c0.112,0.834 0.306,1.57 0.584,2.209c0.278,0.639 0.583,1.264 0.916,1.875c3.667,1.111 7.57,1.806 11.709,2.083c4.139,0.278 8.292,0.445 12.459,0.5c0.389,0.556 0.848,1.07 1.375,1.542c0.528,0.472 1.014,0.972 1.459,1.5c0.444,0.528 0.805,1.111 1.083,1.75c0.278,0.639 0.333,1.431 0.167,2.375c-0.778,0.834 -1.639,1.598 -2.584,2.292c-0.944,0.695 -1.889,1.403 -2.833,2.125Z" style="fill:#31eaff;fill-rule:nonzero;"/>
        <path d="M495.447,53.507c0.389,-1.167 1.014,-2.167 1.875,-3c0.861,-0.834 1.806,-1.542 2.834,-2.125c1.027,-0.584 2.097,-1.07 3.208,-1.459c1.111,-0.389 2.167,-0.722 3.167,-1c2.222,-0.944 4.597,-1.847 7.125,-2.708c2.528,-0.861 5.112,-1.625 7.751,-2.292c2.639,-0.667 5.347,-1.097 8.125,-1.292c2.778,-0.194 5.695,0.153 8.75,1.042c0.167,0.556 0.417,1.083 0.75,1.583c0.334,0.5 0.681,1 1.042,1.5c0.361,0.5 0.681,0.987 0.959,1.459c0.277,0.472 0.444,0.958 0.5,1.458c0.555,0.5 1,1.042 1.333,1.625c0.333,0.584 0.389,1.348 0.167,2.292c-0.556,0.445 -1.098,0.847 -1.625,1.208c-0.528,0.362 -1.098,0.681 -1.709,0.959c-2.056,-0.5 -4.139,-0.667 -6.25,-0.5c-2.111,0.167 -4,0.305 -5.667,0.417c-0.5,-0.5 -1.097,-0.75 -1.792,-0.75c-0.694,-0 -1.417,0.111 -2.167,0.333c-0.75,0.222 -1.5,0.444 -2.25,0.667c-0.75,0.222 -1.458,0.277 -2.125,0.166c-0.555,0.445 -1.236,0.736 -2.042,0.875c-0.805,0.139 -1.68,0.264 -2.625,0.375c-0.055,0.278 0,0.459 0.167,0.542c0.167,0.083 0.194,0.264 0.083,0.542c0.334,0.389 0.764,0.666 1.292,0.833c0.528,0.167 1.083,0.333 1.667,0.5c0.583,0.167 1.097,0.375 1.542,0.625c0.444,0.25 0.75,0.653 0.916,1.208c0.834,0 1.556,0.195 2.167,0.584c0.611,0.389 1.111,0.861 1.5,1.417c0.389,0.555 0.681,1.152 0.875,1.791c0.195,0.639 0.292,1.209 0.292,1.709c0.166,0.444 0.361,0.639 0.583,0.583c0.222,-0.055 0.472,0.056 0.75,0.333c0.167,0.723 0.584,1.459 1.25,2.209c0.667,0.75 1.195,1.569 1.584,2.458c0.111,1.389 0.194,2.625 0.25,3.709c0.055,1.083 -0.139,2.18 -0.584,3.292c-0.833,2.055 -1.986,3.889 -3.458,5.5c-1.472,1.611 -3.139,3.042 -5,4.292c-1.862,1.25 -3.848,2.319 -5.959,3.208c-2.111,0.889 -4.167,1.639 -6.167,2.25c-0.222,-0.055 -0.444,-0.055 -0.667,0c-0.222,0.056 -0.277,-0.083 -0.166,-0.416c-0.445,0.389 -0.931,0.639 -1.459,0.75c-0.528,0.111 -1.097,0.152 -1.708,0.125c-0.611,-0.028 -1.236,-0.07 -1.875,-0.125c-0.639,-0.056 -1.236,-0.028 -1.792,0.083c-0.389,-0.389 -0.736,-0.764 -1.042,-1.125c-0.305,-0.361 -0.541,-0.819 -0.708,-1.375c-0.278,-0 -0.403,-0.139 -0.375,-0.417c0.028,-0.278 -0.07,-0.416 -0.292,-0.416c0.334,-0.556 0.486,-0.875 0.459,-0.959c-0.028,-0.083 -0.112,-0.153 -0.25,-0.208c-0.139,-0.056 -0.264,-0.125 -0.375,-0.209c-0.112,-0.083 -0.139,-0.208 -0.084,-0.375c0.222,-0.444 0.306,-0.958 0.25,-1.541c-0.055,-0.584 -0.111,-1.181 -0.166,-1.792c-0.056,-0.611 -0.014,-1.195 0.125,-1.75c0.138,-0.556 0.541,-1 1.208,-1.333c1.889,0.222 3.681,0.152 5.375,-0.209c1.695,-0.361 3.292,-0.875 4.792,-1.542c1.5,-0.666 2.931,-1.389 4.292,-2.166c1.361,-0.778 2.708,-1.473 4.042,-2.084c0.166,-0.5 0.403,-0.916 0.708,-1.25c0.306,-0.333 0.625,-0.639 0.959,-0.917c0.333,-0.277 0.638,-0.583 0.916,-0.916c0.278,-0.334 0.473,-0.75 0.584,-1.25c0.055,-0.389 -0.042,-0.625 -0.292,-0.709c-0.25,-0.083 -0.375,-0.291 -0.375,-0.625l-0.917,-0.25c-1.055,-0.611 -2.25,-1.125 -3.583,-1.541c-1.334,-0.417 -2.473,-0.875 -3.417,-1.376c-0.611,0.334 -1.181,0.417 -1.709,0.251c-0.527,-0.167 -1.208,-0.334 -2.041,-0.501c-1.889,-0.111 -3.709,-0.305 -5.459,-0.583c-1.75,-0.278 -3.431,-0.778 -5.042,-1.5c-0.111,-0.278 -0.25,-0.528 -0.416,-0.75c-0.167,-0.222 -0.473,-0.278 -0.917,-0.167c-0.334,-0.444 -0.667,-0.875 -1,-1.291c-0.334,-0.417 -0.639,-0.875 -0.917,-1.375c0.111,-0.667 0.195,-1.237 0.25,-1.709c0.056,-0.472 -0.111,-0.93 -0.5,-1.375c0.222,-0.722 0.389,-1.306 0.5,-1.75c0.111,-0.444 0.111,-1.028 0,-1.75Z" style="fill:#31eaff;fill-rule:nonzero;"/>
        <path d="M57.334,53.507c0.389,-1.167 1.014,-2.167 1.875,-3c0.861,-0.834 1.806,-1.542 2.834,-2.125c1.027,-0.584 2.097,-1.07 3.208,-1.459c1.111,-0.389 2.167,-0.722 3.167,-1c2.222,-0.944 4.597,-1.847 7.125,-2.708c2.528,-0.861 5.112,-1.625 7.751,-2.292c2.639,-0.667 5.347,-1.097 8.125,-1.292c2.778,-0.194 5.695,0.153 8.75,1.042c0.167,0.556 0.417,1.083 0.75,1.583c0.334,0.5 0.681,1 1.042,1.5c0.361,0.5 0.681,0.987 0.958,1.459c0.278,0.472 0.445,0.958 0.501,1.458c0.555,0.5 1,1.042 1.333,1.625c0.333,0.584 0.389,1.348 0.167,2.292c-0.556,0.445 -1.098,0.847 -1.625,1.208c-0.528,0.362 -1.098,0.681 -1.709,0.959c-2.056,-0.5 -4.139,-0.667 -6.25,-0.5c-2.111,0.167 -4,0.305 -5.667,0.417c-0.5,-0.5 -1.097,-0.75 -1.792,-0.75c-0.694,-0 -1.417,0.111 -2.167,0.333c-0.75,0.222 -1.5,0.444 -2.25,0.667c-0.75,0.222 -1.458,0.277 -2.125,0.166c-0.555,0.445 -1.236,0.736 -2.042,0.875c-0.805,0.139 -1.68,0.264 -2.625,0.375c-0.055,0.278 0,0.459 0.167,0.542c0.167,0.083 0.194,0.264 0.083,0.542c0.334,0.389 0.764,0.666 1.292,0.833c0.528,0.167 1.083,0.333 1.667,0.5c0.583,0.167 1.097,0.375 1.542,0.625c0.444,0.25 0.75,0.653 0.916,1.208c0.834,0 1.556,0.195 2.167,0.584c0.611,0.389 1.111,0.861 1.5,1.417c0.389,0.555 0.681,1.152 0.875,1.791c0.195,0.639 0.292,1.209 0.292,1.709c0.166,0.444 0.361,0.639 0.583,0.583c0.222,-0.055 0.472,0.056 0.75,0.333c0.167,0.723 0.584,1.459 1.25,2.209c0.667,0.75 1.195,1.569 1.584,2.458c0.111,1.389 0.194,2.625 0.25,3.709c0.055,1.083 -0.139,2.18 -0.584,3.292c-0.833,2.055 -1.986,3.889 -3.458,5.5c-1.473,1.611 -3.139,3.042 -5,4.292c-1.862,1.25 -3.848,2.319 -5.959,3.208c-2.111,0.889 -4.167,1.639 -6.167,2.25c-0.222,-0.055 -0.444,-0.055 -0.667,0c-0.222,0.056 -0.277,-0.083 -0.166,-0.416c-0.445,0.389 -0.931,0.639 -1.459,0.75c-0.528,0.111 -1.097,0.152 -1.708,0.125c-0.611,-0.028 -1.236,-0.07 -1.875,-0.125c-0.639,-0.056 -1.236,-0.028 -1.792,0.083c-0.389,-0.389 -0.736,-0.764 -1.042,-1.125c-0.305,-0.361 -0.541,-0.819 -0.708,-1.375c-0.278,-0 -0.403,-0.139 -0.375,-0.417c0.028,-0.278 -0.07,-0.416 -0.292,-0.416c0.334,-0.556 0.486,-0.875 0.459,-0.959c-0.028,-0.083 -0.112,-0.153 -0.25,-0.208c-0.139,-0.056 -0.264,-0.125 -0.375,-0.209c-0.112,-0.083 -0.139,-0.208 -0.084,-0.375c0.222,-0.444 0.306,-0.958 0.25,-1.541c-0.055,-0.584 -0.111,-1.181 -0.166,-1.792c-0.056,-0.611 -0.014,-1.195 0.125,-1.75c0.138,-0.556 0.541,-1 1.208,-1.333c1.889,0.222 3.681,0.152 5.375,-0.209c1.695,-0.361 3.292,-0.875 4.792,-1.542c1.5,-0.666 2.931,-1.389 4.292,-2.166c1.361,-0.778 2.708,-1.473 4.042,-2.084c0.166,-0.5 0.403,-0.916 0.708,-1.25c0.306,-0.333 0.625,-0.639 0.959,-0.917c0.333,-0.277 0.638,-0.583 0.916,-0.916c0.278,-0.334 0.472,-0.75 0.584,-1.25c0.055,-0.389 -0.042,-0.625 -0.292,-0.709c-0.25,-0.083 -0.375,-0.291 -0.375,-0.625l-0.917,-0.25c-1.055,-0.611 -2.25,-1.125 -3.583,-1.541c-1.334,-0.417 -2.473,-0.875 -3.417,-1.376c-0.611,0.334 -1.181,0.417 -1.709,0.251c-0.527,-0.167 -1.208,-0.334 -2.041,-0.501c-1.889,-0.111 -3.709,-0.305 -5.459,-0.583c-1.75,-0.278 -3.431,-0.778 -5.042,-1.5c-0.111,-0.278 -0.25,-0.528 -0.416,-0.75c-0.167,-0.222 -0.473,-0.278 -0.917,-0.167c-0.334,-0.444 -0.667,-0.875 -1,-1.291c-0.334,-0.417 -0.639,-0.875 -0.917,-1.375c0.111,-0.667 0.194,-1.237 0.25,-1.709c0.056,-0.472 -0.111,-0.93 -0.5,-1.375c0.222,-0.722 0.389,-1.306 0.5,-1.75c0.111,-0.444 0.111,-1.028 0,-1.75Z" style="fill:#fff;fill-rule:nonzero;"/>
        <path d="M128.731,39.34c2.333,0.277 4.417,0.75 6.25,1.416c1.833,0.667 3.389,1.556 4.667,2.667c0.889,1.389 1.736,2.889 2.542,4.5c0.805,1.612 1.416,3.292 1.833,5.042c0.417,1.75 0.611,3.542 0.583,5.375c-0.027,1.834 -0.43,3.695 -1.208,5.584c-1.611,2 -3.57,3.625 -5.875,4.875c-2.306,1.25 -4.792,2.264 -7.459,3.042c-2.667,0.778 -5.431,1.445 -8.292,2c-2.861,0.556 -5.653,1.111 -8.375,1.667c0.055,1.278 0.069,2.625 0.041,4.042c-0.027,1.417 -0.166,2.833 -0.416,4.25c-0.25,1.417 -0.625,2.792 -1.125,4.125c-0.5,1.334 -1.167,2.556 -2.001,3.667c-0.944,0 -1.916,0.125 -2.916,0.375c-1,0.25 -1.889,0.458 -2.667,0.625c-0.389,-0.222 -0.736,-0.431 -1.042,-0.625c-0.305,-0.194 -0.736,-0.319 -1.292,-0.375c0.112,-0.556 -0.027,-1.125 -0.416,-1.708c-0.389,-0.584 -0.778,-1.181 -1.167,-1.792c-0.389,-0.611 -0.653,-1.195 -0.792,-1.75c-0.139,-0.556 0.125,-1.084 0.792,-1.584c-0.389,-0.389 -0.583,-0.889 -0.583,-1.5c0.389,-0.666 0.736,-1.583 1.041,-2.75c0.306,-1.167 0.556,-2.319 0.75,-3.458c0.195,-1.139 0.237,-2.181 0.125,-3.125c-0.111,-0.945 -0.666,-1.639 -1.666,-2.084c0.055,-0.111 0.166,-0.167 0.333,-0.167c0.167,0 0.333,-0.027 0.5,-0.083c-0.444,-0.333 -0.708,-0.806 -0.792,-1.417c-0.083,-0.611 -0.291,-1.139 -0.625,-1.583c0.111,-0.278 0.195,-0.528 0.25,-0.75c0.056,-0.222 0.25,-0.306 0.584,-0.25c-0.167,-1 -0.153,-1.945 0.041,-2.834c0.195,-0.888 0.487,-1.736 0.875,-2.541c0.389,-0.806 0.862,-1.598 1.417,-2.375c0.556,-0.778 1.084,-1.556 1.584,-2.334c0.388,-0.055 0.625,0 0.708,0.167c0.083,0.166 0.264,0.139 0.542,-0.084c0.722,-0.555 1.222,-1.139 1.5,-1.75c0.277,-0.611 0.416,-1.305 0.416,-2.083c0.389,-1.167 0.862,-2.347 1.417,-3.542c0.556,-1.194 1.167,-2.292 1.834,-3.292c0.666,-1 1.402,-1.889 2.208,-2.667c0.806,-0.777 1.653,-1.361 2.542,-1.75c0.666,-0.555 1.5,-1.069 2.5,-1.541c1,-0.473 2.083,-0.834 3.25,-1.084c1.167,-0.25 2.347,-0.389 3.542,-0.416c1.194,-0.028 2.292,0.097 3.292,0.375c0.277,0.111 0.43,0.055 0.458,-0.167c0.028,-0.222 0.125,-0.333 0.292,-0.333Zm-3.417,19.917c1.389,-0.611 2.875,-1.097 4.458,-1.458c1.584,-0.361 2.903,-1.042 3.959,-2.042c-0.667,-0.611 -1.639,-1.153 -2.917,-1.625c-1.278,-0.472 -2.667,-0.764 -4.167,-0.875c-1.5,-0.111 -3.014,0.014 -4.542,0.375c-1.527,0.361 -2.847,1.042 -3.958,2.042c-0.333,1 -0.611,1.791 -0.834,2.375c-0.222,0.583 -0.527,1.292 -0.916,2.125c0.111,0.278 0.291,0.486 0.541,0.625c0.25,0.139 0.431,0.347 0.542,0.625c1.278,-0.667 2.57,-1.042 3.875,-1.125c1.306,-0.083 2.625,-0.431 3.959,-1.042Z" style="fill:#fff;fill-rule:nonzero;"/>
        <path d="M158.042,82.342c-0.611,2.222 -1.153,3.903 -1.625,5.041c-0.472,1.139 -1.181,2.32 -2.125,3.542c-0.722,-0.111 -1.222,-0.027 -1.5,0.25c-0.278,0.278 -0.584,0.528 -0.917,0.75c-0.5,0.111 -0.861,0.111 -1.083,0c-0.223,-0.111 -0.417,-0.236 -0.584,-0.375c-0.166,-0.139 -0.375,-0.277 -0.625,-0.416c-0.25,-0.139 -0.625,-0.209 -1.125,-0.209c-0.111,-0.444 -0.236,-0.861 -0.375,-1.25c-0.139,-0.389 -0.514,-0.528 -1.125,-0.416c0.111,-0.445 0.139,-0.82 0.084,-1.125c-0.056,-0.306 -0.125,-0.584 -0.209,-0.834c-0.083,-0.25 -0.153,-0.5 -0.208,-0.75c-0.056,-0.25 -0.028,-0.569 0.083,-0.958c-0.278,-0 -0.5,-0.195 -0.667,-0.584c-0.166,-0.389 -0.361,-0.777 -0.583,-1.166c0.167,-1 0.333,-1.945 0.5,-2.834c0.167,-0.889 0.375,-1.722 0.625,-2.5c0.25,-0.778 0.459,-1.556 0.625,-2.333c0.167,-0.778 0.084,-1.584 -0.25,-2.417c0.222,0.167 0.389,0.125 0.5,-0.125c0.111,-0.25 0.195,-0.584 0.25,-1c0.056,-0.417 0.084,-0.834 0.084,-1.25c-0,-0.417 -0.028,-0.764 -0.084,-1.042c0.556,-1.444 1.014,-2.931 1.375,-4.459c0.361,-1.527 0.695,-3.041 1,-4.541c0.306,-1.5 0.625,-2.973 0.959,-4.417c0.333,-1.445 0.778,-2.778 1.333,-4c0.611,-0.112 1.292,-0.042 2.042,0.208c0.75,0.25 1.208,0.569 1.375,0.958c1.444,-1.111 2.722,-2.458 3.833,-4.042c1.112,-1.583 2.251,-3.125 3.417,-4.625c1.167,-1.5 2.459,-2.833 3.875,-4c1.417,-1.167 3.209,-1.861 5.376,-2.083c1.111,0.833 2.347,1.68 3.708,2.541c1.361,0.862 2.486,1.987 3.375,3.376c0.445,0.222 0.82,0.458 1.125,0.708c0.306,0.25 0.681,0.514 1.125,0.792l0,1c0.667,0.611 1.209,1.319 1.626,2.125c0.416,0.805 0.791,1.666 1.125,2.583c0.333,0.917 0.666,1.834 1,2.75c0.333,0.917 0.722,1.792 1.166,2.625c-0.111,0.278 -0.166,0.514 -0.166,0.709c-0,0.194 0.041,0.403 0.125,0.625c0.083,0.222 0.152,0.444 0.208,0.667c0.056,0.222 0.056,0.527 0,0.916c-0.167,2.445 -0.958,4.417 -2.375,5.917c-1.417,1.5 -3.125,2.736 -5.125,3.709c-2,0.972 -4.139,1.791 -6.417,2.458c-2.278,0.667 -4.334,1.389 -6.167,2.167c-0,0.222 0.097,0.333 0.291,0.333c0.195,0 0.264,0.139 0.209,0.417c1.333,0.833 2.389,1.5 3.167,2c0.777,0.5 1.514,0.917 2.208,1.25c0.695,0.333 1.445,0.625 2.25,0.875c0.806,0.25 1.931,0.542 3.375,0.875c1.445,0.334 2.57,0.597 3.375,0.792c0.806,0.194 1.542,0.361 2.209,0.5c0.667,0.139 1.347,0.25 2.042,0.333c0.694,0.084 1.68,0.181 2.958,0.292c0.5,0.5 0.931,1.097 1.292,1.792c0.361,0.694 0.597,1.389 0.708,2.083c0.111,0.695 0.139,1.361 0.084,2c-0.056,0.639 -0.25,1.153 -0.584,1.542c0.056,0.167 0.181,0.236 0.375,0.208c0.195,-0.027 0.403,-0.014 0.625,0.042c-0.333,0.222 -0.611,0.5 -0.833,0.833c-0.222,0.334 -0.445,0.667 -0.667,1c-0.222,0.334 -0.472,0.625 -0.75,0.875c-0.278,0.25 -0.667,0.403 -1.167,0.459c-1.722,0.666 -3.889,0.708 -6.5,0.125c-2.611,-0.584 -5.917,-1.653 -9.917,-3.209c-2,-0.778 -3.625,-1.458 -4.875,-2.041c-1.25,-0.584 -2.334,-1.167 -3.25,-1.751c-0.917,-0.583 -1.75,-1.208 -2.5,-1.875c-0.751,-0.666 -1.653,-1.472 -2.709,-2.416Zm11.917,-28.585c-0.611,0.889 -1.291,1.694 -2.041,2.417c-0.751,0.722 -1.473,1.458 -2.167,2.208c-0.695,0.75 -1.32,1.584 -1.875,2.5c-0.556,0.917 -0.945,1.986 -1.167,3.209c1.944,-0.222 3.972,-0.764 6.084,-1.625c2.111,-0.861 4.111,-1.681 6,-2.459c-0.222,-1.722 -0.82,-3.111 -1.792,-4.167c-0.972,-1.055 -1.986,-1.75 -3.042,-2.083Z" style="fill:#fff;fill-rule:nonzero;"/>
        <path d="M240.856,43.59c0.111,1.222 0.305,2.278 0.583,3.167c0.278,0.889 0.584,1.75 0.917,2.583c0.278,0.778 0.542,1.542 0.792,2.292c0.25,0.75 0.43,1.653 0.541,2.708c-0.444,1.445 -0.764,2.778 -0.958,4c-0.194,1.223 -0.403,2.501 -0.625,3.834c-0.889,1.945 -1.75,3.667 -2.584,5.167c-0.833,1.5 -1.5,2.806 -2,3.917c-0.277,0.278 -0.514,0.597 -0.708,0.958l-1.042,1.875c-0.166,0.334 -0.305,0.556 -0.416,0.667l-1.667,-0.583l-0.333,2.083l-1.167,0.333l-0.834,1c-1.055,1.834 -2.166,3.376 -3.333,4.626c-1.167,1.25 -2.486,2.361 -3.959,3.333c-1.472,0.972 -3.139,1.875 -5,2.709c-1.861,0.833 -3.958,1.75 -6.292,2.75c-0.944,-0.111 -1.764,-0.181 -2.458,-0.209c-0.695,-0.027 -1.347,-0.069 -1.959,-0.125c-1.055,0 -2.361,-0.083 -3.916,-0.25c-0.167,-0.444 -0.417,-0.75 -0.751,-0.916c-0.333,-0.167 -0.638,-0.25 -0.916,-0.25c-0.945,-0.445 -1.653,-1.098 -2.125,-1.959c-0.473,-0.861 -0.931,-1.792 -1.375,-2.792c-0.278,-0.611 -0.556,-1.18 -0.834,-1.708c-0.278,-0.528 -0.583,-1.07 -0.916,-1.625l1.416,-0.417l-1.833,-2c-0.111,-0.167 -0.25,-0.319 -0.417,-0.458c-0.167,-0.139 -0.305,-0.292 -0.417,-0.459l-0.083,-1.333c-0.167,-3.834 -0.236,-7.348 -0.208,-10.542c0.028,-3.195 0.458,-6.042 1.292,-8.542l-0,-0.917c0.166,-1.222 0.333,-2.236 0.5,-3.042c0.166,-0.805 0.305,-1.569 0.416,-2.292c0.167,-1.222 0.417,-2.361 0.75,-3.416c0.778,-0.167 1.361,-0.486 1.75,-0.959c0.389,-0.472 0.723,-0.903 1,-1.291c0.778,-0.056 1.306,0.055 1.584,0.333c0.278,0.278 0.555,0.722 0.833,1.333c0.278,0.5 0.625,1.056 1.042,1.667c0.417,0.611 1.042,1.083 1.875,1.417c0.111,0.444 0.264,0.903 0.458,1.375c0.195,0.472 0.403,0.986 0.625,1.542c0.445,0.944 0.848,1.93 1.209,2.958c0.361,1.028 0.569,2.014 0.625,2.959c-0.556,1.055 -0.986,2.277 -1.292,3.666c-0.306,1.389 -0.5,2.792 -0.583,4.209c-0.084,1.417 -0.056,2.778 0.083,4.083c0.139,1.306 0.375,2.403 0.708,3.292l0.5,1.084l1.417,-0.167c1.667,-0.445 3.181,-0.931 4.542,-1.458c1.361,-0.528 2.625,-1.153 3.792,-1.876c1.167,-0.722 2.278,-1.569 3.333,-2.541c1.056,-0.973 2.167,-2.098 3.334,-3.376c1.167,-1.277 2.181,-2.736 3.042,-4.375c0.861,-1.639 1.583,-3.347 2.166,-5.125c0.584,-1.778 1.028,-3.542 1.334,-5.292c0.305,-1.75 0.514,-3.403 0.625,-4.958c0.944,-0.334 1.417,-1 1.417,-2.001l-0.167,-0.916c-0.222,-0.334 -0.222,-0.722 -0,-1.167c0.333,-1.056 1.111,-1.861 2.333,-2.417c0.889,0.556 1.681,1.167 2.375,1.834c0.695,0.666 1.348,1.333 1.959,2Z" style="fill:#fff;fill-rule:nonzero;"/>
        <path d="M278.834,91.175c-0.889,0.056 -1.986,0.028 -3.292,-0.083c-1.305,-0.111 -2.514,0.083 -3.625,0.583c-2.944,-0.111 -5.944,-0.472 -9,-1.083c-3.056,-0.611 -5.861,-1.361 -8.417,-2.25c-0.556,-0.611 -1.111,-1.181 -1.667,-1.709c-0.555,-0.527 -1.306,-0.902 -2.25,-1.125c-1.333,-1.055 -2.417,-2.347 -3.25,-3.875c-0.834,-1.528 -1.5,-3.153 -2,-4.875c-0.5,-1.722 -0.834,-3.486 -1,-5.292c-0.167,-1.806 -0.223,-3.542 -0.167,-5.208c0.833,-2.501 2.014,-4.653 3.542,-6.459c1.528,-1.806 3.097,-3.598 4.708,-5.375c0.723,-0.334 1.264,-0.681 1.625,-1.042c0.362,-0.361 0.751,-0.695 1.167,-1c0.417,-0.306 0.834,-0.611 1.25,-0.917c0.417,-0.305 0.792,-0.68 1.125,-1.125c1.167,-0.278 2.181,-0.68 3.042,-1.208c0.861,-0.528 1.709,-1.084 2.542,-1.667c0.833,-0.583 1.694,-1.125 2.583,-1.625c0.889,-0.5 1.917,-0.889 3.084,-1.167c0.444,-0.5 0.972,-0.903 1.583,-1.208c0.611,-0.306 1.236,-0.611 1.875,-0.917c0.639,-0.305 1.25,-0.625 1.834,-0.958c0.583,-0.334 1.041,-0.778 1.375,-1.334c0.278,0.445 0.667,0.598 1.167,0.459c0.5,-0.139 0.972,-0.292 1.416,-0.459c0.278,-0.055 0.514,0 0.709,0.167c0.194,0.167 0.375,0.333 0.541,0.5c0.167,0.167 0.32,0.264 0.459,0.292c0.139,0.027 0.264,-0.098 0.375,-0.375c0.277,-0 0.361,0.139 0.25,0.416c-0.111,0.278 -0.195,0.473 -0.25,0.584c0.444,-0.056 0.819,0.041 1.125,0.291c0.305,0.25 0.791,0.403 1.458,0.459c0.222,0.278 0.278,0.486 0.167,0.625c-0.111,0.139 -0.167,0.375 -0.167,0.708c1.667,0.5 2.722,1.292 3.167,2.375c0.444,1.084 0.472,2.209 0.083,3.375c-0.389,1.167 -1.083,2.251 -2.083,3.251c-1,1 -2.084,1.666 -3.25,2c-2.667,0.722 -5.181,1.514 -7.542,2.375c-2.362,0.861 -4.292,2.125 -5.792,3.792c-1.334,0.389 -2.514,0.902 -3.542,1.541c-1.028,0.639 -2,1.362 -2.917,2.167c-0.917,0.806 -1.778,1.639 -2.583,2.5c-0.806,0.861 -1.653,1.709 -2.542,2.542c0.055,0.778 -0.07,1.375 -0.375,1.792c-0.306,0.416 -0.597,0.847 -0.875,1.291c0.111,0.834 0.305,1.57 0.583,2.209c0.278,0.639 0.584,1.264 0.917,1.875c3.667,1.111 7.57,1.806 11.709,2.083c4.139,0.278 8.292,0.445 12.459,0.5c0.389,0.556 0.847,1.07 1.375,1.542c0.528,0.472 1.014,0.972 1.458,1.5c0.445,0.528 0.806,1.111 1.084,1.75c0.277,0.639 0.333,1.431 0.166,2.375c-0.778,0.834 -1.639,1.598 -2.583,2.292c-0.945,0.695 -1.889,1.403 -2.834,2.125Z" style="fill:#fff;fill-rule:nonzero;"/>
        <path d="M336.23,44.09c0.056,0.389 0.07,0.68 0.042,0.875c-0.028,0.194 -0.056,0.375 -0.083,0.542c-0.028,0.166 -0.042,0.347 -0.042,0.541c-0,0.195 0.056,0.486 0.167,0.875c-1.167,1.889 -2.514,3.181 -4.042,3.875c-1.528,0.695 -3.181,1.195 -4.959,1.501c-1.778,0.305 -3.597,0.625 -5.458,0.958c-1.862,0.333 -3.709,1.056 -5.542,2.167c-0.723,-0.278 -1.375,-0.278 -1.959,-0c-0.583,0.277 -1.43,0.361 -2.542,0.25c-0.333,0.333 -0.75,0.569 -1.25,0.708c-0.5,0.139 -1,0.292 -1.5,0.458c0.223,0.5 0.32,1.014 0.292,1.542c-0.028,0.528 0.042,0.959 0.208,1.292c1.945,0.167 4.098,0.139 6.459,-0.083c2.361,-0.223 4.681,-0.362 6.959,-0.417c0.055,0.278 0.027,0.458 -0.084,0.542c-0.111,0.083 -0.139,0.236 -0.083,0.458c0.389,0.278 0.778,0.625 1.167,1.042c0.389,0.416 0.778,0.819 1.166,1.208c0.389,0.389 0.792,0.708 1.209,0.958c0.417,0.25 0.903,0.348 1.458,0.292c0.222,0.445 0.375,0.931 0.459,1.458c0.083,0.528 0.013,1.07 -0.209,1.626c-0.889,0.611 -1.778,1.236 -2.667,1.875c-0.888,0.639 -1.819,1.208 -2.791,1.708c-0.973,0.5 -2,0.903 -3.084,1.208c-1.083,0.306 -2.292,0.431 -3.625,0.375l-0.625,0c-0.139,0 -0.319,-0.083 -0.542,-0.25c-0.444,0.278 -1.069,0.362 -1.875,0.25c-0.805,-0.111 -1.43,-0.027 -1.875,0.25c-0.611,-0.277 -1.347,-0.402 -2.208,-0.375c-0.861,0.028 -1.625,-0.069 -2.292,-0.291c-0.889,1.166 -1.695,2.417 -2.417,3.75c-0.722,1.333 -1.361,2.75 -1.917,4.25c1.889,0.278 3.459,0.389 4.709,0.333c1.25,-0.055 2.431,-0.152 3.542,-0.291c1.111,-0.139 2.25,-0.278 3.417,-0.417c1.166,-0.139 2.639,-0.18 4.416,-0.125c1.112,-0.611 2.431,-1.014 3.959,-1.208c1.528,-0.195 2.931,-0.514 4.208,-0.959c0.445,0.167 0.834,0.459 1.167,0.875c0.334,0.417 0.653,0.806 0.959,1.167c0.305,0.361 0.625,0.681 0.958,0.958c0.333,0.278 0.75,0.389 1.25,0.334c0.222,0.222 0.375,0.486 0.458,0.792c0.084,0.305 0.153,0.597 0.209,0.875c0.055,0.277 0.153,0.513 0.291,0.708c0.139,0.194 0.375,0.264 0.709,0.208c-0.834,1.834 -1.792,3.237 -2.875,4.209c-1.084,0.972 -2.32,1.708 -3.709,2.208c-1.389,0.5 -2.931,0.889 -4.625,1.167c-1.695,0.278 -3.57,0.611 -5.625,1c-0.5,0.111 -0.917,0.097 -1.25,-0.042c-0.334,-0.139 -0.723,-0.208 -1.167,-0.208c-1.278,0.278 -2.806,0.528 -4.584,0.75c-1.778,0.222 -3.583,0.306 -5.417,0.25c-1.833,-0.056 -3.583,-0.292 -5.25,-0.708c-1.667,-0.417 -3.028,-1.153 -4.083,-2.209c-0.445,-0.389 -0.736,-0.847 -0.875,-1.375c-0.139,-0.528 -0.514,-0.93 -1.125,-1.208c-0.056,-0.722 -0.167,-1.528 -0.334,-2.417c-0.166,-0.889 -0.333,-1.82 -0.5,-2.792c-0.166,-0.972 -0.291,-1.93 -0.375,-2.875c-0.083,-0.944 -0.041,-1.806 0.125,-2.583c0.167,-0.834 0.514,-1.584 1.042,-2.25c0.528,-0.667 0.708,-1.389 0.542,-2.167c0.277,-0.056 0.444,-0.209 0.5,-0.459c0.055,-0.25 0.277,-0.347 0.666,-0.291c0.334,-1 0.695,-1.945 1.084,-2.834c0.389,-0.889 0.791,-1.75 1.208,-2.583c0.417,-0.834 0.833,-1.681 1.25,-2.542c0.417,-0.861 0.82,-1.82 1.209,-2.875c-0.778,-0.722 -1.348,-1.514 -1.709,-2.375c-0.361,-0.861 -0.625,-1.723 -0.792,-2.584c-0.166,-0.861 -0.305,-1.75 -0.416,-2.666c-0.111,-0.917 -0.306,-1.848 -0.584,-2.792c0.556,-0.834 1.237,-1.514 2.042,-2.042c0.806,-0.528 1.681,-0.958 2.625,-1.292c0.945,-0.333 1.973,-0.611 3.084,-0.833c1.111,-0.222 2.278,-0.472 3.5,-0.75c2.222,-0.722 4.208,-1.278 5.958,-1.667c1.751,-0.389 3.473,-0.708 5.167,-0.958c1.695,-0.25 3.459,-0.486 5.292,-0.709c1.834,-0.222 3.917,-0.555 6.251,-1c0.5,0.5 0.972,0.75 1.416,0.75c0.223,-0.5 0.486,-0.652 0.792,-0.458c0.306,0.194 0.431,0.042 0.375,-0.458c0.556,0.944 1.264,1.736 2.125,2.375c0.861,0.639 1.82,1.18 2.875,1.625Z" style="fill:#fff;fill-rule:nonzero;"/>
    </g>
</svg>
