<?xml version="1.0" encoding="UTF-8" standalone="no"?>
<!DOCTYPE svg PUBLIC "-//W3C//DTD SVG 1.1//EN" "http://www.w3.org/Graphics/SVG/1.1/DTD/svg11.dtd">
<svg width="100%" height="100%" viewBox="0 0 510 133" version="1.1" xmlns="http://www.w3.org/2000/svg" xmlns:xlink="http://www.w3.org/1999/xlink" xml:space="preserve" xmlns:serif="http://www.serif.com/" style="fill-rule:evenodd;clip-rule:evenodd;stroke-linejoin:round;stroke-miterlimit:2;">
    <path d="M510,26.493c-0,-14.622 -11.871,-26.493 -26.493,-26.493l-457.014,0c-14.622,0 -26.493,11.871 -26.493,26.493l0,79.479c0,14.622 11.871,26.493 26.493,26.493l457.014,0c14.622,0 26.493,-11.871 26.493,-26.493l-0,-79.479Z" style="fill:#131127;"/>
    <g>
        <path d="M308.34,69.439c-0.061,0.304 -0.122,0.562 -0.183,0.775c-0.06,0.213 -0.121,0.41 -0.182,0.592c-0.061,0.183 -0.091,0.411 -0.091,0.684l-0,1.049c-1.824,3.221 -4.118,5.926 -6.884,8.115c-2.766,2.188 -5.805,4.118 -9.118,5.789c-3.312,1.672 -6.762,3.191 -10.348,4.559c-3.587,1.368 -7.082,2.842 -10.486,4.422c-1.458,-0.365 -2.568,-0.972 -3.328,-1.823c-0.759,-0.851 -1.337,-1.839 -1.732,-2.964c-0.395,-1.124 -0.669,-2.37 -0.821,-3.738c-0.151,-1.368 -0.288,-2.781 -0.41,-4.24c0.183,-0.668 0.441,-1.23 0.775,-1.686c0.335,-0.456 0.502,-1.11 0.502,-1.961c0.486,-1.58 0.972,-3.13 1.459,-4.65c0.486,-1.519 0.79,-3.069 0.911,-4.65c0.183,-0.486 0.517,-0.82 1.003,-1.003c0.304,-2.917 0.319,-5.881 0.046,-8.889c-0.274,-3.009 -0.775,-5.821 -1.505,-8.434c0.061,-0.608 0.137,-1.049 0.228,-1.322c0.092,-0.274 0.076,-0.471 -0.045,-0.593c-0.061,-0.486 0.106,-0.729 0.501,-0.729l1.231,-0c0,-0.912 -0.167,-1.824 -0.501,-2.736c-0.335,-0.911 -0.654,-1.945 -0.958,-3.1c0.426,-0.911 0.699,-1.808 0.821,-2.689c0.121,-0.882 0.395,-1.657 0.82,-2.325c3.283,1.033 6.428,2.279 9.437,3.738c3.009,1.459 5.972,2.522 8.89,3.191c2.188,1.58 4.437,3.146 6.747,4.696c2.31,1.55 4.407,3.252 6.291,5.106c1.885,1.853 3.465,3.966 4.741,6.336c1.277,2.371 2.006,5.197 2.189,8.48Zm-21.609,5.014c1.276,-0.486 2.538,-1.002 3.784,-1.55c1.246,-0.547 2.401,-1.17 3.464,-1.869c1.064,-0.699 2.021,-1.504 2.872,-2.416c0.851,-0.912 1.55,-2.006 2.098,-3.282c-0.365,-0.73 -0.851,-1.383 -1.459,-1.961c-0.608,-0.577 -1.216,-1.124 -1.824,-1.641c-0.608,-0.516 -1.2,-1.048 -1.778,-1.595c-0.577,-0.547 -1.048,-1.216 -1.413,-2.006c-0.79,-0.122 -1.489,-0.35 -2.097,-0.684c-0.608,-0.334 -1.201,-0.669 -1.778,-1.003c-0.578,-0.334 -1.185,-0.653 -1.824,-0.957c-0.638,-0.304 -1.382,-0.487 -2.233,-0.547c-1.338,-0.669 -2.538,-1.155 -3.602,-1.459c-1.064,-0.304 -1.869,-0.699 -2.416,-1.185c-0.426,-0 -0.76,0.091 -1.003,0.273c0.608,2.31 1.064,4.483 1.368,6.519c0.304,2.036 0.471,4.073 0.501,6.109c0.03,2.036 -0.076,4.118 -0.319,6.246c-0.243,2.127 -0.577,4.437 -1.003,6.929c0.608,-0.061 1.17,-0.197 1.687,-0.41c0.516,-0.213 1.033,-0.441 1.55,-0.684c0.516,-0.243 1.064,-0.471 1.641,-0.684c0.577,-0.213 1.261,-0.349 2.051,-0.41c0.183,-0.365 0.441,-0.669 0.775,-0.912c0.335,-0.243 0.654,-0.517 0.958,-0.821Z" style="fill:#31eaff;fill-rule:nonzero;"/>
        <path d="M365.756,66.703c-0.061,0.73 -0,1.429 0.182,2.098c0.182,0.668 0.41,1.322 0.684,1.96c0.273,0.638 0.532,1.291 0.775,1.96c0.243,0.669 0.425,1.337 0.547,2.006c0.121,0.851 0.121,1.778 -0,2.781c-0.122,1.003 -0.334,1.975 -0.638,2.918c-0.304,0.942 -0.699,1.793 -1.186,2.553c-0.486,0.759 -1.063,1.322 -1.732,1.686c-0.851,1.094 -1.884,1.945 -3.1,2.553c-1.216,0.608 -2.34,1.337 -3.374,2.188c-0.668,0.426 -1.413,0.73 -2.233,0.912c-0.821,0.183 -1.657,0.365 -2.508,0.547c-0.668,0.365 -1.459,0.745 -2.37,1.14c-0.912,0.395 -1.854,0.76 -2.827,1.094c-0.972,0.334 -1.945,0.578 -2.918,0.73c-0.972,0.152 -1.823,0.197 -2.552,0.136c-1.824,0.669 -3.602,1.11 -5.334,1.322c-1.733,0.213 -3.754,0.076 -6.064,-0.41c-2.188,0.304 -4.209,0.213 -6.063,-0.273c-1.854,-0.487 -3.495,-1.262 -4.923,-2.325c-1.429,-1.064 -2.675,-2.341 -3.739,-3.83c-1.063,-1.489 -1.93,-3.054 -2.598,-4.695c-0.486,-3.465 -0.365,-6.611 0.365,-9.437c0.729,-2.827 1.777,-5.441 3.145,-7.841c1.368,-2.401 2.933,-4.62 4.696,-6.656c1.762,-2.037 3.464,-4.027 5.106,-5.972c0.364,0.121 0.653,0.106 0.866,-0.046c0.213,-0.152 0.41,-0.365 0.592,-0.638c0.183,-0.274 0.38,-0.532 0.593,-0.775c0.213,-0.243 0.471,-0.395 0.775,-0.456c0.426,-0.912 1.049,-1.596 1.869,-2.052c0.821,-0.456 1.474,-1.109 1.961,-1.96c0.547,-0.122 1.002,-0.304 1.367,-0.547c0.365,-0.243 0.714,-0.517 1.049,-0.821c0.334,-0.304 0.684,-0.592 1.048,-0.866c0.365,-0.273 0.79,-0.471 1.277,-0.592l-0,-1.003c1.094,-0.487 1.899,-1.049 2.416,-1.687c0.517,-0.638 1.14,-1.413 1.869,-2.325c0.547,-0.061 0.988,-0.091 1.322,-0.091c0.334,-0 0.836,-0.061 1.505,-0.183c0.486,-0.851 0.926,-1.489 1.322,-1.914c0.395,-0.426 0.987,-0.882 1.778,-1.368c0.729,0.365 1.534,0.608 2.416,0.729c0.881,0.122 1.656,0.517 2.325,1.186c0.061,0.607 0.243,1.079 0.547,1.413c0.304,0.334 0.638,0.638 1.003,0.912c0.364,0.273 0.714,0.562 1.048,0.866c0.335,0.304 0.563,0.729 0.684,1.276c0.243,0.061 0.41,0.031 0.502,-0.091c0.091,-0.121 0.258,-0.152 0.501,-0.091c0.182,0.851 0.395,1.413 0.638,1.687c0.243,0.273 0.487,0.805 0.73,1.595c-0.304,0.608 -0.532,1.231 -0.684,1.869c-0.152,0.639 -0.532,1.11 -1.14,1.414c-0.061,0.425 0.061,0.653 0.365,0.683c0.304,0.031 0.486,0.198 0.547,0.502c0.061,0.547 -0.03,0.942 -0.274,1.185c1.459,2.371 2.766,4.878 3.921,7.522c1.155,2.644 2.462,5.152 3.921,7.522Zm-11.397,8.662c0.243,-0.668 0.562,-1.215 0.957,-1.641c0.395,-0.425 0.623,-1.064 0.684,-1.915c-0.304,-0.486 -0.487,-0.866 -0.547,-1.139c-0.061,-0.274 -0.092,-0.715 -0.092,-1.322c-1.337,-1.885 -2.492,-3.906 -3.464,-6.064c-0.973,-2.158 -2.067,-4.179 -3.283,-6.063c-0.121,0.243 -0.334,0.486 -0.638,0.729c-0.304,0.244 -0.638,0.183 -1.003,-0.182c-0.121,0.486 -0.334,0.836 -0.638,1.049c-0.304,0.212 -0.638,0.304 -1.003,0.273c-0.365,-0.03 -0.745,-0.121 -1.14,-0.273c-0.395,-0.152 -0.744,-0.35 -1.048,-0.593c-1.763,1.398 -3.526,2.766 -5.289,4.103c-1.762,1.337 -3.343,2.887 -4.741,4.65c-0.243,0.122 -0.395,0.167 -0.456,0.137c-0.06,-0.031 -0.243,0.015 -0.547,0.137c-0.486,1.154 -1.079,2.203 -1.778,3.145c-0.699,0.942 -1.382,1.9 -2.051,2.872c-0.669,0.973 -1.246,2.006 -1.732,3.1c-0.487,1.094 -0.76,2.371 -0.821,3.83c1.033,0.851 2.249,1.367 3.647,1.55c1.398,0.182 2.842,0.212 4.331,0.091c1.489,-0.122 2.948,-0.319 4.376,-0.593c1.429,-0.273 2.751,-0.41 3.967,-0.41c2.553,-0.608 4.741,-1.413 6.564,-2.416c1.824,-1.003 3.739,-2.021 5.745,-3.055Z" style="fill:#31eaff;fill-rule:nonzero;"/>
        <path d="M412.048,94.239c-0.973,0.061 -2.173,0.03 -3.602,-0.091c-1.428,-0.122 -2.75,0.091 -3.966,0.638c-3.221,-0.122 -6.504,-0.517 -9.847,-1.185c-3.343,-0.669 -6.413,-1.49 -9.209,-2.462c-0.608,-0.669 -1.215,-1.292 -1.823,-1.869c-0.608,-0.578 -1.429,-0.988 -2.462,-1.231c-1.459,-1.155 -2.644,-2.568 -3.556,-4.24c-0.912,-1.671 -1.641,-3.449 -2.188,-5.334c-0.547,-1.884 -0.912,-3.814 -1.094,-5.789c-0.183,-1.976 -0.243,-3.875 -0.183,-5.699c0.912,-2.735 2.204,-5.091 3.875,-7.066c1.672,-1.976 3.389,-3.936 5.152,-5.881c0.79,-0.365 1.383,-0.745 1.778,-1.14c0.395,-0.395 0.82,-0.76 1.276,-1.094c0.456,-0.334 0.912,-0.669 1.368,-1.003c0.456,-0.334 0.866,-0.745 1.231,-1.231c1.276,-0.304 2.386,-0.744 3.328,-1.322c0.942,-0.577 1.869,-1.185 2.781,-1.823c0.911,-0.639 1.854,-1.231 2.826,-1.778c0.973,-0.547 2.097,-0.973 3.374,-1.277c0.486,-0.547 1.063,-0.988 1.732,-1.322c0.669,-0.334 1.353,-0.669 2.052,-1.003c0.699,-0.334 1.367,-0.684 2.005,-1.048c0.639,-0.365 1.14,-0.851 1.505,-1.459c0.304,0.486 0.729,0.653 1.276,0.501c0.547,-0.152 1.064,-0.319 1.55,-0.501c0.304,-0.061 0.563,-0 0.775,0.182c0.213,0.183 0.411,0.365 0.593,0.547c0.182,0.183 0.349,0.289 0.501,0.319c0.152,0.031 0.289,-0.106 0.411,-0.41c0.304,0 0.395,0.152 0.273,0.456c-0.121,0.304 -0.212,0.517 -0.273,0.638c0.486,-0.061 0.896,0.046 1.231,0.319c0.334,0.274 0.866,0.441 1.595,0.502c0.243,0.304 0.304,0.532 0.183,0.684c-0.122,0.152 -0.183,0.41 -0.183,0.775c1.824,0.547 2.979,1.413 3.465,2.598c0.486,1.185 0.517,2.416 0.091,3.693c-0.425,1.276 -1.185,2.462 -2.279,3.556c-1.094,1.094 -2.28,1.823 -3.556,2.188c-2.918,0.79 -5.668,1.656 -8.252,2.598c-2.583,0.943 -4.695,2.325 -6.336,4.149c-1.459,0.426 -2.751,0.988 -3.876,1.687c-1.124,0.699 -2.188,1.489 -3.191,2.37c-1.003,0.882 -1.945,1.794 -2.826,2.736c-0.882,0.942 -1.809,1.869 -2.781,2.781c0.061,0.851 -0.076,1.504 -0.41,1.96c-0.335,0.456 -0.654,0.927 -0.958,1.413c0.122,0.912 0.335,1.717 0.639,2.416c0.303,0.699 0.638,1.383 1.002,2.052c4.012,1.215 8.282,1.975 12.811,2.279c4.528,0.304 9.072,0.486 13.631,0.547c0.425,0.608 0.927,1.17 1.504,1.687c0.578,0.517 1.109,1.064 1.596,1.641c0.486,0.578 0.881,1.216 1.185,1.915c0.304,0.699 0.365,1.565 0.182,2.598c-0.851,0.912 -1.793,1.748 -2.826,2.508c-1.033,0.76 -2.067,1.535 -3.1,2.325Z" style="fill:#31eaff;fill-rule:nonzero;"/>
        <path d="M425.425,53.027c0.426,-1.277 1.11,-2.371 2.052,-3.282c0.942,-0.912 1.975,-1.687 3.1,-2.325c1.124,-0.639 2.294,-1.171 3.51,-1.596c1.216,-0.426 2.371,-0.79 3.465,-1.094c2.431,-1.034 5.03,-2.021 7.796,-2.963c2.765,-0.943 5.592,-1.778 8.479,-2.508c2.887,-0.729 5.85,-1.2 8.89,-1.413c3.039,-0.213 6.23,0.167 9.573,1.14c0.183,0.608 0.456,1.185 0.821,1.732c0.365,0.547 0.744,1.094 1.14,1.641c0.395,0.547 0.744,1.079 1.048,1.596c0.304,0.516 0.486,1.048 0.547,1.595c0.608,0.547 1.094,1.14 1.459,1.778c0.365,0.639 0.426,1.474 0.182,2.508c-0.607,0.486 -1.2,0.927 -1.778,1.322c-0.577,0.395 -1.2,0.744 -1.869,1.048c-2.249,-0.547 -4.528,-0.729 -6.838,-0.547c-2.31,0.183 -4.376,0.335 -6.2,0.456c-0.547,-0.547 -1.2,-0.82 -1.96,-0.82c-0.76,-0 -1.55,0.121 -2.371,0.364c-0.82,0.243 -1.641,0.487 -2.462,0.73c-0.82,0.243 -1.595,0.304 -2.325,0.182c-0.608,0.486 -1.352,0.805 -2.234,0.957c-0.881,0.152 -1.838,0.289 -2.872,0.411c-0.06,0.304 0,0.501 0.183,0.592c0.182,0.092 0.213,0.289 0.091,0.593c0.365,0.425 0.836,0.729 1.413,0.912c0.578,0.182 1.185,0.364 1.824,0.547c0.638,0.182 1.2,0.41 1.686,0.684c0.487,0.273 0.821,0.714 1.003,1.322c0.912,-0 1.702,0.212 2.371,0.638c0.669,0.425 1.216,0.942 1.641,1.55c0.426,0.608 0.745,1.261 0.958,1.96c0.212,0.699 0.319,1.322 0.319,1.869c0.182,0.487 0.395,0.699 0.638,0.639c0.243,-0.061 0.517,0.06 0.821,0.364c0.182,0.791 0.638,1.596 1.367,2.417c0.73,0.82 1.307,1.717 1.733,2.689c0.121,1.52 0.212,2.872 0.273,4.058c0.061,1.185 -0.152,2.385 -0.638,3.601c-0.912,2.249 -2.173,4.255 -3.784,6.018c-1.611,1.763 -3.434,3.328 -5.471,4.695c-2.036,1.368 -4.209,2.538 -6.519,3.511c-2.31,0.972 -4.559,1.793 -6.747,2.461c-0.243,-0.06 -0.486,-0.06 -0.729,0c-0.243,0.061 -0.304,-0.091 -0.183,-0.455c-0.486,0.425 -1.018,0.699 -1.595,0.82c-0.578,0.122 -1.201,0.167 -1.869,0.137c-0.669,-0.03 -1.353,-0.076 -2.052,-0.137c-0.699,-0.061 -1.352,-0.03 -1.96,0.091c-0.426,-0.425 -0.806,-0.835 -1.14,-1.231c-0.334,-0.395 -0.592,-0.896 -0.775,-1.504c-0.304,0 -0.441,-0.152 -0.41,-0.456c0.03,-0.304 -0.076,-0.456 -0.319,-0.456c0.364,-0.608 0.532,-0.957 0.501,-1.048c-0.03,-0.091 -0.121,-0.167 -0.273,-0.228c-0.152,-0.061 -0.289,-0.137 -0.411,-0.228c-0.121,-0.091 -0.152,-0.228 -0.091,-0.41c0.243,-0.487 0.335,-1.049 0.274,-1.687c-0.061,-0.638 -0.122,-1.292 -0.183,-1.961c-0.06,-0.668 -0.015,-1.306 0.137,-1.914c0.152,-0.608 0.593,-1.094 1.322,-1.459c2.067,0.243 4.027,0.167 5.881,-0.228c1.854,-0.395 3.602,-0.957 5.243,-1.687c1.641,-0.729 3.206,-1.519 4.695,-2.37c1.49,-0.851 2.964,-1.611 4.422,-2.28c0.183,-0.547 0.441,-1.003 0.775,-1.367c0.335,-0.365 0.684,-0.699 1.049,-1.003c0.365,-0.304 0.699,-0.639 1.003,-1.003c0.304,-0.365 0.517,-0.821 0.638,-1.368c0.061,-0.425 -0.045,-0.684 -0.319,-0.775c-0.273,-0.091 -0.41,-0.319 -0.41,-0.684l-1.003,-0.273c-1.155,-0.669 -2.462,-1.231 -3.921,-1.687c-1.459,-0.456 -2.705,-0.957 -3.738,-1.505c-0.669,0.365 -1.292,0.456 -1.869,0.274c-0.578,-0.182 -1.322,-0.365 -2.234,-0.547c-2.067,-0.122 -4.057,-0.334 -5.972,-0.638c-1.915,-0.304 -3.753,-0.851 -5.516,-1.642c-0.122,-0.303 -0.274,-0.577 -0.456,-0.82c-0.182,-0.243 -0.517,-0.304 -1.003,-0.182c-0.365,-0.487 -0.729,-0.958 -1.094,-1.414c-0.365,-0.456 -0.699,-0.957 -1.003,-1.504c0.121,-0.73 0.213,-1.353 0.273,-1.869c0.061,-0.517 -0.121,-1.018 -0.547,-1.505c0.243,-0.79 0.426,-1.428 0.547,-1.914c0.122,-0.487 0.122,-1.125 0,-1.915Z" style="fill:#31eaff;fill-rule:nonzero;"/>
        <path d="M70.319,94.424c-0.972,0.061 -2.173,0.031 -3.601,-0.091c-1.429,-0.121 -2.751,0.091 -3.967,0.638c-3.221,-0.121 -6.504,-0.516 -9.847,-1.185c-3.343,-0.668 -6.412,-1.489 -9.209,-2.462c-0.607,-0.668 -1.215,-1.291 -1.823,-1.869c-0.608,-0.577 -1.428,-0.988 -2.462,-1.231c-1.459,-1.155 -2.644,-2.568 -3.556,-4.239c-0.912,-1.672 -1.641,-3.45 -2.188,-5.334c-0.547,-1.885 -0.912,-3.814 -1.094,-5.79c-0.182,-1.975 -0.243,-3.875 -0.182,-5.698c0.911,-2.736 2.203,-5.091 3.875,-7.067c1.671,-1.975 3.388,-3.936 5.151,-5.881c0.79,-0.364 1.383,-0.744 1.778,-1.139c0.395,-0.395 0.821,-0.76 1.276,-1.094c0.456,-0.335 0.912,-0.669 1.368,-1.003c0.456,-0.335 0.866,-0.745 1.231,-1.231c1.276,-0.304 2.386,-0.745 3.328,-1.322c0.942,-0.578 1.869,-1.186 2.781,-1.824c0.912,-0.638 1.854,-1.231 2.826,-1.778c0.973,-0.547 2.097,-0.972 3.374,-1.276c0.486,-0.547 1.064,-0.988 1.732,-1.322c0.669,-0.335 1.353,-0.669 2.052,-1.003c0.699,-0.335 1.367,-0.684 2.006,-1.049c0.638,-0.365 1.139,-0.851 1.504,-1.459c0.304,0.487 0.729,0.654 1.277,0.502c0.547,-0.152 1.063,-0.319 1.55,-0.502c0.303,-0.06 0.562,0 0.775,0.183c0.212,0.182 0.41,0.364 0.592,0.547c0.183,0.182 0.35,0.288 0.502,0.319c0.152,0.03 0.288,-0.107 0.41,-0.41c0.304,-0 0.395,0.152 0.273,0.455c-0.121,0.304 -0.212,0.517 -0.273,0.639c0.486,-0.061 0.897,0.045 1.231,0.319c0.334,0.273 0.866,0.44 1.595,0.501c0.244,0.304 0.304,0.532 0.183,0.684c-0.122,0.152 -0.183,0.41 -0.183,0.775c1.824,0.547 2.979,1.413 3.465,2.599c0.486,1.185 0.517,2.416 0.091,3.692c-0.425,1.277 -1.185,2.462 -2.279,3.556c-1.094,1.094 -2.28,1.824 -3.556,2.188c-2.918,0.791 -5.668,1.657 -8.252,2.599c-2.583,0.942 -4.695,2.325 -6.336,4.149c-1.459,0.425 -2.751,0.987 -3.875,1.686c-1.125,0.699 -2.189,1.49 -3.191,2.371c-1.003,0.881 -1.946,1.793 -2.827,2.735c-0.881,0.942 -1.808,1.869 -2.781,2.781c0.061,0.851 -0.076,1.505 -0.41,1.96c-0.334,0.456 -0.654,0.927 -0.958,1.414c0.122,0.911 0.335,1.717 0.639,2.416c0.304,0.699 0.638,1.383 1.003,2.051c4.011,1.216 8.282,1.976 12.81,2.28c4.528,0.304 9.072,0.486 13.631,0.547c0.425,0.608 0.927,1.17 1.504,1.687c0.578,0.516 1.11,1.063 1.596,1.641c0.486,0.577 0.881,1.215 1.185,1.914c0.304,0.699 0.365,1.566 0.183,2.599c-0.851,0.912 -1.794,1.748 -2.827,2.507c-1.033,0.76 -2.067,1.535 -3.1,2.325Z" style="fill:#fff;fill-rule:nonzero;"/>
        <path d="M136.306,66.889c-0.061,0.729 -0,1.428 0.182,2.097c0.182,0.669 0.41,1.322 0.684,1.96c0.273,0.639 0.532,1.292 0.775,1.961c0.243,0.668 0.425,1.337 0.547,2.006c0.121,0.851 0.121,1.777 -0,2.78c-0.122,1.003 -0.334,1.976 -0.638,2.918c-0.304,0.942 -0.699,1.793 -1.186,2.553c-0.486,0.76 -1.063,1.322 -1.732,1.687c-0.851,1.094 -1.884,1.945 -3.1,2.553c-1.216,0.608 -2.34,1.337 -3.374,2.188c-0.668,0.425 -1.413,0.729 -2.233,0.912c-0.821,0.182 -1.657,0.364 -2.508,0.547c-0.668,0.365 -1.459,0.744 -2.37,1.14c-0.912,0.395 -1.854,0.759 -2.827,1.094c-0.972,0.334 -1.945,0.577 -2.918,0.729c-0.972,0.152 -1.823,0.198 -2.552,0.137c-1.824,0.668 -3.602,1.109 -5.334,1.322c-1.733,0.213 -3.754,0.076 -6.064,-0.41c-2.188,0.304 -4.209,0.212 -6.063,-0.274c-1.854,-0.486 -3.495,-1.261 -4.923,-2.325c-1.429,-1.064 -2.675,-2.34 -3.739,-3.829c-1.063,-1.49 -1.93,-3.055 -2.598,-4.696c-0.486,-3.465 -0.365,-6.61 0.365,-9.437c0.729,-2.826 1.777,-5.44 3.145,-7.841c1.368,-2.401 2.933,-4.62 4.696,-6.656c1.762,-2.036 3.464,-4.027 5.106,-5.972c0.364,0.122 0.653,0.106 0.866,-0.046c0.213,-0.152 0.41,-0.364 0.592,-0.638c0.183,-0.273 0.38,-0.532 0.593,-0.775c0.213,-0.243 0.471,-0.395 0.775,-0.456c0.426,-0.911 1.049,-1.595 1.869,-2.051c0.821,-0.456 1.474,-1.109 1.961,-1.96c0.547,-0.122 1.002,-0.304 1.367,-0.548c0.365,-0.243 0.714,-0.516 1.049,-0.82c0.334,-0.304 0.684,-0.593 1.048,-0.866c0.365,-0.274 0.79,-0.471 1.277,-0.593l-0,-1.003c1.094,-0.486 1.899,-1.048 2.416,-1.687c0.517,-0.638 1.14,-1.413 1.869,-2.325c0.547,-0.06 0.988,-0.091 1.322,-0.091c0.334,0 0.836,-0.061 1.505,-0.182c0.486,-0.851 0.927,-1.489 1.322,-1.915c0.395,-0.425 0.987,-0.881 1.778,-1.368c0.729,0.365 1.534,0.608 2.416,0.73c0.881,0.121 1.656,0.517 2.325,1.185c0.061,0.608 0.243,1.079 0.547,1.413c0.304,0.335 0.638,0.639 1.003,0.912c0.364,0.274 0.714,0.562 1.048,0.866c0.335,0.304 0.563,0.73 0.684,1.277c0.243,0.061 0.41,0.03 0.502,-0.091c0.091,-0.122 0.258,-0.152 0.501,-0.092c0.182,0.851 0.395,1.414 0.638,1.687c0.243,0.274 0.487,0.806 0.73,1.596c-0.304,0.608 -0.532,1.231 -0.684,1.869c-0.152,0.638 -0.532,1.109 -1.14,1.413c-0.061,0.426 0.061,0.654 0.365,0.684c0.304,0.03 0.486,0.198 0.547,0.501c0.061,0.548 -0.03,0.943 -0.274,1.186c1.459,2.37 2.766,4.878 3.921,7.522c1.155,2.644 2.462,5.151 3.921,7.522Zm-11.397,8.662c0.243,-0.669 0.562,-1.216 0.957,-1.641c0.395,-0.426 0.623,-1.064 0.684,-1.915c-0.304,-0.486 -0.487,-0.866 -0.547,-1.14c-0.061,-0.273 -0.092,-0.714 -0.092,-1.322c-1.337,-1.884 -2.492,-3.905 -3.464,-6.063c-0.973,-2.158 -2.067,-4.179 -3.283,-6.063c-0.121,0.243 -0.334,0.486 -0.638,0.729c-0.304,0.243 -0.638,0.182 -1.003,-0.182c-0.121,0.486 -0.334,0.835 -0.638,1.048c-0.304,0.213 -0.638,0.304 -1.003,0.274c-0.365,-0.031 -0.745,-0.122 -1.14,-0.274c-0.395,-0.152 -0.744,-0.349 -1.048,-0.592c-1.763,1.398 -3.526,2.765 -5.288,4.102c-1.763,1.338 -3.344,2.888 -4.742,4.651c-0.243,0.121 -0.395,0.167 -0.456,0.136c-0.06,-0.03 -0.243,0.015 -0.547,0.137c-0.486,1.155 -1.079,2.203 -1.778,3.146c-0.699,0.942 -1.382,1.899 -2.051,2.872c-0.669,0.972 -1.246,2.006 -1.732,3.1c-0.487,1.094 -0.76,2.37 -0.821,3.829c1.033,0.851 2.249,1.368 3.647,1.55c1.398,0.183 2.842,0.213 4.331,0.091c1.489,-0.121 2.948,-0.319 4.376,-0.592c1.429,-0.274 2.751,-0.411 3.967,-0.411c2.553,-0.607 4.741,-1.413 6.564,-2.416c1.824,-1.003 3.739,-2.021 5.745,-3.054Z" style="fill:#fff;fill-rule:nonzero;"/>
        <path d="M163.36,77.648c-0.547,0.121 -0.943,0.441 -1.186,0.957l-1.322,3.1c-0.212,0.456 -0.532,0.684 -0.957,0.684c-0.061,0.486 -0.228,0.912 -0.502,1.277c-0.273,0.364 -0.531,0.744 -0.775,1.139c-0.243,0.395 -0.425,0.821 -0.547,1.277c-0.121,0.456 -0.06,0.987 0.183,1.595c-0.487,0.365 -0.79,0.882 -0.912,1.55c-0.122,0.669 -0.258,1.307 -0.41,1.915c-0.152,0.608 -0.411,1.125 -0.775,1.55c-0.365,0.426 -1.034,0.608 -2.006,0.547c-0.183,0.243 -0.213,0.395 -0.091,0.456c0.121,0.061 0.212,0.273 0.273,0.638c-0.669,-0.121 -1.17,-0.076 -1.504,0.137c-0.335,0.213 -0.745,0.349 -1.231,0.41c-1.155,-0.364 -2.112,-1.003 -2.872,-1.914c-0.76,-0.912 -1.429,-1.93 -2.006,-3.055c-0.578,-1.124 -1.094,-2.264 -1.55,-3.419c-0.456,-1.155 -0.897,-2.158 -1.322,-3.009c0.182,-0.668 0.213,-1.322 0.091,-1.96c-0.122,-0.638 -0.334,-1.17 -0.638,-1.596c2.978,-6.321 6.23,-13.068 9.756,-20.241c3.525,-7.173 6.868,-14.254 10.029,-21.244c1.398,0.547 2.781,1.17 4.149,1.869c1.367,0.699 2.613,1.504 3.738,2.416c1.124,0.912 2.082,1.96 2.872,3.146c0.79,1.185 1.307,2.507 1.55,3.966c-0.122,0.365 -0.258,0.501 -0.41,0.41c-0.152,-0.091 -0.289,-0.045 -0.411,0.137c0.244,0.304 0.38,0.517 0.411,0.638c0.03,0.122 0.03,0.243 -0,0.365c-0.031,0.121 -0.046,0.289 -0.046,0.501c0,0.213 0.091,0.502 0.274,0.867c-0.244,-0.061 -0.411,-0.031 -0.502,0.091c-0.091,0.121 -0.289,0.121 -0.593,-0c0.244,0.668 0.32,1.215 0.228,1.641c-0.091,0.425 -0.228,0.805 -0.41,1.14c-0.182,0.334 -0.334,0.699 -0.456,1.094c-0.121,0.395 -0.091,0.896 0.091,1.504c-0.182,0 -0.319,0.046 -0.41,0.137c-0.091,0.091 -0.167,0.182 -0.228,0.273c-0.061,0.092 -0.137,0.183 -0.228,0.274c-0.091,0.091 -0.228,0.106 -0.41,0.046c0.182,1.337 0.243,2.674 0.182,4.011c-0.06,1.338 -0.106,2.69 -0.136,4.058c-0.031,1.367 -0.016,2.796 0.045,4.285c0.061,1.489 0.274,3.024 0.638,4.604c2.189,-1.276 3.936,-2.917 5.243,-4.923c1.307,-2.006 2.371,-4.255 3.191,-6.747c0.821,-2.492 1.444,-5.167 1.869,-8.024c0.426,-2.857 0.882,-5.774 1.368,-8.753c0.547,-0.547 0.973,-1.215 1.276,-2.006c0.304,-0.79 0.578,-1.626 0.821,-2.507c0.243,-0.881 0.486,-1.763 0.729,-2.644c0.244,-0.881 0.548,-1.687 0.912,-2.416c0.912,0.121 1.687,0.41 2.325,0.866c0.638,0.456 1.231,0.942 1.778,1.459c0.547,0.516 1.125,1.003 1.733,1.459c0.607,0.455 1.367,0.744 2.279,0.866c0.729,1.033 1.398,2.036 2.006,3.009c0.608,0.972 1.003,2.005 1.185,3.1c-0.304,0.486 -0.532,1.033 -0.684,1.641c-0.152,0.608 -0.319,1.215 -0.501,1.823c-0.182,0.608 -0.426,1.17 -0.73,1.687c-0.303,0.517 -0.729,0.957 -1.276,1.322c-0.182,1.581 -0.41,3.024 -0.684,4.331c-0.273,1.307 -0.547,2.599 -0.82,3.875c-0.274,1.277 -0.502,2.599 -0.684,3.966c-0.183,1.368 -0.243,2.872 -0.183,4.514c-0.486,1.398 -1.003,2.887 -1.55,4.467c-0.547,1.581 -0.972,3.009 -1.276,4.286c-0.973,0.79 -1.732,1.732 -2.28,2.826c-0.547,1.094 -1.124,2.188 -1.732,3.282c-0.243,0.243 -0.395,0.304 -0.456,0.183c-0.061,-0.122 -0.273,-0.213 -0.638,-0.274c0.061,0.243 0.061,0.426 0,0.547c-0.061,0.122 -0.137,0.228 -0.228,0.319c-0.091,0.092 -0.152,0.228 -0.182,0.411c-0.031,0.182 0.015,0.425 0.136,0.729c-0.851,0.365 -1.61,0.881 -2.279,1.55c-0.669,0.669 -1.383,1.277 -2.143,1.824c-0.759,0.547 -1.671,0.911 -2.735,1.094c-1.064,0.182 -2.446,-0.031 -4.148,-0.639c-2.493,-1.823 -4.696,-3.92 -6.611,-6.291c-1.914,-2.37 -3.48,-5.197 -4.695,-8.479Z" style="fill:#fff;fill-rule:nonzero;"/>
        <path d="M251.046,42.909c0.061,0.426 0.076,0.745 0.046,0.958c-0.031,0.213 -0.061,0.41 -0.091,0.592c-0.031,0.183 -0.046,0.38 -0.046,0.593c0,0.213 0.061,0.532 0.182,0.957c-1.276,2.067 -2.75,3.48 -4.422,4.24c-1.671,0.76 -3.48,1.307 -5.425,1.641c-1.945,0.335 -3.936,0.684 -5.972,1.049c-2.036,0.365 -4.057,1.155 -6.063,2.371c-0.79,-0.304 -1.504,-0.304 -2.143,-0c-0.638,0.303 -1.565,0.395 -2.781,0.273c-0.364,0.365 -0.82,0.623 -1.367,0.775c-0.547,0.152 -1.094,0.319 -1.641,0.502c0.243,0.547 0.349,1.109 0.319,1.686c-0.031,0.578 0.045,1.049 0.228,1.414c2.127,0.182 4.482,0.151 7.066,-0.092c2.583,-0.243 5.121,-0.395 7.613,-0.456c0.061,0.304 0.03,0.502 -0.091,0.593c-0.122,0.091 -0.152,0.258 -0.091,0.502c0.425,0.304 0.851,0.683 1.276,1.139c0.426,0.456 0.851,0.897 1.277,1.322c0.425,0.426 0.866,0.775 1.322,1.049c0.456,0.273 0.988,0.38 1.595,0.319c0.243,0.486 0.411,1.018 0.502,1.596c0.091,0.577 0.015,1.17 -0.228,1.778c-0.973,0.668 -1.945,1.352 -2.918,2.051c-0.972,0.699 -1.99,1.322 -3.054,1.869c-1.064,0.547 -2.188,0.988 -3.374,1.322c-1.185,0.335 -2.507,0.471 -3.966,0.411l-0.684,-0c-0.152,-0 -0.349,-0.092 -0.592,-0.274c-0.487,0.304 -1.171,0.395 -2.052,0.274c-0.881,-0.122 -1.565,-0.031 -2.051,0.273c-0.669,-0.304 -1.474,-0.441 -2.417,-0.41c-0.942,0.03 -1.778,-0.076 -2.507,-0.319c-0.972,1.276 -1.854,2.644 -2.644,4.103c-0.79,1.458 -1.489,3.008 -2.097,4.65c2.067,0.304 3.784,0.425 5.151,0.364c1.368,-0.06 2.66,-0.167 3.875,-0.319c1.216,-0.152 2.462,-0.304 3.739,-0.456c1.276,-0.152 2.887,-0.197 4.832,-0.136c1.216,-0.669 2.659,-1.11 4.331,-1.323c1.671,-0.212 3.206,-0.562 4.604,-1.048c0.487,0.182 0.912,0.501 1.277,0.957c0.365,0.456 0.714,0.882 1.048,1.277c0.335,0.395 0.684,0.744 1.049,1.048c0.365,0.304 0.82,0.426 1.368,0.365c0.243,0.243 0.41,0.532 0.501,0.866c0.091,0.335 0.167,0.654 0.228,0.958c0.061,0.303 0.167,0.562 0.319,0.775c0.152,0.212 0.41,0.288 0.775,0.228c-0.912,2.005 -1.96,3.54 -3.146,4.604c-1.185,1.064 -2.537,1.869 -4.057,2.416c-1.52,0.547 -3.206,0.973 -5.06,1.277c-1.854,0.304 -3.906,0.668 -6.155,1.094c-0.547,0.121 -1.003,0.106 -1.367,-0.046c-0.365,-0.152 -0.791,-0.228 -1.277,-0.228c-1.398,0.304 -3.069,0.578 -5.015,0.821c-1.945,0.243 -3.92,0.334 -5.926,0.273c-2.006,-0.06 -3.921,-0.319 -5.744,-0.775c-1.824,-0.456 -3.313,-1.261 -4.468,-2.416c-0.486,-0.425 -0.805,-0.927 -0.957,-1.504c-0.152,-0.578 -0.562,-1.018 -1.231,-1.322c-0.061,-0.791 -0.182,-1.672 -0.365,-2.644c-0.182,-0.973 -0.364,-1.991 -0.547,-3.055c-0.182,-1.064 -0.319,-2.112 -0.41,-3.145c-0.091,-1.034 -0.046,-1.976 0.137,-2.827c0.182,-0.912 0.562,-1.732 1.139,-2.462c0.578,-0.729 0.775,-1.519 0.593,-2.37c0.304,-0.061 0.486,-0.228 0.547,-0.502c0.061,-0.273 0.304,-0.38 0.729,-0.319c0.365,-1.094 0.76,-2.127 1.186,-3.1c0.425,-0.973 0.866,-1.915 1.322,-2.826c0.456,-0.912 0.912,-1.839 1.368,-2.781c0.455,-0.942 0.896,-1.991 1.322,-3.146c-0.851,-0.79 -1.474,-1.656 -1.87,-2.598c-0.395,-0.943 -0.683,-1.885 -0.866,-2.827c-0.182,-0.942 -0.334,-1.915 -0.456,-2.918c-0.121,-1.003 -0.334,-2.021 -0.638,-3.054c0.608,-0.912 1.353,-1.656 2.234,-2.234c0.881,-0.577 1.839,-1.048 2.872,-1.413c1.033,-0.365 2.158,-0.669 3.374,-0.912c1.215,-0.243 2.492,-0.517 3.829,-0.82c2.431,-0.791 4.604,-1.399 6.519,-1.824c1.915,-0.426 3.799,-0.775 5.653,-1.049c1.854,-0.273 3.784,-0.531 5.79,-0.775c2.006,-0.243 4.285,-0.607 6.838,-1.094c0.547,0.547 1.064,0.821 1.55,0.821c0.243,-0.547 0.532,-0.714 0.866,-0.502c0.335,0.213 0.471,0.046 0.411,-0.501c0.607,1.033 1.382,1.899 2.325,2.599c0.942,0.699 1.99,1.291 3.145,1.777Z" style="fill:#fff;fill-rule:nonzero;"/>
    </g>
</svg>
