<svg width="100%" height="100%" viewBox="0 0 512 512" version="1.1"
    xmlns="http://www.w3.org/2000/svg" xmlns:xlink="http://www.w3.org/1999/xlink"
    xml:space="preserve" xmlns:serif="http://www.serif.com/"
    style="fill-rule:evenodd;clip-rule:evenodd;stroke-linejoin:round;stroke-miterlimit:2;">
    <path d="M512,61.44c0,-33.91 -27.53,-61.44 -61.44,-61.44l-389.12,0c-33.91,0 -61.44,27.53 -61.44,61.44l0,389.12c0,33.91 27.53,61.44 61.44,61.44l389.12,0c33.91,0 61.44,-27.53 61.44,-61.44l0,-389.12Z" style="fill:#131127;"/>
    <path d="M205.565,226.29c-5.235,0 -10.253,-0.842 -14.879,-2.379c3.136,-7.099 11.332,-13.044 14.879,-15.371c3.557,2.327 11.753,8.277 14.884,15.371c-4.626,1.537 -9.644,2.379 -14.884,2.379Zm189.386,-0.832c-12.244,0 -21.58,-3.997 -28.003,-11.994c-6.427,-7.993 -9.638,-18.668 -9.638,-32.024c0,-8.801 1.669,-16.543 5.008,-23.221c3.339,-6.678 8.021,-11.838 14.037,-15.48c6.021,-3.641 12.879,-5.462 20.569,-5.462c9.411,0 16.718,2.601 21.93,7.813c5.212,5.212 7.969,12.675 8.272,22.389c0,6.172 -0.355,10.878 -1.064,14.113l-52.209,0c0.204,10.017 2.531,18.085 6.981,24.21c4.455,6.12 10.778,9.18 18.975,9.18c4.043,0 8.271,-0.733 12.67,-2.199c4.403,-1.467 7.818,-3.212 10.244,-5.236l2.885,6.678c-2.932,3.036 -7.284,5.666 -13.053,7.894c-5.766,2.222 -11.635,3.339 -17.604,3.339Zm-310.077,-43.256c-0,-8.4 1.646,-15.99 4.933,-22.768c3.287,-6.782 8.144,-12.169 14.571,-16.165c6.423,-3.996 14.137,-5.992 23.146,-5.992c4.347,-0 8.092,0.402 11.228,1.21c3.14,0.809 6.881,1.925 11.232,3.339l-0.605,23.373l-9.866,-0l-3.339,-15.479c-0.61,-2.833 -4.455,-4.252 -11.535,-4.252c-7.084,0 -12.675,2.861 -16.77,8.579c-4.101,5.714 -6.149,13.834 -6.149,24.357c-0,11.942 2.304,21.023 6.905,27.247c4.607,6.219 10.599,9.331 17.986,9.331c4.252,0 8.272,-0.658 12.065,-1.972c3.798,-1.315 7.061,-2.885 9.79,-4.706l2.885,6.072c-2.733,2.833 -6.753,5.387 -12.065,7.667c-5.315,2.275 -10.702,3.415 -16.165,3.415c-8.295,0 -15.304,-1.873 -21.022,-5.619c-5.718,-3.741 -10.017,-8.877 -12.902,-15.404c-2.881,-6.527 -4.323,-13.938 -4.323,-22.233Zm181.067,-30.964l-10.929,-2.734l-0,-8.196l21.703,-2.729l0.459,0l3.187,2.729l-0,6.376l-0.151,3.641c3.642,-3.235 8.447,-6.172 14.415,-8.801c5.969,-2.63 11.687,-3.945 17.154,-3.945c6.371,0 11.304,1.211 14.794,3.642c3.495,2.426 5.945,6.148 7.364,11.157c1.414,5.008 2.123,11.762 2.123,20.261l-0,42.494l10.627,1.064l-0,7.591l-35.972,0l-0,-7.439l9.412,-1.216l-0,-42.645c-0,-5.974 -0.407,-10.651 -1.216,-14.042c-0.808,-3.386 -2.327,-5.917 -4.554,-7.586c-2.228,-1.67 -5.463,-2.507 -9.715,-2.507c-3.641,0 -7.538,0.913 -11.686,2.734c-4.148,1.821 -7.841,3.944 -11.076,6.375l-0,57.52l10.319,1.367l-0,7.439l-35.821,0l-0,-7.439l9.563,-1.367l-0,-63.744Zm-102.274,39.685c13.058,2.053 25.482,6.81 36.341,13.919c-4.55,3.197 -11.871,9.208 -15.224,16.638c-12.259,-6.125 -20.654,-17.485 -21.117,-30.557Zm62.684,30.557c-3.353,-7.43 -10.674,-13.436 -15.224,-16.638c10.859,-7.109 23.283,-11.866 36.341,-13.919c-0.463,13.072 -8.858,24.432 -21.117,30.557Zm-20.786,-40.196c3.022,1.939 9.45,6.489 13.228,12.212c-4.606,2.199 -9.033,4.748 -13.228,7.633c-4.19,-2.885 -8.617,-5.434 -13.224,-7.633c3.779,-5.728 10.211,-10.273 13.224,-12.212Zm-35.802,-11.729c5.411,1.254 17.622,4.947 23.255,13.616c-2.384,2.228 -4.73,4.843 -6.55,7.747c-6.007,-2.398 -12.269,-4.223 -18.691,-5.434c-0.554,-6.408 0.964,-12.628 1.986,-15.929Zm73.595,15.929c-6.422,1.211 -12.684,3.036 -18.686,5.434c-1.826,-2.904 -4.171,-5.519 -6.555,-7.747c5.633,-8.673 17.849,-12.362 23.26,-13.616c1.016,3.301 2.535,9.521 1.981,15.929Zm-50.676,-11.951c3.784,-6.196 9.88,-11.1 12.888,-13.29c3.008,2.185 9.095,7.075 12.888,13.29c-1.935,1.608 -3.718,3.448 -5.217,5.552c-3.235,-2.436 -5.779,-3.878 -6.021,-4.015c-1.016,-0.568 -2.289,-0.568 -3.306,0c-0.241,0.137 -2.785,1.579 -6.02,4.015c-1.499,-2.104 -3.278,-3.944 -5.212,-5.552Zm217.749,0.014c0.303,-2.124 0.454,-4.299 0.454,-6.527c-0.099,-6.574 -1.49,-11.762 -4.171,-15.555c-2.682,-3.793 -6.905,-5.689 -12.675,-5.689c-5.87,0 -10.547,2.123 -14.037,6.375c-3.491,4.247 -5.491,11.379 -5.997,21.396l36.426,0Zm-226.532,-25.397c3.358,1.319 10.121,4.346 15.409,9.061c-3.5,2.786 -8.343,7.213 -11.838,12.694c-4.356,-2.558 -8.901,-4.228 -12.495,-5.283c1.859,-7.098 6.564,-13.554 8.924,-16.472Zm43.351,0c2.36,2.908 7.061,9.35 8.919,16.472c-3.599,1.05 -8.144,2.72 -12.504,5.279c-3.495,-5.472 -8.329,-9.899 -11.829,-12.685c5.274,-4.701 12.056,-7.742 15.414,-9.066Zm-21.68,-12.429c2.662,1.754 7.903,5.528 11.715,10.31c-3.505,1.892 -7.392,4.408 -10.741,7.572c-0.634,-0.189 -1.315,-0.189 -1.948,0c-3.349,-3.169 -7.237,-5.685 -10.741,-7.572c3.807,-4.767 9.057,-8.551 11.715,-10.31Z" style="fill:#fff;fill-rule:nonzero;"/>
    <path d="M344.361,314.044c0.24,-1.2 0.4,-2.18 0.48,-2.939c0.08,-0.76 -0.2,-1.58 -0.839,-2.459c0.319,-1.28 0.579,-2.279 0.779,-2.999c0.2,-0.72 0.22,-1.719 0.06,-2.999c0.72,-2.079 1.819,-3.838 3.299,-5.277c1.479,-1.44 3.098,-2.659 4.858,-3.659c1.759,-0.999 3.598,-1.839 5.517,-2.519c1.92,-0.679 3.719,-1.259 5.398,-1.739c0,-0.32 -0.16,-0.48 -0.48,-0.48c-0.32,0 -0.4,-0.2 -0.24,-0.599c4.318,-0.8 8.657,-1.96 13.015,-3.479c4.358,-1.519 8.816,-2.879 13.374,-4.078c4.558,-1.2 9.236,-1.939 14.034,-2.219c4.798,-0.28 9.836,0.34 15.114,1.859c0.319,0.96 0.759,1.879 1.319,2.759c0.56,0.879 1.14,1.739 1.739,2.579c0.6,0.839 1.14,1.659 1.62,2.459c0.479,0.799 0.759,1.639 0.839,2.519c0.96,0.879 1.739,1.819 2.339,2.818c0.6,1 0.7,2.339 0.3,4.019c-0.88,0.639 -1.799,1.279 -2.759,1.919c-0.959,0.639 -1.959,1.239 -2.998,1.799c-3.599,-0.88 -7.197,-1.199 -10.796,-0.96c-3.598,0.24 -6.837,0.52 -9.716,0.84c-0.879,-0.96 -1.919,-1.419 -3.118,-1.379c-1.2,0.04 -2.459,0.24 -3.779,0.599c-1.319,0.36 -2.619,0.72 -3.898,1.08c-1.279,0.36 -2.479,0.46 -3.599,0.3c-0.879,0.799 -2.039,1.339 -3.478,1.619c-1.439,0.28 -2.959,0.5 -4.558,0.66c-0.08,0.4 0,0.68 0.24,0.839c0.24,0.16 0.28,0.48 0.12,0.96c0.56,0.72 1.319,1.22 2.279,1.499c0.959,0.28 1.939,0.54 2.939,0.78c0.999,0.24 1.899,0.58 2.698,1.02c0.8,0.439 1.32,1.139 1.56,2.099c1.439,0.08 2.679,0.46 3.718,1.139c1.04,0.68 1.919,1.5 2.639,2.459c0.72,0.96 1.239,1.979 1.559,3.059c0.32,1.079 0.44,2.059 0.36,2.939c0.32,0.799 0.66,1.119 1.02,0.959c0.36,-0.16 0.779,0.04 1.259,0.6c0.32,1.199 1.06,2.459 2.219,3.778c1.16,1.32 2.059,2.739 2.699,4.259c0.16,2.399 0.3,4.558 0.42,6.477c0.12,1.919 -0.22,3.798 -1.02,5.637c-1.359,3.519 -3.318,6.677 -5.877,9.476c-2.559,2.799 -5.458,5.258 -8.696,7.377c-3.239,2.119 -6.658,3.958 -10.256,5.518c-3.598,1.559 -7.157,2.859 -10.675,3.898c-0.32,-0.08 -0.7,-0.08 -1.14,0c-0.44,0.08 -0.54,-0.16 -0.3,-0.72c-0.72,0.64 -1.539,1.04 -2.459,1.2c-0.919,0.16 -1.919,0.22 -2.998,0.18c-1.08,-0.04 -2.16,-0.1 -3.239,-0.18c-1.08,-0.08 -2.139,-0.04 -3.179,0.12c-0.639,-0.64 -1.219,-1.28 -1.739,-1.919c-0.52,-0.64 -0.94,-1.4 -1.259,-2.279c-0.4,-0.08 -0.58,-0.34 -0.54,-0.78c0.04,-0.44 -0.14,-0.66 -0.54,-0.66c0,-0.32 0.04,-0.559 0.12,-0.719c0.08,-0.16 0.16,-0.32 0.24,-0.48c0.32,-0.24 0.46,-0.42 0.42,-0.54c-0.04,-0.12 -0.16,-0.24 -0.36,-0.36c-0.2,-0.12 -0.4,-0.26 -0.6,-0.42c-0.2,-0.16 -0.26,-0.36 -0.18,-0.599c0.4,-0.72 0.54,-1.58 0.42,-2.579c-0.12,-1 -0.22,-2.019 -0.3,-3.059c-0.08,-1.04 0,-2.019 0.24,-2.939c0.24,-0.919 0.92,-1.699 2.039,-2.339c3.279,0.32 6.377,0.16 9.296,-0.48c2.919,-0.639 5.678,-1.519 8.277,-2.638c2.598,-1.12 5.077,-2.339 7.436,-3.659c2.359,-1.319 4.658,-2.539 6.897,-3.658c0.24,-0.8 0.62,-1.48 1.14,-2.039c0.52,-0.56 1.06,-1.1 1.619,-1.62c0.56,-0.519 1.08,-1.079 1.56,-1.679c0.479,-0.6 0.839,-1.339 1.079,-2.219c0.08,-0.32 0.08,-0.56 0,-0.72c-0.08,-0.16 -0.2,-0.3 -0.36,-0.42c-0.16,-0.119 -0.32,-0.259 -0.479,-0.419c-0.16,-0.16 -0.24,-0.4 -0.24,-0.72c-0.24,-0.08 -0.46,-0.16 -0.66,-0.24c-0.2,-0.08 -0.38,-0.12 -0.54,-0.12c-2.079,-1.039 -4.278,-1.919 -6.597,-2.639c-2.319,-0.719 -4.278,-1.519 -5.878,-2.399c-0.959,0.64 -1.919,0.8 -2.878,0.48c-0.96,-0.32 -2.119,-0.64 -3.479,-0.96c-3.358,-0.159 -6.537,-0.479 -9.536,-0.959c-2.998,-0.48 -5.897,-1.32 -8.696,-2.519c-0.16,-0.48 -0.36,-0.9 -0.6,-1.26c-0.24,-0.359 -0.799,-0.459 -1.679,-0.299c-0.56,-0.8 -1.14,-1.54 -1.739,-2.219c-0.6,-0.68 -1.14,-1.46 -1.62,-2.339Zm-249.531,55.416c-2.319,-0.56 -4.099,-1.5 -5.338,-2.819c-1.239,-1.319 -2.159,-2.879 -2.759,-4.678c-0.6,-1.799 -0.999,-3.778 -1.199,-5.937c-0.2,-2.159 -0.42,-4.399 -0.66,-6.718c0.32,-1.039 0.74,-1.919 1.259,-2.638c0.52,-0.72 0.74,-1.72 0.66,-2.999c0.88,-2.559 1.679,-5.038 2.399,-7.437c0.72,-2.399 1.2,-4.878 1.44,-7.437c0.479,-0.719 0.959,-1.199 1.439,-1.439c0.64,-4.558 0.72,-9.236 0.24,-14.034c-0.48,-4.798 -1.28,-9.236 -2.399,-13.314c0.08,-0.88 0.2,-1.54 0.36,-1.98c0.16,-0.439 0.16,-0.819 0,-1.139c-0.16,-0.72 0.08,-1.08 0.719,-1.08l1.92,0c0,-1.439 -0.26,-2.858 -0.78,-4.258c-0.52,-1.399 -1.02,-3.019 -1.499,-4.858c0.639,-1.439 1.079,-2.839 1.319,-4.198c0.24,-1.359 0.68,-2.599 1.319,-3.718c2.559,0.799 5.078,1.719 7.557,2.758c2.479,1.04 4.918,2.06 7.317,3.059c2.399,1 4.758,1.959 7.077,2.879c2.319,0.92 4.598,1.659 6.837,2.219c3.439,2.479 6.977,4.938 10.616,7.377c3.638,2.439 6.957,5.118 9.955,8.036c2.999,2.919 5.498,6.258 7.497,10.016c1.999,3.758 3.159,8.197 3.479,13.314c-0.16,0.48 -0.28,0.88 -0.36,1.2c-0.08,0.32 -0.16,0.64 -0.24,0.959c-0.08,0.32 -0.12,0.68 -0.12,1.08l0,1.679c-2.879,5.038 -6.517,9.276 -10.915,12.715c-4.399,3.438 -9.196,6.477 -14.394,9.116c-5.198,2.639 -10.616,5.058 -16.253,7.257c-5.638,2.199 -11.136,4.538 -16.493,7.017Zm96.851,-0.84c-3.518,0.48 -6.717,0.32 -9.596,-0.48c-2.879,-0.799 -5.457,-2.039 -7.736,-3.718c-2.279,-1.679 -4.239,-3.678 -5.878,-5.997c-1.639,-2.319 -2.979,-4.798 -4.018,-7.437c-0.72,-5.438 -0.52,-10.376 0.6,-14.814c1.119,-4.438 2.758,-8.536 4.917,-12.295c2.159,-3.758 4.618,-7.277 7.377,-10.555c2.759,-3.279 5.418,-6.437 7.977,-9.476c0.56,0.24 1.019,0.24 1.379,0c0.36,-0.24 0.68,-0.56 0.96,-0.96c0.28,-0.399 0.6,-0.799 0.959,-1.199c0.36,-0.4 0.78,-0.68 1.26,-0.84c0.32,-0.719 0.74,-1.319 1.259,-1.799c0.52,-0.48 1.08,-0.94 1.68,-1.379c0.599,-0.44 1.159,-0.9 1.679,-1.38c0.52,-0.48 0.979,-1.079 1.379,-1.799c0.8,-0.16 1.5,-0.44 2.099,-0.84c0.6,-0.4 1.16,-0.839 1.68,-1.319c0.519,-0.48 1.059,-0.92 1.619,-1.32c0.56,-0.399 1.239,-0.719 2.039,-0.959l0,-1.56c1.759,-0.799 3.039,-1.679 3.838,-2.638c0.8,-0.96 1.76,-2.199 2.879,-3.719c0.88,-0.08 1.58,-0.12 2.099,-0.12c0.52,0 1.34,-0.08 2.459,-0.24c0.72,-1.359 1.4,-2.359 2.039,-2.998c0.64,-0.64 1.56,-1.36 2.759,-2.159c1.2,0.639 2.479,1.019 3.839,1.139c1.359,0.12 2.599,0.74 3.718,1.859c0.08,0.96 0.36,1.7 0.84,2.219c0.479,0.52 0.999,1 1.559,1.44c0.56,0.44 1.12,0.899 1.679,1.379c0.56,0.48 0.92,1.16 1.08,2.039c0.4,0 0.66,-0.08 0.779,-0.24c0.12,-0.16 0.38,-0.2 0.78,-0.12c0.16,0.64 0.32,1.16 0.48,1.56c0.16,0.4 0.34,0.759 0.54,1.079c0.2,0.32 0.4,0.68 0.599,1.08c0.2,0.4 0.38,0.879 0.54,1.439c-0.4,0.96 -0.759,1.979 -1.079,3.059c-0.32,1.079 -0.96,1.819 -1.919,2.219c0,0.64 0.239,0.98 0.719,1.02c0.48,0.039 0.76,0.339 0.84,0.899c0.08,0.72 -0.04,1.32 -0.36,1.799c2.239,3.759 4.278,7.697 6.117,11.815c1.84,4.119 3.919,8.057 6.238,11.815c-0.16,1.12 -0.1,2.219 0.18,3.299c0.28,1.079 0.639,2.139 1.079,3.178c0.44,1.04 0.86,2.08 1.26,3.119c0.399,1.04 0.679,2.079 0.839,3.119c0.16,1.359 0.16,2.819 0,4.378c-0.16,1.559 -0.48,3.059 -0.959,4.498c-0.48,1.439 -1.12,2.779 -1.919,4.018c-0.8,1.24 -1.72,2.179 -2.759,2.819c-1.28,1.599 -2.879,2.899 -4.798,3.898c-1.919,1 -3.679,2.179 -5.278,3.539c-1.12,0.64 -2.319,1.099 -3.598,1.379c-1.28,0.28 -2.599,0.58 -3.959,0.9c-1.039,0.64 -2.279,1.259 -3.718,1.859c-1.44,0.6 -2.919,1.14 -4.438,1.619c-1.52,0.48 -3.039,0.86 -4.558,1.14c-1.52,0.28 -2.879,0.34 -4.079,0.18c-2.878,1.039 -5.677,1.759 -8.396,2.159c-2.719,0.4 -5.917,0.2 -9.596,-0.6Zm81.018,-10.915c-2.319,-1.759 -4.218,-3.958 -5.697,-6.597c-1.48,-2.639 -2.639,-5.438 -3.479,-8.397c-0.839,-2.958 -1.399,-6.017 -1.679,-9.176c-0.28,-3.158 -0.38,-6.177 -0.3,-9.056c0.72,-2.159 1.599,-4.138 2.639,-5.937c1.039,-1.8 2.199,-3.519 3.478,-5.158c1.28,-1.639 2.619,-3.199 4.019,-4.678c1.399,-1.48 2.779,-2.979 4.138,-4.498c0.48,0 0.92,0.12 1.319,0.36c0.32,-0.88 0.8,-1.64 1.44,-2.279c0.639,-0.64 1.319,-1.22 2.039,-1.74c0.72,-0.519 1.439,-1.039 2.159,-1.559c0.72,-0.52 1.319,-1.14 1.799,-1.859c1.999,-0.48 3.779,-1.16 5.338,-2.039c1.559,-0.88 3.059,-1.84 4.498,-2.879c1.439,-1.04 2.919,-1.999 4.438,-2.879c1.519,-0.879 3.279,-1.559 5.278,-2.039c0.72,-0.8 1.619,-1.479 2.699,-2.039c1.079,-0.56 2.159,-1.08 3.238,-1.559c1.08,-0.48 2.119,-1 3.119,-1.56c1,-0.56 1.819,-1.319 2.459,-2.279c0.48,0.64 1.159,0.86 2.039,0.66c0.88,-0.2 1.679,-0.42 2.399,-0.66c0.48,-0.08 0.88,0 1.199,0.24c0.32,0.24 0.62,0.5 0.9,0.78c0.28,0.28 0.52,0.46 0.72,0.54c0.2,0.079 0.42,-0.16 0.66,-0.72c0.639,0.08 0.819,0.36 0.539,0.839c-0.28,0.48 -0.46,0.8 -0.539,0.96c0.799,-0.16 1.459,-0.02 1.979,0.42c0.519,0.44 1.339,0.74 2.459,0.899c0.399,0.4 0.519,0.72 0.359,0.96c-0.159,0.24 -0.279,0.64 -0.359,1.2c2.878,0.879 4.718,2.259 5.517,4.138c0.8,1.879 0.88,3.838 0.24,5.877c-0.64,2.039 -1.819,3.919 -3.538,5.638c-1.72,1.719 -3.619,2.859 -5.698,3.418c-2.479,0.64 -4.778,1.28 -6.897,1.92c-2.119,0.639 -4.158,1.359 -6.117,2.159c-1.96,0.799 -3.799,1.739 -5.518,2.818c-1.719,1.08 -3.219,2.339 -4.498,3.779c-2.239,0.64 -4.258,1.519 -6.057,2.639c-1.8,1.119 -3.479,2.359 -5.038,3.718c-1.56,1.36 -3.059,2.779 -4.498,4.258c-1.44,1.48 -2.879,2.939 -4.319,4.378c0,1.36 -0.239,2.399 -0.719,3.119c-0.48,0.72 -1,1.439 -1.56,2.159c0.16,1.52 0.5,2.819 1.02,3.899c0.52,1.079 1.06,2.179 1.619,3.298c6.398,1.919 13.175,3.099 20.332,3.539c7.157,0.439 14.254,0.699 21.291,0.779c0.719,0.96 1.539,1.859 2.458,2.699c0.92,0.84 1.76,1.699 2.519,2.579c0.76,0.88 1.36,1.899 1.8,3.059c0.439,1.159 0.539,2.539 0.299,4.138c-1.359,1.359 -2.838,2.659 -4.438,3.898c-1.599,1.24 -3.198,2.459 -4.798,3.659c-0.719,0.08 -1.579,0.08 -2.578,0c-1,-0.08 -2.04,-0.12 -3.119,-0.12c-1.08,0 -2.159,0.06 -3.239,0.18c-1.079,0.12 -2.099,0.379 -3.058,0.779c-5.038,-0.16 -10.196,-0.779 -15.474,-1.859c-5.278,-1.079 -10.155,-2.379 -14.634,-3.898c-0.879,-1.04 -1.799,-2.019 -2.758,-2.939c-0.96,-0.92 -2.239,-1.579 -3.839,-1.979Zm-79.459,-32.746c-0.799,1.839 -1.739,3.498 -2.818,4.978c-1.08,1.479 -2.139,2.978 -3.179,4.498c-1.04,1.519 -1.939,3.138 -2.699,4.858c-0.76,1.719 -1.179,3.738 -1.259,6.057c1.599,1.36 3.498,2.179 5.697,2.459c2.199,0.28 4.458,0.32 6.777,0.12c2.319,-0.2 4.638,-0.5 6.957,-0.9c2.319,-0.399 4.399,-0.599 6.238,-0.599c-0,-0.72 0.32,-1.08 0.959,-1.08c3.359,-0.32 6.478,-1.259 9.356,-2.819c2.879,-1.559 5.878,-3.138 8.996,-4.738c0.4,-0.959 0.92,-1.799 1.56,-2.519c0.64,-0.719 0.999,-1.759 1.079,-3.118c-0.399,-0.72 -0.659,-1.32 -0.779,-1.799c-0.12,-0.48 -0.18,-1.2 -0.18,-2.159c-2.079,-2.879 -3.879,-6.018 -5.398,-9.416c-1.519,-3.399 -3.279,-6.618 -5.278,-9.656c-0.16,0.399 -0.479,0.799 -0.959,1.199c-0.48,0.4 -1,0.32 -1.56,-0.24c-0.24,0.8 -0.599,1.34 -1.079,1.62c-0.48,0.279 -1.02,0.419 -1.619,0.419c-0.6,0 -1.2,-0.12 -1.8,-0.359c-0.599,-0.24 -1.139,-0.56 -1.619,-0.96c-2.799,2.239 -5.578,4.398 -8.336,6.477c-2.759,2.079 -5.258,4.518 -7.497,7.317c-0.4,0.24 -0.64,0.32 -0.72,0.24c-0.08,-0.08 -0.36,-0.04 -0.84,0.12Zm-86.655,-23.51c-0.72,0 -1.24,0.16 -1.56,0.48c0.96,3.598 1.68,6.997 2.159,10.195c0.48,3.199 0.74,6.398 0.78,9.596c0.04,3.199 -0.14,6.478 -0.54,9.836c-0.399,3.359 -0.959,6.997 -1.679,10.915c1.04,-0.08 1.959,-0.279 2.759,-0.599c0.8,-0.32 1.619,-0.68 2.459,-1.08c0.839,-0.4 1.719,-0.76 2.639,-1.079c0.919,-0.32 1.979,-0.52 3.178,-0.6c0.32,-0.64 0.74,-1.14 1.26,-1.5c0.52,-0.359 0.979,-0.739 1.379,-1.139c1.999,-0.8 3.999,-1.639 5.998,-2.519c1.999,-0.88 3.838,-1.879 5.517,-2.999c1.68,-1.119 3.199,-2.399 4.558,-3.838c1.36,-1.439 2.479,-3.159 3.359,-5.158c-0.64,-1.199 -1.419,-2.219 -2.339,-3.059c-0.92,-0.839 -1.879,-1.679 -2.879,-2.518c-0.999,-0.84 -1.959,-1.72 -2.879,-2.639c-0.919,-0.92 -1.659,-1.979 -2.219,-3.179c-1.279,-0.16 -2.399,-0.5 -3.358,-1.02c-0.96,-0.519 -1.879,-1.039 -2.759,-1.559c-0.88,-0.52 -1.819,-1.019 -2.819,-1.499c-0.999,-0.48 -2.179,-0.76 -3.538,-0.84c-2.079,-1.119 -3.959,-1.899 -5.638,-2.339c-1.679,-0.44 -2.959,-1.059 -3.838,-1.859Z" style="fill:#31eaff;fill-rule:nonzero;"/>
</svg>
