<?xml version="1.0" encoding="UTF-8" standalone="no"?>
<!DOCTYPE svg PUBLIC "-//W3C//DTD SVG 1.1//EN" "http://www.w3.org/Graphics/SVG/1.1/DTD/svg11.dtd">
<svg width="100%" height="100%" viewBox="0 0 24 24" version="1.1" xmlns="http://www.w3.org/2000/svg" xmlns:xlink="http://www.w3.org/1999/xlink" xml:space="preserve" xmlns:serif="http://www.serif.com/" style="fill-rule:evenodd;clip-rule:evenodd;stroke-linejoin:round;stroke-miterlimit:2;">
    <path d="M15.847,0l-7.694,0c-2.162,0 -4.236,0.859 -5.765,2.388c-1.529,1.529 -2.388,3.603 -2.388,5.765l0,7.694c0,2.162 0.859,4.236 2.388,5.765c1.529,1.529 3.603,2.388 5.765,2.388l15.847,0l0,-15.847c-0,-2.162 -0.859,-4.236 -2.388,-5.765c-1.529,-1.529 -3.603,-2.388 -5.765,-2.388Z" style="fill:#282547;"/>
    <g>
        <path d="M4.691,14.314c-0.082,0.413 -0.131,0.712 -0.131,1.025c-0,0.513 0.197,0.94 0.527,1.238c0.428,0.398 1.004,0.597 2.009,0.597c1.087,0 1.762,-0.213 2.306,-0.668c0.51,-0.426 0.79,-0.939 1.054,-2.092c0.115,-0.498 0.165,-0.954 0.165,-1.339c-0,-0.812 -0.379,-1.267 -1.516,-1.737l-0.938,-0.385c-0.412,-0.171 -0.643,-0.399 -0.643,-0.812c0,-0.213 0.033,-0.47 0.082,-0.683c0.099,-0.442 0.248,-0.798 0.528,-1.025c0.214,-0.185 0.461,-0.257 0.774,-0.257c0.296,0 0.494,0.1 0.593,0.214c0.131,0.142 0.181,0.299 0.181,0.555c-0,0.199 -0.017,0.413 -0.099,0.74l1.746,0c0.082,-0.412 0.115,-0.74 0.115,-1.025c0,-0.541 -0.198,-0.995 -0.461,-1.223c-0.461,-0.398 -0.972,-0.611 -1.96,-0.611c-0.988,-0 -1.614,0.255 -2.125,0.696c-0.527,0.441 -0.84,1.081 -1.037,1.936c-0.099,0.398 -0.132,0.74 -0.132,1.11c-0,0.727 0.313,1.211 1.219,1.596l1.087,0.456c0.543,0.213 0.79,0.484 0.79,0.882c0,0.257 -0.033,0.57 -0.115,0.898c-0.165,0.655 -0.263,0.897 -0.576,1.153c-0.231,0.185 -0.528,0.285 -0.89,0.285c-0.329,-0 -0.56,-0.1 -0.708,-0.257c-0.132,-0.128 -0.198,-0.313 -0.198,-0.555c0,-0.199 0.033,-0.413 0.099,-0.712l-1.746,0Z" style="fill:#fff;fill-rule:nonzero;"/>
        <path d="M11.419,17.075l3.229,-0c1.185,-0 1.96,-0.271 2.651,-0.868c0.774,-0.668 1.104,-1.722 1.68,-4.214c0.247,-1.111 0.461,-2.136 0.461,-2.592c0,-0.598 -0.115,-1.082 -0.395,-1.466c-0.461,-0.64 -1.021,-0.996 -2.256,-0.996l-3.031,0l-2.339,10.136Zm2.603,-1.707l1.548,-6.722l0.873,0c0.247,0 0.445,0.071 0.576,0.199c0.149,0.143 0.214,0.342 0.214,0.556c0,0.584 -0.247,1.68 -0.461,2.592c-0.263,1.125 -0.576,2.464 -0.939,2.933c-0.214,0.257 -0.51,0.442 -1.004,0.442l-0.807,-0Z" style="fill:#31eaff;fill-rule:nonzero;"/>
    </g>
</svg>
