<svg
    aria-hidden="true"
    focusable="false"
    role="img"
    xmlns="http://www.w3.org/2000/svg"
    xmlns:xlink="http://www.w3.org/1999/xlink"
    viewBox="0 0 24 24"
    width="24"
    height="24"
    style="fill: currentColor"
>
    <path
        d="M13.684,-0c-6.616,-0 -11.974,5.373 -11.974,12c0,6.627 5.358,12 11.974,12c3.246,0 6.187,-1.296 8.346,-3.396c0.268,-0.263 0.338,-0.67 0.166,-1.002c-0.171,-0.332 -0.541,-0.52 -0.911,-0.456c-0.525,0.092 -1.06,0.14 -1.612,0.14c-5.191,-0 -9.402,-4.222 -9.402,-9.429c0,-3.525 1.929,-6.595 4.784,-8.212c0.327,-0.188 0.493,-0.563 0.413,-0.927c-0.081,-0.364 -0.392,-0.638 -0.767,-0.67c-0.337,-0.027 -0.675,-0.043 -1.017,-0.043l-0,-0.005Z"
    ></path>
</svg>
