<svg
    aria-hidden="true"
    focusable="false"
    role="img"
    xmlns="http://www.w3.org/2000/svg"
    xmlns:xlink="http://www.w3.org/1999/xlink"
    viewBox="0 0 24 24"
    width="24"
    height="24"
    style="fill: currentColor;"
>
    <path
        d="M20.348,4.401c-0.006,-0.012 -0.017,-0.023 -0.031,-0.028c-1.556,-0.714 -3.198,-1.223 -4.885,-1.515c-0.031,-0.005 -0.063,0.01 -0.079,0.038c-0.223,0.405 -0.426,0.822 -0.608,1.249c-1.818,-0.277 -3.668,-0.277 -5.487,-0c-0.182,-0.428 -0.389,-0.845 -0.617,-1.249c-0.016,-0.028 -0.048,-0.043 -0.079,-0.038c-1.687,0.291 -3.329,0.8 -4.885,1.515c-0.013,0.006 -0.025,0.015 -0.032,0.028c-3.112,4.646 -3.964,9.178 -3.546,13.654c0.003,0.022 0.014,0.043 0.031,0.056c1.812,1.342 3.839,2.366 5.993,3.029c0.031,0.009 0.065,-0.002 0.084,-0.028c0.463,-0.63 0.873,-1.296 1.226,-1.994c0.006,-0.01 0.009,-0.022 0.009,-0.034c-0,-0.032 -0.02,-0.06 -0.05,-0.071c-0.647,-0.248 -1.273,-0.546 -1.872,-0.892c-0.024,-0.014 -0.038,-0.039 -0.038,-0.066c-0,-0.025 0.011,-0.047 0.03,-0.062c0.126,-0.094 0.252,-0.192 0.372,-0.291c0.022,-0.018 0.052,-0.022 0.078,-0.01c3.927,1.792 8.18,1.792 12.061,-0c0.026,-0.013 0.056,-0.009 0.078,0.009c0.12,0.099 0.246,0.198 0.373,0.292c0.019,0.015 0.031,0.038 0.031,0.062c-0,0.027 -0.014,0.052 -0.038,0.066c-0.598,0.349 -1.224,0.647 -1.873,0.891c-0.029,0.011 -0.049,0.04 -0.049,0.071c0,0.013 0.003,0.025 0.009,0.035c0.359,0.694 0.768,1.36 1.225,1.993c0.019,0.026 0.053,0.038 0.084,0.028c2.158,-0.66 4.188,-1.684 6.002,-3.028c0.018,-0.013 0.03,-0.033 0.032,-0.055c0.5,-5.175 -0.838,-9.67 -3.549,-13.655Zm-12.328,10.929c-1.182,-0 -2.157,-1.085 -2.157,-2.418c0,-1.333 0.956,-2.418 2.157,-2.418c1.211,-0 2.176,1.095 2.157,2.418c-0,1.333 -0.956,2.418 -2.157,2.418Zm7.975,-0c-1.183,-0 -2.157,-1.085 -2.157,-2.418c-0,-1.333 0.955,-2.418 2.157,-2.418c1.211,-0 2.176,1.095 2.157,2.418c-0,1.333 -0.946,2.418 -2.157,2.418Z"
    ></path>
</svg>
