<svg
    aria-hidden="true"
    focusable="false"
    role="img"
    xmlns="http://www.w3.org/2000/svg"
    xmlns:xlink="http://www.w3.org/1999/xlink"
    viewBox="0 0 24 24"
    width="24"
    height="24"
    style="fill: currentColor;"
>
    <path
        d="M9.305,15.635c-0,1.045 -0.545,2.755 -1.835,2.755c-1.29,-0 -1.835,-1.71 -1.835,-2.755c-0,-1.045 0.545,-2.755 1.835,-2.755c1.29,-0 1.835,1.71 1.835,2.755Zm14.695,-2.525c-0,1.595 -0.16,3.285 -0.875,4.75c-1.895,3.83 -7.105,3.74 -10.835,3.74c-3.79,-0 -9.31,0.135 -11.28,-3.74c-0.73,-1.45 -1.01,-3.155 -1.01,-4.75c0,-2.095 0.695,-4.075 2.075,-5.68c-0.26,-0.79 -0.385,-1.62 -0.385,-2.44c-0,-1.075 0.245,-1.615 0.73,-2.59c2.265,-0 3.715,0.45 5.44,1.8c1.45,-0.345 2.94,-0.5 4.435,-0.5c1.35,-0 2.71,0.145 4.02,0.46c1.7,-1.335 3.15,-1.76 5.39,-1.76c0.49,0.975 0.73,1.515 0.73,2.59c-0,0.82 -0.13,1.635 -0.385,2.41c1.375,1.62 1.95,3.615 1.95,5.71Zm-3.215,2.525c-0,-2.195 -1.335,-4.13 -3.675,-4.13c-0.945,-0 -1.85,0.17 -2.8,0.3c-0.745,0.115 -1.49,0.16 -2.255,0.16c-0.76,-0 -1.505,-0.045 -2.255,-0.16c-0.935,-0.13 -1.85,-0.3 -2.8,-0.3c-2.34,-0 -3.675,1.935 -3.675,4.13c-0,4.39 4.02,5.065 7.52,5.065l2.41,-0c3.515,-0 7.53,-0.67 7.53,-5.065Zm-4.13,-2.755c-1.29,-0 -1.835,1.71 -1.835,2.755c-0,1.045 0.545,2.755 1.835,2.755c1.29,-0 1.835,-1.71 1.835,-2.755c-0,-1.045 -0.545,-2.755 -1.835,-2.755Z"
    ></path>
</svg>
