<svg
    aria-hidden="true"
    focusable="false"
    role="img"
    xmlns="http://www.w3.org/2000/svg"
    xmlns:xlink="http://www.w3.org/1999/xlink"
    viewBox="0 0 24 24"
    width="24"
    height="24"
    style="fill: currentColor"
>
    <path
        d="M5.509,3.917l-0.425,-0.426c-0.426,-0.425 -1.113,-0.415 -1.528,0l-0.01,0.011c-0.426,0.425 -0.426,1.113 -0,1.527l0.425,0.426c0.426,0.425 1.102,0.425 1.527,-0l0.011,-0.011c0.426,-0.415 0.426,-1.113 0,-1.527Zm-3.316,6.938l-1.113,-0c-0.6,-0 -1.08,0.48 -1.08,1.08l-0,0.011c-0,0.6 0.48,1.08 1.08,1.08l1.102,-0c0.611,0.011 1.091,-0.469 1.091,-1.069l-0,-0.011c-0,-0.611 -0.48,-1.091 -1.08,-1.091Zm9.818,-10.855l-0.011,-0c-0.61,-0 -1.09,0.48 -1.09,1.08l-0,1.047c-0,0.6 0.48,1.08 1.08,1.08l0.01,0c0.611,0.011 1.091,-0.469 1.091,-1.069l0,-1.058c0,-0.6 -0.48,-1.08 -1.08,-1.08Zm8.444,3.502c-0.425,-0.426 -1.112,-0.426 -1.538,-0.011l-0.425,0.426c-0.426,0.425 -0.426,1.112 -0,1.527l0.011,0.011c0.425,0.425 1.112,0.425 1.527,-0l0.425,-0.426c0.426,-0.425 0.426,-1.102 0,-1.527Zm-1.974,16.473l0.425,0.426c0.426,0.425 1.113,0.425 1.538,-0c0.426,-0.426 0.426,-1.113 0,-1.538l-0.425,-0.426c-0.426,-0.425 -1.113,-0.414 -1.527,0c-0.437,0.436 -0.437,1.113 -0.011,1.538Zm2.247,-8.04l0,0.011c0,0.6 0.48,1.08 1.08,1.08l1.102,-0c0.6,-0 1.08,-0.48 1.08,-1.08l-0,-0.011c-0,-0.6 -0.48,-1.08 -1.08,-1.08l-1.102,-0c-0.6,-0 -1.08,0.48 -1.08,1.08Zm-8.728,-6.535c-3.611,0 -6.545,2.935 -6.545,6.546c-0,3.611 2.934,6.546 6.545,6.546c3.612,-0 6.546,-2.935 6.546,-6.546c0,-3.611 -2.934,-6.546 -6.546,-6.546Zm-0.01,18.492l0.01,-0c0.6,-0 1.08,-0.48 1.08,-1.08l0,-1.048c0,-0.6 -0.48,-1.08 -1.08,-1.08l-0.01,0c-0.6,0 -1.08,0.48 -1.08,1.08l-0,1.048c-0,0.6 0.48,1.08 1.08,1.08Zm-8.444,-3.502c0.425,0.425 1.112,0.425 1.538,-0l0.425,-0.426c0.426,-0.425 0.415,-1.112 0,-1.527l-0.011,-0.011c-0.425,-0.425 -1.112,-0.425 -1.538,0l-0.425,0.426c-0.415,0.436 -0.415,1.112 0.011,1.538Z"
    ></path>
</svg>
