<svg
    aria-hidden="true"
    focusable="false"
    role="img"
    viewBox="0 0 24 24"
    fill="none"
    xmlns="http://www.w3.org/2000/svg"
    style="fill: currentColor"
    width="24"
    height="24"
>
    <path
        d="M24,19.6c0,-0.331 -0.269,-0.6 -0.6,-0.6l-20.8,0c-0.331,0 -0.6,0.269 -0.6,0.6l0,2.8c0,0.331 0.269,0.6 0.6,0.6l20.8,-0c0.331,-0 0.6,-0.269 0.6,-0.6l0,-2.8Zm0,-9c0,-0.331 -0.269,-0.6 -0.6,-0.6l-22.8,-0c-0.331,-0 -0.6,0.269 -0.6,0.6l0,2.8c0,0.331 0.269,0.6 0.6,0.6l22.8,-0c0.331,-0 0.6,-0.269 0.6,-0.6l0,-2.8Zm0,-9c0,-0.331 -0.269,-0.6 -0.6,-0.6l-15.8,-0c-0.331,-0 -0.6,0.269 -0.6,0.6l0,2.8c0,0.331 0.269,0.6 0.6,0.6l15.8,-0c0.331,-0 0.6,-0.269 0.6,-0.6l0,-2.8Z"
    ></path>
</svg>
