<svg
    aria-hidden="true"
    focusable="false"
    role="img"
    xmlns="http://www.w3.org/2000/svg"
    xmlns:xlink="http://www.w3.org/1999/xlink"
    viewBox="0 0 24 24"
    width="24"
    height="24"
    style="fill:currentColor;"
>
    <path
        d="M21.533,7.112c0.015,0.213 0.015,0.426 0.015,0.639c0,6.503 -4.949,13.995 -13.995,13.995c-2.786,0 -5.375,-0.807 -7.553,-2.208c0.396,0.046 0.777,0.061 1.188,0.061c2.299,0 4.416,-0.777 6.106,-2.102c-2.162,-0.045 -3.974,-1.461 -4.599,-3.411c0.305,0.046 0.61,0.076 0.929,0.076c0.442,0 0.884,-0.061 1.295,-0.167c-2.254,-0.457 -3.944,-2.437 -3.944,-4.828l-0,-0.06c0.654,0.365 1.416,0.594 2.223,0.624c-1.325,-0.883 -2.193,-2.391 -2.193,-4.097c0,-0.913 0.244,-1.751 0.67,-2.482c2.421,2.985 6.061,4.934 10.142,5.147c-0.076,-0.365 -0.122,-0.746 -0.122,-1.126c0,-2.711 2.193,-4.919 4.919,-4.919c1.416,-0 2.696,0.594 3.594,1.553c1.112,-0.213 2.178,-0.624 3.122,-1.188c-0.366,1.142 -1.142,2.102 -2.162,2.711c0.989,-0.107 1.949,-0.381 2.832,-0.761c-0.67,0.974 -1.508,1.842 -2.467,2.543Z"
    ></path>
</svg>
